<svg xmlns="http://www.w3.org/2000/svg" viewBox="0 0 354.47 111.14"><defs><style>.cls-1{fill:#0f2836;stroke:#fff;stroke-miterlimit:10;stroke-width:2px;}.cls-2{fill:#fff;}.cls-3{font-size:17.14px;fill:#f9f9f9;font-family:MicrosoftJhengHeiUIBold, Microsoft JhengHei UI;}.cls-4{letter-spacing:-0.01em;}.cls-5{letter-spacing:0em;}</style></defs><title>Asset 3</title><g id="Layer_2" data-name="Layer 2"><g id="Layer_1-2" data-name="Layer 1"><path class="cls-1" d="M343.45,1H11A10,10,0,0,0,1,11v89.1a10,10,0,0,0,10,10H343.45a10,10,0,0,0,10-10V11a10,10,0,0,0-10-10"/><path class="cls-2" d="M78.71,56.18c-.07-8.53,7-12.68,7.31-12.88a15.74,15.74,0,0,0-12.38-6.69c-5.2-.54-10.25,3.12-12.9,3.12s-6.79-3.06-11.19-3a16.51,16.51,0,0,0-13.87,8.45c-6,10.39-1.52,25.64,4.22,34,2.88,4.11,6.24,8.7,10.63,8.53S56.43,85,61.63,85s6.65,2.74,11.13,2.64,7.52-4.13,10.29-8.28a33.6,33.6,0,0,0,4.71-9.58,14.84,14.84,0,0,1-9.05-13.64"/><path class="cls-2" d="M70.24,31.09A15.07,15.07,0,0,0,73.7,20.27a15.37,15.37,0,0,0-9.94,5.15c-2.14,2.49-4,6.58-3.55,10.42,3.76.28,7.62-1.9,10-4.75"/><path class="cls-2" d="M140.86,87.11h-6l-3.28-10.32h-11.4l-3.13,10.32h-5.84L122.53,52h7ZM130.61,72.46l-3-9.17c-.32-.93-.91-3.14-1.77-6.61h-.11c-.35,1.49-.9,3.7-1.67,6.61l-2.92,9.17Z"/><path class="cls-2" d="M169.94,74.13q0,6.47-3.49,10.21a10.2,10.2,0,0,1-7.76,3.33q-5,0-7.2-3.59h-.09V97.42h-5.64V70.12c0-2.71-.06-5.48-.2-8.34h4.94l.32,4h.1a10,10,0,0,1,16-1,13.93,13.93,0,0,1,3,9.32m-5.73.21a10.46,10.46,0,0,0-1.67-6.1,5.78,5.78,0,0,0-4.9-2.5,5.85,5.85,0,0,0-3.77,1.38,6.45,6.45,0,0,0-2.22,3.63,7.39,7.39,0,0,0-.25,1.71v4.22a6.75,6.75,0,0,0,1.68,4.66,5.6,5.6,0,0,0,4.41,1.91,5.72,5.72,0,0,0,4.94-2.45,10.72,10.72,0,0,0,1.78-6.46"/><path class="cls-2" d="M199.05,74.13q0,6.47-3.49,10.21a10.15,10.15,0,0,1-7.76,3.33q-5,0-7.18-3.59h-.11V97.42h-5.62V70.12c0-2.71-.07-5.48-.21-8.34h4.95l.31,4h.11a10,10,0,0,1,16-1,13.93,13.93,0,0,1,3,9.32m-5.72.21a10.46,10.46,0,0,0-1.67-6.1,5.78,5.78,0,0,0-4.9-2.5A5.85,5.85,0,0,0,183,67.12a6.38,6.38,0,0,0-2.21,3.63,7.05,7.05,0,0,0-.27,1.71v4.22a6.72,6.72,0,0,0,1.69,4.66,5.6,5.6,0,0,0,4.41,1.91,5.75,5.75,0,0,0,4.95-2.45,10.86,10.86,0,0,0,1.77-6.46"/><path class="cls-2" d="M231.62,77.26a9.37,9.37,0,0,1-3.12,7.29q-3.44,3.08-9.57,3.07a16.86,16.86,0,0,1-9.1-2.18l1.31-4.69A15.45,15.45,0,0,0,219.27,83a7.7,7.7,0,0,0,4.95-1.43A4.7,4.7,0,0,0,226,77.72a4.89,4.89,0,0,0-1.46-3.6,13.46,13.46,0,0,0-4.85-2.72q-9.21-3.44-9.21-10.07a8.89,8.89,0,0,1,3.23-7.09,12.71,12.71,0,0,1,8.59-2.77,17,17,0,0,1,8,1.67l-1.4,4.58a13.92,13.92,0,0,0-6.73-1.61,6.75,6.75,0,0,0-4.63,1.46,4.16,4.16,0,0,0-1.4,3.17,4.28,4.28,0,0,0,1.61,3.44,18,18,0,0,0,5.1,2.71,17.34,17.34,0,0,1,6.67,4.27,8.92,8.92,0,0,1,2.14,6.1"/><path class="cls-2" d="M250.21,66H244V78.3c0,3.12,1.09,4.69,3.28,4.69a10.25,10.25,0,0,0,2.5-.26L250,87a12.54,12.54,0,0,1-4.37.62,6.72,6.72,0,0,1-5.21-2c-1.25-1.35-1.88-3.63-1.88-6.82V66h-3.7V61.78h3.7V57.15L244,55.48v6.3h6.19Z"/><path class="cls-2" d="M278.19,74.24a13.88,13.88,0,0,1-3.33,9.58,11.9,11.9,0,0,1-9.27,3.85A11.35,11.35,0,0,1,256.7,84a13.5,13.5,0,0,1-3.3-9.32A13.72,13.72,0,0,1,256.81,65,11.78,11.78,0,0,1,266,61.26a11.57,11.57,0,0,1,9,3.7,13.33,13.33,0,0,1,3.23,9.28m-5.83.18a11.39,11.39,0,0,0-1.52-6,5.54,5.54,0,0,0-5-3,5.62,5.62,0,0,0-5.15,3,11.62,11.62,0,0,0-1.51,6.12,11.38,11.38,0,0,0,1.51,6,5.74,5.74,0,0,0,10.15,0,11.35,11.35,0,0,0,1.57-6.06"/><path class="cls-2" d="M296.48,66.73a10.06,10.06,0,0,0-1.77-.15,5.34,5.34,0,0,0-4.59,2.24,8.42,8.42,0,0,0-1.41,5V87.1h-5.62l.05-17.34q0-4.38-.21-8h4.9l.21,4.85h.15a8.69,8.69,0,0,1,2.81-4,6.84,6.84,0,0,1,4.07-1.36,9.94,9.94,0,0,1,1.41.1Z"/><path class="cls-2" d="M321.63,73.24a13.28,13.28,0,0,1-.2,2.56H304.56A7.34,7.34,0,0,0,307,81.53a8.37,8.37,0,0,0,5.52,1.77,18.66,18.66,0,0,0,6.83-1.2l.88,3.91a21.16,21.16,0,0,1-8.49,1.57q-5.88,0-9.25-3.47a12.83,12.83,0,0,1-3.36-9.3,14.51,14.51,0,0,1,3.13-9.54,10.78,10.78,0,0,1,8.85-4.06,9.42,9.42,0,0,1,8.29,4.06,13.68,13.68,0,0,1,2.23,8m-5.36-1.45a7.66,7.66,0,0,0-1.09-4.33,4.92,4.92,0,0,0-4.49-2.34,5.33,5.33,0,0,0-4.47,2.29,8.26,8.26,0,0,0-1.66,4.38Z"/><text class="cls-3" transform="translate(111.22 35.86)">Downl<tspan class="cls-4" x="53.52" y="0">o</tspan><tspan class="cls-5" x="64.29" y="0">ad F</tspan><tspan class="cls-4" x="98.51" y="0">r</tspan><tspan x="105.03" y="0">om</tspan></text></g></g></svg>