<svg xmlns="http://www.w3.org/2000/svg" viewBox="0 0 89.53 89.53"><defs><style>.cls-1{fill:#0f2836;stroke:#fff;stroke-miterlimit:10;stroke-width:2px;}.cls-2{fill:#fff;}</style></defs><title>Asset 9</title><g id="Layer_2" data-name="Layer 2"><g id="Layer_1-2" data-name="Layer 1"><path class="cls-1" d="M66.38,88.53H51.54l-6.77-2.24-6.72,2.24H23.16A22.16,22.16,0,0,1,1,66.38V23.16A22.16,22.16,0,0,1,23.16,1H66.38A22.16,22.16,0,0,1,88.53,23.16V66.38A22.15,22.15,0,0,1,66.38,88.53Z"/><path class="cls-2" d="M38,35.24v9.53H27V57.26H38V88.53H51.52V57.26H61.6l1.91-12.49h-12V36.66c0-3.42,1.68-6.76,7-6.76H64V19.27a66.11,66.11,0,0,0-9.68-.85C44.47,18.42,38,24.41,38,35.24Z"/></g></g></svg>