<svg xmlns="http://www.w3.org/2000/svg" viewBox="0 0 354.47 111.14"><defs><style>.cls-1{fill:#0f2836;stroke:#fff;stroke-miterlimit:10;stroke-width:2px;}.cls-2{fill:#fff;}.cls-3{font-size:17.14px;fill:#f9f9f9;font-family:MicrosoftJhengHeiUIBold, Microsoft JhengHei UI;}.cls-4{letter-spacing:-0.01em;}.cls-5{letter-spacing:0em;}</style></defs><title>Asset 4</title><g id="Layer_2" data-name="Layer 2"><g id="Layer_1-2" data-name="Layer 1"><path class="cls-1" d="M343.45,1H11A10,10,0,0,0,1,11v89.1a10,10,0,0,0,10,10H343.45a10,10,0,0,0,10-10V11a10,10,0,0,0-10-10"/><path class="cls-2" d="M181.15,60.18a11.21,11.21,0,1,0,11.24,11.21,11,11,0,0,0-11.24-11.21m0,18a6.81,6.81,0,1,1,6.32-6.79,6.48,6.48,0,0,1-6.32,6.79m-24.54-18a11.21,11.21,0,1,0,11.25,11.21,11,11,0,0,0-11.25-11.21m0,18a6.81,6.81,0,1,1,6.32-6.79,6.48,6.48,0,0,1-6.32,6.79M127.42,63.62v4.75H138.8a9.92,9.92,0,0,1-2.59,6,11.67,11.67,0,0,1-8.79,3.48,12.65,12.65,0,0,1,0-25.3,12.14,12.14,0,0,1,8.58,3.4l3.35-3.35a16.56,16.56,0,0,0-11.93-4.8,17.4,17.4,0,1,0,0,34.8,15.91,15.91,0,0,0,12.14-4.88c3.15-3.14,4.12-7.55,4.12-11.12a16.39,16.39,0,0,0-.25-3Zm119.37,3.69c-.94-2.5-3.78-7.13-9.6-7.13s-10.56,4.54-10.56,11.21a11,11,0,0,0,11.12,11.2,11.15,11.15,0,0,0,9.33-5l-3.82-2.55a6.38,6.38,0,0,1-5.51,3.1,5.71,5.71,0,0,1-5.44-3.4l15-6.19Zm-15.28,3.74a6.15,6.15,0,0,1,5.86-6.54,4.33,4.33,0,0,1,4.15,2.38ZM219.33,81.91h4.92V49h-4.92Zm-8.07-19.22h-.17a7.74,7.74,0,0,0-5.9-2.51c-5.6,0-10.73,4.93-10.73,11.25a11.09,11.09,0,0,0,10.73,11.16,7.65,7.65,0,0,0,5.9-2.54h.17v1.61c0,4.29-2.29,6.58-6,6.58a6.23,6.23,0,0,1-5.65-4L195.35,86a10.67,10.67,0,0,0,9.93,6.62c5.77,0,10.65-3.39,10.65-11.67V60.86h-4.67Zm-5.64,15.49a6.43,6.43,0,0,1-6.24-6.75c0-4,2.84-6.83,6.24-6.83s6,2.88,6,6.83-2.63,6.75-6,6.75M269.85,49H258.07V81.91H263V69.43h6.87c5.45,0,10.8-3.94,10.8-10.22S275.3,49,269.85,49M270,64.85h-7V53.56h7a5.65,5.65,0,1,1,0,11.29m30.38-4.73c-3.55,0-7.24,1.57-8.77,5L296,67a4.65,4.65,0,0,1,4.49-2.42c2.54,0,5.12,1.52,5.17,4.24v.34a10.87,10.87,0,0,0-5.13-1.27c-4.7,0-9.49,2.58-9.49,7.41,0,4.41,3.86,7.25,8.18,7.25a7,7,0,0,0,6.27-3.22h.17v2.54h4.74V69.23c0-5.85-4.36-9.11-10-9.11m-.59,18.05c-1.61,0-3.85-.8-3.85-2.79,0-2.55,2.79-3.52,5.21-3.52a8.83,8.83,0,0,1,4.49,1.1,6,6,0,0,1-5.85,5.21m27.88-17.33L322,75.12h-.17L316,60.84h-5.3l8.77,20-5,11.1h5.13l13.52-31.06ZM283.36,81.91h4.92V49h-4.92Z"/><path class="cls-2" d="M29.08,22.85a5.28,5.28,0,0,0-1.16,3.61V84.68a5.66,5.66,0,0,0,.84,3.19L61.05,55.2Z"/><path class="cls-2" d="M62.21,54,72.18,44,34.61,22.6a5,5,0,0,0-4.14-.67Z"/><path class="cls-2" d="M62.21,56.37,30,89c1.21.67,2.84.58,4.65-.44l38-21.62Z"/><path class="cls-2" d="M85.94,51.77l-12.29-7L63.36,55.2,74.12,66.09l11.82-6.72c3.68-2.09,3.68-5.51,0-7.6"/><text class="cls-3" transform="translate(113.1 35.96)">Downl<tspan class="cls-4" x="53.52" y="0">o</tspan><tspan class="cls-5" x="64.29" y="0">ad F</tspan><tspan class="cls-4" x="98.51" y="0">r</tspan><tspan x="105.03" y="0">om</tspan></text></g></g></svg>