<?xml version="1.0" encoding="utf-8"?>
<!-- Generator: Adobe Illustrator 24.3.0, SVG Export Plug-In . SVG Version: 6.00 Build 0)  -->
<svg version="1.1" id="Layer_1" xmlns="http://www.w3.org/2000/svg" xmlns:xlink="http://www.w3.org/1999/xlink" x="0px" y="0px"
	 viewBox="0 0 500 220" style="enable-background:new 0 0 500 220;" xml:space="preserve">
<style type="text/css">
	.st0{fill:#245876;}
	.st1{fill:#5F849A;}
	.st2{fill-rule:evenodd;clip-rule:evenodd;fill:none;stroke:#FFFFFF;stroke-miterlimit:10;}
	.st3{fill:#FFFFFF;}
	.st4{fill:#387988;}
	.st5{font-family:'Roadgeek2005Mittelschrift';}
	.st6{font-size:24.9751px;}
</style>
<g>
	<path class="st0" d="M94.24,74.37c4.85,0.37,7.57-0.44,8.16-2.43c0-0.74-0.59-2.35-1.84-5.15l0.51-5.07h0.37
		c1.62,2.94,2.43,5.88,2.43,8.82v1.76c0,1.18-0.29,2.43-0.81,3.75c-0.59,1.32-1.32,2.43-2.5,3.24c-1.1,0.88-3.24,1.25-6.32,1.1
		V74.37z M102.7,52.6h0.22c1.32,0.22,2.72,1.18,4.27,2.79v0.22l-2.28,4.04c-2.94-0.96-4.49-1.76-4.49-2.5
		C101.45,54.14,102.18,52.6,102.7,52.6L102.7,52.6z M95.86,54.44h0.37c1.25,0.29,2.65,1.1,4.12,2.28v0.22
		c-0.88,2.72-1.62,4.12-2.28,4.34c-1.84-0.44-3.31-1.1-4.27-1.99v-0.22C93.8,57.6,94.46,56.05,95.86,54.44L95.86,54.44z"/>
	<path class="st0" d="M106.82,39.8c0.15-0.07,0.22,0.07,0.15,0.51c-1.03,2.65-2.72,4.41-4.85,5.44l-8.02,4.27
		c-0.37-0.07-0.44-0.37-0.22-0.88c1.1-2.21,1.76-3.46,2.21-3.9L106.82,39.8z"/>
	<path class="st0" d="M94.98,80.4c-0.07,0-0.22,0-0.37,0h-1.69c-1.62,0-3.53-1.1-5.74-3.31c-3.68,2.13-7.79,3.24-11.99,3.31v-6.03
		c2.21,0.15,5.15-0.15,8.68-1.03v-0.22c-1.76-1.1-3.38-1.76-4.85-1.76l-1.47,0.22l-0.44-0.96c0.51-3.6,1.99-5.29,4.34-5.29
		l2.94-0.22c4.71,0.59,7.06,1.69,7.06,3.38v0.74l-1.03,3.9c0.81,0.88,2.35,1.25,4.56,1.25V80.4z"/>
	<path class="st0" d="M83.5,50.17h1.76c2.28,0,3.38,0.81,3.38,2.57c-1.47,4.12-3.16,6.32-5.29,6.54l-2.43,0.37
		c-0.37,0-0.59-0.15-0.51-0.37c1.99-1.1,3.9-2.35,5.52-3.9c-0.59-0.51-1.25-0.88-1.91-0.88H83.5l-2.06,0.22l-0.15-0.22v-0.29
		C82.25,51.5,82.99,50.17,83.5,50.17L83.5,50.17z"/>
	<path class="st0" d="M62.84,74.37h0.07c2.72,0.07,4.19-1.1,4.63-3.75c-1.1-7.87-1.69-13.31-1.69-16.47c0-1.18,0.59-2.72,1.54-4.71
		l0.15,0.22l0.37,0.37l-0.15,1.4c0.15,8.75,1.25,15.37,3.16,19.93c0.74,1.76,2.43,2.79,5,3.01v6.03c-3.68-0.07-6.18-2.28-7.57-6.69
		h-0.22c-1.18,4.41-3.09,6.62-5.29,6.69V74.37z"/>
	<path class="st0" d="M75.05,39.58c0.15-0.15,0.22,0,0.15,0.51c-1.03,2.57-2.72,4.41-4.85,5.44l-8.02,4.27
		c-0.37-0.07-0.44-0.44-0.22-0.88c1.03-2.21,1.76-3.46,2.13-3.9L75.05,39.58z"/>
	<path class="st0" d="M47.03,74.37h0.29c1.32,0,2.65-0.44,4.04-1.32c1.47-0.88,2.28-2.13,2.5-3.68l0.22-0.22h0.15
		c0.29,0,0.59,0.74,0.96,2.21c1.76,2.21,4.27,3.16,7.43,3.01c0.29,0,0.44,0,0.66,0v6.03c-0.22,0.07-0.37,0.07-0.66,0.07l-2.57-0.29
		c-0.29,2.57-1.1,3.9-2.43,3.9h-0.44c-2.43-0.51-3.68-1.47-3.68-2.79l0.59-3.46c-0.44-0.59-0.88-0.81-1.32-0.81
		c-1.4,2.28-3.31,3.46-5.74,3.38V74.37z"/>
	<path class="st0" d="M53.65,53.41c0,0.96,0.88,1.69,2.5,1.84h0.29c0.66,0,1.03-0.15,1.18-0.66c0-1.03-0.66-1.84-2.13-2.43
		C54.9,52.16,54.24,52.52,53.65,53.41L53.65,53.41z M56.44,49.14c1.99,0,2.87,1.25,2.87,3.68c0,3.9-3.16,7.28-9.56,10.07
		c-0.88,0.29-0.96-0.07-0.29-1.1c0.22-0.29,1.69-1.47,4.56-3.53v-0.07c-1.25-0.66-1.91-1.69-1.91-3.46c0.81-3.68,2.13-5.59,3.9-5.59
		H56.44z"/>
	<path class="st0" d="M47.84,80.4h-2.06c-1.25,5.37-4.27,8.09-9.19,8.16c-2.72,0.15-4.04,0.07-4.04-0.15
		c0.22-0.44,2.06-1.47,5.37-2.87c3.38-2.35,5.44-3.75,6.18-4.41l0.22-0.59l-3.24-0.51c-2.5-0.66-3.75-1.91-4.12-3.82v-0.37
		c0-3.16,0.81-5.15,2.28-6.03l1.18-0.22c2.13,0,3.97,1.62,5.37,4.85h0.37c0.59,0,1.25-0.07,1.69-0.07V80.4z"/>
	<path class="st0" d="M39.75,54.66h1.76c2.28,0,3.38,0.81,3.38,2.57c-1.47,4.12-3.16,6.25-5.29,6.54l-2.43,0.37
		c-0.37,0-0.59-0.15-0.51-0.37c1.99-1.1,3.9-2.35,5.52-3.9C41.59,59.36,40.93,59,40.27,59h-0.51l-2.06,0.22L37.54,59V58.7
		C38.5,55.91,39.24,54.66,39.75,54.66L39.75,54.66z"/>
	<path class="st0" d="M28.87,64.73h0.37c0.44,0,1.47,2.87,3.16,8.82l0.22,0.81c0,4.56-1.1,7.94-3.16,9.93
		c-3.01,3.46-6.54,5.07-10.66,5.07c-3.31-0.74-5.52-1.54-6.47-2.28c-3.24-2.94-4.85-6.47-4.85-10.81c0-3.6,1.47-6.99,4.49-10.15
		l0.22-0.22h0.29l0.37,0.44c0,0.29-0.81,1.69-2.57,4.27c-0.51,0.88-0.81,2.13-0.96,3.75c0,3.01,1.47,5.66,4.49,7.79
		c2.94,1.18,4.93,1.76,6.03,1.76c2.65,0,5.74-1.25,9.41-3.75c1.47-1.32,2.28-2.21,2.28-2.5l-2.65-7.65l-0.22-1.4L28.87,64.73z
		 M19.01,68.63h0.37c1.69,0.51,3.31,1.47,4.71,2.94v0.44c-0.15,1.03-0.96,2.35-2.28,4.12c-3.24-1.1-4.85-2.13-4.85-3.01
		C17.69,70.76,18.42,69.29,19.01,68.63L19.01,68.63z"/>
	<path class="st0" d="M28.28,52.6c0.15-0.15,0.29,0,0.15,0.51c-1.03,2.65-2.72,4.41-4.85,5.44l-8.02,4.27
		c-0.37-0.07-0.37-0.44-0.15-0.88c1.03-2.21,1.76-3.46,2.13-3.9L28.28,52.6z"/>
	<path class="st0" d="M478.17,74.29h0.96c5.81,0.22,9.63-0.44,11.55-2.06l0.37-0.81c-0.29-0.59-0.51-0.88-0.96-0.88
		c-0.88,0.51-1.91,0.81-2.94,0.81H487c-3.24-0.44-4.93-1.76-5.07-4.12v-0.22c0.29-4.49,1.32-6.69,3.01-6.69h0.88
		c2.87-0.15,5.07,2.21,6.54,7.06l0.15,1.99v0.37c0,4.78-1.62,7.94-4.85,9.49c-1.25,0.81-4.34,1.18-9.49,1.18V74.29z M484.2,50.17
		c1.62,0,3.16,1.1,4.49,3.16c-1.1,2.72-1.99,4.12-2.57,4.12c-2.5-1.25-3.9-2.13-4.12-2.57C482,53.63,482.73,52.08,484.2,50.17
		L484.2,50.17z"/>
	<path class="st0" d="M491.11,39.73c0.15-0.07,0.22,0.07,0.15,0.59c-1.03,2.57-2.72,4.41-4.85,5.37l-8.02,4.27
		c-0.37-0.07-0.44-0.37-0.22-0.81c1.1-2.21,1.76-3.46,2.21-3.97L491.11,39.73z"/>
	<path class="st0" d="M478.83,80.4c-0.22,0-0.66,0-1.03,0c-1.69,0-3.46-1.32-5.37-3.9c-0.74,2.87-2.06,4.27-3.9,4.27h-0.22
		c-1.54,0-2.87-0.96-3.9-2.94h-0.22c-1.1,2.35-2.43,3.46-4.04,3.24c-2.94,0-4.71-1.47-5.29-4.34c-1.99,2.5-4.19,3.75-6.62,3.68
		h-0.29v-6.1h0.07c3.75,0.07,6.62-1.18,8.38-3.53c0.22,0,0.37,0.22,0.37,0.59l-0.15,1.4c0.96,2.06,2.28,3.16,3.9,3.16
		c1.54,0,3.09-1.62,4.63-4.78h0.15l0.66,0.66v1.32c0,1.25,0.81,1.99,2.57,2.13h0.29c1.62,0,3.16-1.69,4.49-5h0.22
		c0.22,0,0.37,0.51,0.37,1.69c0.66,1.62,2.35,2.43,4.93,2.35V80.4z"/>
	<path class="st0" d="M463.61,54.22h1.76c2.28,0,3.38,0.88,3.38,2.65c-1.47,4.12-3.16,6.25-5.29,6.47l-2.43,0.37
		c-0.37,0-0.59-0.07-0.51-0.37c1.99-1.1,3.9-2.35,5.52-3.82c-0.59-0.59-1.25-0.88-1.91-0.88h-0.51l-2.06,0.15l-0.15-0.15v-0.29
		C462.36,55.54,463.1,54.22,463.61,54.22L463.61,54.22z"/>
	<path class="st0" d="M449.05,76.35c0,0.66-0.15,2.06-0.44,4.12h-5.29c-0.81,0-1.76,0-2.72,0c-0.29-0.88-0.44-1.91-0.44-3.01
		c0-0.44,0.07-1.1,0.15-1.84c0.07-0.81,0.22-1.18,0.44-1.25c1.03,0.07,1.99,0.07,3.09,0c0.81,0.07,2.35,0.07,4.78,0
		C448.83,74.95,449.05,75.62,449.05,76.35L449.05,76.35z"/>
	<path class="st0" d="M444.2,54.66c1.69,0,3.46,0.96,5.15,2.72c0.22,0.29,0.15,0.59-0.22,0.74c-0.29,0.22-0.59,0.15-0.81-0.07
		c-0.74-0.74-1.84-1.1-3.16-1.1h-0.51c-0.59,0-1.25,0.29-2.06,0.81c0,1.4,1.76,2.35,5.07,2.65l3.31-1.32l0.15,0.44
		c0,1.69-1.99,3.09-5.74,4.41l-5.37,3.24l-0.51,0.15c-0.29,0-0.44-0.15-0.44-0.37c0-0.88,1.18-2.06,3.53-3.68v-0.07
		c-1.1-0.74-1.69-1.69-1.69-2.94C441.4,56.57,442.51,54.66,444.2,54.66L444.2,54.66z"/>
	<path class="st0" d="M450.67,44.07c0.15-0.07,0.22,0.07,0.15,0.59c-1.03,2.57-2.72,4.41-4.85,5.37l-8.02,4.27
		c-0.37,0-0.44-0.37-0.22-0.81c1.1-2.21,1.76-3.46,2.21-3.9L450.67,44.07z"/>
	<path class="st0" d="M427.73,74.29h0.07c2.72,0.15,4.19-1.1,4.63-3.75c-1.1-7.79-1.62-13.24-1.62-16.4c0-1.18,0.51-2.72,1.47-4.71
		l0.15,0.22l0.44,0.37l-0.22,1.4c0.22,8.75,1.25,15.37,3.16,19.93c0.74,1.76,2.43,2.79,5,2.94v6.1c-3.68-0.07-6.18-2.28-7.57-6.69
		h-0.22c-1.18,4.41-3.01,6.62-5.29,6.69V74.29z"/>
	<path class="st0" d="M433.17,39.8c0,1.03,0.88,1.69,2.57,1.84h0.22c0.66,0,1.03-0.15,1.25-0.66c0-0.96-0.74-1.84-2.21-2.43
		C434.42,38.55,433.83,38.92,433.17,39.8L433.17,39.8z M435.96,35.54c1.99,0,2.87,1.25,2.87,3.75c0,3.9-3.09,7.21-9.49,10.07
		c-0.96,0.22-1.03-0.15-0.37-1.1c0.22-0.37,1.69-1.54,4.56-3.6v-0.07c-1.25-0.59-1.91-1.69-1.91-3.46c0.88-3.68,2.21-5.59,3.9-5.59
		H435.96z"/>
	<path class="st0" d="M428.39,80.4h-2.06c-1.25,5.37-4.27,8.09-9.19,8.16c-2.72,0.15-4.04,0.07-4.04-0.22
		c0.22-0.44,2.06-1.4,5.37-2.79c3.38-2.35,5.44-3.82,6.18-4.41l0.22-0.66l-3.24-0.44c-2.5-0.66-3.75-1.91-4.12-3.82v-0.37
		c0-3.16,0.81-5.15,2.28-6.1l1.18-0.15c2.13,0,3.97,1.54,5.37,4.85h0.37c0.59,0,1.25-0.07,1.69-0.07V80.4z"/>
	<path class="st0" d="M419.49,52.89h1.84c2.21,0,3.31,0.88,3.31,2.65c-1.47,4.12-3.16,6.25-5.22,6.54l-2.43,0.29
		c-0.44,0-0.59-0.07-0.59-0.29c2.06-1.1,3.9-2.35,5.59-3.9c-0.66-0.51-1.25-0.88-1.99-0.88h-0.51l-2.06,0.22l-0.07-0.22v-0.29
		C418.24,54.22,418.97,52.89,419.49,52.89L419.49,52.89z"/>
	<path class="st0" d="M429.71,39.21c0.15,0,0.22,0.15,0.22,0.44c-2.43,5-5.74,7.43-10.07,7.43l-4.41-0.59
		c-0.88,0-2.35,1.03-4.63,2.94c-0.37,0.15-0.51,0-0.37-0.59c2.65-3.53,4.78-5.29,6.69-5.29l4.27,0.37c3.31,0,5.88-1.4,7.79-4.41
		C429.34,39.36,429.49,39.21,429.71,39.21L429.71,39.21z"/>
	<path class="st0" d="M406.77,47.52c0.37,0,0.74,1.25,1.18,3.9l1.62,3.9l-0.74,4.49l0.59,10.96v1.84c-0.22,4.41-0.88,7.06-1.91,7.79
		l-0.15-0.22l0.15-2.94c0-2.57-0.81-11.03-2.43-25.3C405.89,48.92,406.47,47.52,406.77,47.52L406.77,47.52z"/>
	<path class="st0" d="M391.55,47.52c0.37,0,0.74,1.25,1.1,3.9l1.69,3.9l-0.74,4.49l0.51,10.96v1.84c-0.15,4.41-0.81,7.06-1.84,7.79
		l-0.22-0.22l0.22-2.94c0-2.57-0.81-11.03-2.43-25.3C390.66,48.92,391.25,47.52,391.55,47.52L391.55,47.52z"/>
	<path class="st0" d="M397.5,37.89c0.15-0.15,0.22,0,0.15,0.51c-1.03,2.65-2.72,4.41-4.85,5.44l-8.02,4.27
		c-0.37-0.07-0.44-0.44-0.22-0.88c1.1-2.21,1.76-3.46,2.21-3.9L397.5,37.89z"/>
	<path class="st0" d="M368.24,70.39c1.76,0.07,2.72-0.15,2.72-0.66c0-3.82,1.1-8.53,3.38-14.12c0.29-0.74,0.59-0.74,0.96-0.15
		c0.81,1.76,2.21,3.31,4.27,4.49c4.19,2.13,6.4,5.07,6.4,8.82c0,3.9-0.88,6.18-2.5,6.62l-1.84,0.22l-7.13-0.37
		c-1.91,0.88-4.12,1.25-6.25,1.25V70.39z M372.65,67.38c0,1.25,0.96,2.06,2.79,2.35c1.62-0.96,2.43-1.91,2.43-2.94
		c-0.59-2.35-1.54-3.53-2.79-3.53C373.68,63.26,372.87,64.66,372.65,67.38L372.65,67.38z M378.82,69.95l4.63,0.15l0.74-0.15
		c-1.18-1.62-2.72-2.94-4.49-3.97C379.34,65.98,379.04,67.31,378.82,69.95L378.82,69.95z"/>
	<path class="st0" d="M375,41.2h1.76c2.28,0,3.38,0.88,3.38,2.65c-1.47,4.12-3.16,6.25-5.29,6.47l-2.43,0.37
		c-0.37,0-0.51-0.07-0.51-0.37c2.06-1.1,3.9-2.35,5.52-3.82c-0.59-0.59-1.18-0.88-1.91-0.88H375l-2.06,0.15l-0.07-0.15v-0.29
		C373.75,42.52,374.49,41.2,375,41.2L375,41.2z"/>
	<path class="st0" d="M368.75,76.35c-1.84,0-3.31-0.96-4.49-2.87h-0.22c-0.81,3.24-2.21,5.52-3.9,6.84c-2.5,2.5-5.15,3.75-8.02,3.75
		h-1.1c-3.24,0-6.25-1.99-8.75-5.88c-1.03-1.84-1.47-3.9-1.47-6.25c0-3.38,1.69-6.77,4.78-10.22c1.69-1.1,2.21-1.03,1.54,0.15
		c-2.87,4.27-4.27,7.06-4.27,8.68c0,4.04,2.87,6.69,8.53,8.02h1.54c3.09,0,6.25-1.69,9.49-5.07c0.22-1.03,0.37-2.28,0.15-3.6
		c-0.59-2.65-1.54-9.78-2.79-21.1l1.1-3.97c0.22,0,0.37,0,0.59,0c0.29,0,0.96,5,1.84,14.93c0.59,4.93,1.4,8.02,2.21,9.41
		c0.81,0.74,1.84,1.25,3.24,1.18V76.35z"/>
	<path class="st0" d="M357.79,44.95c0.15-0.15,0.29,0,0.15,0.51c-1.03,2.65-2.72,4.41-4.85,5.44l-8.02,4.27
		c-0.37-0.07-0.37-0.44-0.15-0.88c1.03-2.21,1.76-3.46,2.13-3.9L357.79,44.95z"/>
	<path class="st0" d="M332.79,47.52c0.37,0,0.74,1.25,1.18,3.9l1.62,3.9l-0.74,4.49l0.59,10.96v1.84c-0.22,4.41-0.88,7.06-1.91,7.79
		l-0.15-0.22l0.15-2.94c0-2.57-0.81-11.03-2.43-25.3C331.91,48.92,332.5,47.52,332.79,47.52L332.79,47.52z"/>
	<path class="st0" d="M318.89,74.29c0.22,0,0.44,0,0.66,0h1.32c1.84,0,3.31-0.51,4.27-1.54l-2.21-18.6c0.51-3.53,1.1-5.29,1.47-5.29
		l2.43,5.88c0,0.88-0.29,2.28-0.96,4.12l0.96,10.59v2.94c-0.66,3.09-1.69,5.22-2.79,6.54c-0.96,0.88-1.99,1.47-3.16,1.47h-1.1
		c-0.37,0-0.66,0-0.88,0V74.29z"/>
	<path class="st0" d="M319.78,80.4c-3.24-0.22-6.18-2.06-8.75-5.52h-0.22c-1.1,6.84-3.6,10.22-7.43,10.22h-0.59
		c-1.62,0-3.16-1.62-4.78-4.71c-1.25-4.34-1.91-7.72-1.91-10v-1.62c0-1.03,0.22-1.47,0.59-1.54c0.51,0.37,1.18,2.43,1.91,6.47
		c0.66,3.97,2.28,5.88,4.41,5.66c4.34-0.66,6.62-3.31,6.91-7.79l-1.69-6.1v-2.21c0.07-2.5,0.29-3.82,0.74-3.82
		c0.22,0.59,0.44,1.18,0.59,1.69l2.57,8.68c2.06,3.01,4.56,4.49,7.65,4.41V80.4z M308.38,49.51c2.65,1.47,3.97,2.57,3.97,3.6
		c-1.32,2.57-1.99,3.9-2.28,3.9h-0.37c-1.91-1.03-3.09-1.91-3.53-2.72C306.61,52.82,307.35,51.27,308.38,49.51L308.38,49.51z"/>
	<path class="st0" d="M310.66,38.19c0.37,0.59,0.74,2.35,1.18,5.29c-0.29,1.76-0.96,2.65-2.21,2.65h-0.15
		c-0.51,0-1.18-0.37-1.99-1.03c-0.59,1.03-1.47,1.54-2.57,1.54c-1.25,0-1.99-1.69-1.99-5.15c0.37-1.25,0.74-1.91,1.03-1.91
		l0.15,0.22v3.01c0.22,1.03,0.51,1.54,0.81,1.54h0.66c0.74,0,1.18-0.37,1.4-0.88l-0.37-2.65c0.15-0.96,0.37-1.4,0.66-1.4h0.37
		c0.37,2.87,0.96,4.41,1.69,4.41h1.18V43.7l-0.59-3.6v-0.22C310.14,38.77,310.29,38.19,310.66,38.19L310.66,38.19z"/>
	<path class="st0" d="M313.3,84.15c0.15,0,0.22,0.07,0.15,0.59c-1.03,2.65-2.72,4.41-4.85,5.44l-8.02,4.19
		c-0.37,0-0.44-0.37-0.15-0.81c1.03-2.21,1.76-3.46,2.13-3.9L313.3,84.15z"/>
	<path class="st0" d="M277.05,73.12h0.88h0.44h0.88c3.38,0.07,5.44-0.59,6.1-1.99c0-1.03-1.1-3.97-3.53-8.82l-0.37-1.54
		c-0.44-2.06-0.37-3.97,0.15-5.66c0.37-1.76,1.18-2.87,2.5-3.53c2.87-2.13,8.6-5.59,16.91-10.37l0.22,0.15v0.29
		c-1.76,3.16-3.16,5.88-4.12,8.38h-0.37L296.61,49v-0.96l0.15-0.22v-0.15h-0.15c-6.99,4.27-11.62,7.28-13.97,9.12v0.22
		c2.57,5.59,3.97,9.85,4.34,12.72c0,2.13-0.81,4.34-2.13,6.69c-1.32,1.84-3.9,2.79-7.79,2.79l0,0V73.12z"/>
	<path class="st0" d="M282.57,39.8h1.84c2.21,0,3.31,0.88,3.31,2.65c-1.47,4.04-3.16,6.25-5.22,6.47l-2.43,0.37
		c-0.44,0-0.59-0.07-0.59-0.37c2.06-1.1,3.9-2.35,5.59-3.82c-0.66-0.59-1.25-0.96-1.99-0.96h-0.51l-2.06,0.22l-0.07-0.22v-0.29
		C281.32,41.13,282.05,39.8,282.57,39.8L282.57,39.8z"/>
	<path class="st0" d="M277.71,79.22c-0.22,0-0.29,0-0.51,0h-0.96c-1.47,0-2.43-0.15-2.94-0.37c-1.1,4.34-2.35,6.99-3.82,8.09
		c-1.47,0.96-4.71,1.76-9.78,2.43h-0.37c-1.1-0.07-1.62-0.29-1.62-0.51c0-0.44,0.96-0.88,2.72-1.47c7.35-3.46,11.03-6.03,11.03-7.57
		c0-0.66-0.81-2.21-2.65-4.56c-0.37-0.59-0.59-1.47-0.59-2.5v-1.99c0-0.96,0.22-1.47,0.59-1.54c1.62,2.57,4.34,3.9,8.24,3.82
		c0.15,0,0.37,0,0.66,0V79.22z"/>
	<path class="st0" d="M274.11,87.68c0.15,0,0.22,0.07,0.15,0.59c-1.1,2.65-2.72,4.41-4.85,5.44l-8.02,4.19
		c-0.37,0-0.44-0.37-0.22-0.81c1.03-2.21,1.76-3.46,2.13-3.9L274.11,87.68z"/>
	<path class="st0" d="M249.84,47.52c0.37,0,0.74,1.25,1.1,3.9l1.69,3.9l-0.74,4.49l0.59,10.96v1.84c-0.22,4.41-0.88,7.06-1.91,7.79
		l-0.15-0.22l0.15-2.94c0-2.57-0.81-11.03-2.43-25.3C248.96,48.92,249.55,47.52,249.84,47.52L249.84,47.52z"/>
	<path class="st0" d="M258.15,79.59c0.15-0.07,0.29,0.07,0.15,0.59c-1.03,2.65-2.72,4.41-4.85,5.44l-8.02,4.19
		c-0.37-0.07-0.37-0.37-0.15-0.88c1.03-2.21,1.76-3.46,2.13-3.9L258.15,79.59z"/>
	<path class="st0" d="M240.72,64.66h0.37c0.44,0,1.47,2.94,3.16,8.9l0.15,0.74c0,4.63-1.03,8.02-3.09,10
		c-3.01,3.46-6.54,5.07-10.66,5.07c-3.31-0.74-5.52-1.54-6.47-2.28c-3.24-2.94-4.85-6.47-4.85-10.81c0-3.6,1.47-6.99,4.49-10.15
		l0.15-0.22h0.37l0.37,0.37c0,0.29-0.88,1.76-2.57,4.27c-0.51,0.96-0.81,2.21-0.96,3.75c0,3.09,1.47,5.74,4.49,7.87
		c2.94,1.18,4.93,1.76,6.03,1.76c2.57,0,5.74-1.25,9.41-3.75c1.47-1.32,2.28-2.21,2.28-2.57l-2.65-7.57l-0.22-1.4L240.72,64.66z
		 M230.87,68.63h0.37c1.69,0.51,3.31,1.4,4.63,2.94v0.37c-0.15,1.1-0.88,2.43-2.21,4.12c-3.24-1.1-4.85-2.06-4.85-2.94
		C229.55,70.76,230.28,69.29,230.87,68.63L230.87,68.63z"/>
	<path class="st0" d="M231.38,53.11h1.76c2.28,0,3.38,0.81,3.38,2.57c-1.47,4.12-3.16,6.25-5.29,6.54l-2.43,0.37
		c-0.37,0-0.59-0.15-0.51-0.37c1.99-1.1,3.9-2.35,5.52-3.9c-0.59-0.51-1.25-0.88-1.91-0.88h-0.51l-2.06,0.22l-0.15-0.22v-0.29
		C230.13,54.36,230.87,53.11,231.38,53.11L231.38,53.11z"/>
	<path class="st0" d="M200.28,74.29h0.88h0.37h0.88c3.38,0.07,5.44-0.59,6.18-1.91c0-1.03-1.1-4.04-3.53-8.82l-0.37-1.54
		c-0.44-2.06-0.37-3.97,0.07-5.74c0.44-1.69,1.25-2.87,2.57-3.53c2.87-2.13,8.53-5.59,16.91-10.37l0.15,0.15v0.37
		c-1.76,3.09-3.16,5.81-4.12,8.31h-0.29l-0.22-1.03v-0.96l0.22-0.15v-0.22h-0.22c-6.91,4.27-11.62,7.35-13.97,9.19v0.15
		c2.57,5.59,4.04,9.85,4.34,12.8c0,2.06-0.74,4.27-2.06,6.62c-1.32,1.91-3.9,2.79-7.79,2.79l0,0V74.29z"/>
	<path class="st0" d="M208.37,41.13c0,0.96,0.81,1.69,2.5,1.84h0.29c0.59,0,1.03-0.15,1.18-0.66c0-1.03-0.74-1.84-2.13-2.43
		C209.62,39.88,208.96,40.24,208.37,41.13L208.37,41.13z M211.16,36.86c1.99,0,2.87,1.25,2.87,3.68c0,3.9-3.16,7.28-9.56,10.07
		c-0.96,0.29-0.96-0.07-0.29-1.1c0.15-0.37,1.62-1.47,4.49-3.53v-0.15c-1.25-0.59-1.91-1.62-1.91-3.38c0.88-3.68,2.21-5.59,3.9-5.59
		H211.16z"/>
	<path class="st0" d="M183.15,74.29h1.25c2.43,0.15,4.19-0.74,5.37-2.5l0.15-0.66l-0.51-2.87c0.15-3.16,0.37-4.71,0.96-4.71
		c1.47,5.59,2.87,8.68,4.27,9.56c1.1,0.74,2.72,1.1,4.78,1.18c0.59,0,1.1,0,1.62,0v6.1c-0.66,0-1.25,0-1.99,0h-0.15
		c-3.53,0-6.25-2.13-8.16-6.25v-0.22l-1.76,3.53c-1.18,1.91-3.09,2.94-5.52,2.94h-0.29V74.29z M188,54.07
		c2.87,1.25,4.27,2.28,4.27,3.16l-2.35,3.9h-0.22c-0.59,0-1.99-0.81-4.27-2.35C186.53,55.61,187.41,54.07,188,54.07L188,54.07z"/>
	<path class="st0" d="M188.44,41.64h1.84c2.21,0,3.31,0.88,3.31,2.65c-1.4,4.04-3.16,6.25-5.22,6.47l-2.43,0.37
		c-0.37,0-0.59-0.07-0.51-0.37c1.99-1.1,3.82-2.35,5.52-3.82c-0.66-0.59-1.25-0.96-1.99-0.96h-0.51l-2.06,0.22l-0.07-0.22v-0.29
		C187.19,42.97,188,41.64,188.44,41.64L188.44,41.64z"/>
	<path class="st0" d="M167.34,74.29c1.47,0,2.21,0,2.5-0.07c2.79-0.51,4.71-2.28,5.74-5.22c0.15-0.51,0.51-0.51,0.96-0.22
		c0.22,0.37,0.37,1.25,0.51,2.79c1.76,2.13,3.82,3.01,6.32,2.72h0.51v6.1h-0.15c-3.9-0.22-6.84-2.13-8.68-5.66h-0.22
		c-1.32,2.87-3.09,4.63-5.22,5.44c-0.66,0.15-1.32,0.22-2.28,0.22V74.29z M177.34,57.67c3.09,1.32,4.71,2.43,4.71,3.31
		c-0.22,0.51-1.03,1.99-2.65,4.12c-2.06-0.88-3.53-1.84-4.49-2.94C175.64,59.95,176.45,58.41,177.34,57.67L177.34,57.67z
		 M170.64,58.63c0.81,0,2.21,1.03,4.12,2.87c0,0.74-0.74,2.13-2.28,4.41h-0.29c-0.81,0-1.99-0.81-3.6-2.35v-0.29
		C168.59,62.53,169.32,60.98,170.64,58.63L170.64,58.63z"/>
	<path class="st0" d="M174.1,46.72c0,1.03,0.81,1.69,2.5,1.91h0.29c0.59,0,0.96-0.22,1.18-0.66c0-1.03-0.74-1.91-2.13-2.5
		C175.28,45.47,174.69,45.91,174.1,46.72L174.1,46.72z M176.89,42.45c1.91,0,2.87,1.25,2.87,3.75c0,3.9-3.16,7.28-9.56,10.07
		c-0.96,0.22-0.96-0.07-0.29-1.1c0.15-0.37,1.62-1.54,4.49-3.6V51.5c-1.25-0.59-1.91-1.62-1.91-3.38c0.88-3.75,2.21-5.66,3.9-5.66
		H176.89z"/>
	<path class="st0" d="M167.7,80.4c-0.22,0-0.44,0-0.66,0h-0.22c-1.76,0-3.53-0.37-5.15-1.03c-1.84,3.31-4.19,4.93-7.13,4.93
		c-3.38-0.51-5.22-1.99-5.22-4.49h-0.15c-0.59,2.06-1.84,3.82-3.9,5.07c-2.72,1.03-4.78,1.62-6.4,1.62l-0.81,0.07V86.2
		c0.81-0.66,2.57-2.06,5.59-4.27c3.09-2.13,4.85-3.53,5.29-4.12c0.29-0.51,0.96-2.35,1.69-5.44c1.47-2.65,2.87-3.9,4.12-3.9h0.37
		c1.54,0,4.04,1.76,7.43,5.22c0.96,0.51,2.72,0.81,5.15,0.66V80.4z M151.6,75.1c0,1.69,1.25,2.87,3.9,3.53h1.03
		c1.99-0.29,3.09-0.59,3.09-1.03c-2.43-2.43-4.27-3.68-5.52-3.68h-0.29C152.7,73.92,152.04,74.29,151.6,75.1L151.6,75.1z"/>
	<path class="st0" d="M153.73,53.92h1.84c2.21,0,3.31,0.81,3.31,2.57c-1.47,4.12-3.16,6.25-5.22,6.54l-2.43,0.37
		c-0.44,0-0.59-0.15-0.59-0.37c2.06-1.1,3.9-2.35,5.59-3.9c-0.66-0.51-1.25-0.88-1.99-0.88h-0.51l-2.06,0.22l-0.07-0.22v-0.29
		C152.48,55.17,153.22,53.92,153.73,53.92L153.73,53.92z"/>
	<path class="st0" d="M136.52,50.98l1.47,4.71c0.81,0.74,1.18,1.32,1.18,1.76l-1.32,5.81l0.15,3.16c0,7.72-2.57,13.09-7.79,15.96
		c-4.27,1.4-7.21,2.13-8.9,2.13l-0.22-0.22v-0.37l3.9-1.99c1.54-0.81,3.68-1.99,6.32-3.68c2.87-2.87,4.49-4.78,4.93-5.88l-0.51-8.24
		l-0.44-8.24C135.71,52.6,136.23,50.98,136.52,50.98L136.52,50.98z M116.45,51.2c1.4,0.07,5.59,3.31,12.5,9.78
		c2.43,3.38,3.68,6.25,3.68,8.6c-0.15,3.53-0.29,5.81-0.59,6.69c-0.51,0.29-0.81,0.22-0.74-0.37l0.22-1.4v-0.96
		c0-3.82-2.94-7.94-8.75-12.43c-0.22,1.99-0.51,3.01-0.74,3.16c-1.03-1.99-2.94-4.41-5.59-7.21v-0.22l-0.37-5.29L116.45,51.2z"/>
	<path class="st0" d="M143.73,40.69c0.15-0.07,0.22,0.07,0.15,0.59c-1.03,2.57-2.72,4.41-4.85,5.37l-8.02,4.27
		c-0.37,0-0.44-0.37-0.15-0.81c1.03-2.21,1.76-3.46,2.13-3.97L143.73,40.69z"/>
</g>
<g>
	<path class="st1" d="M97.05,184.46H31.58c-10.97,0-19.86-8.89-19.86-19.86v0c0-10.97,8.89-19.86,19.86-19.86h65.47
		c10.97,0,19.86,8.89,19.86,19.86v0C116.91,175.57,108.02,184.46,97.05,184.46z"/>
	<g>
		<g>
			<path class="st2" d="M35.73,165.27c0-5.35,4.35-9.7,9.7-9.7s9.7,4.35,9.7,9.7c0,5.35-4.35,9.7-9.7,9.7S35.73,170.62,35.73,165.27
				L35.73,165.27z"/>
			<path class="st3" d="M43.78,165.7l1.43-1.57c0.43-0.43,1.04-1.13,1.83-2.04c0.04,0,0.04,0,0.09,0.04l-0.22,1
				c-0.13,0.13-0.57,0.65-1.39,1.52l-1.43,1.65c-0.22,0.22-0.35,0.39-0.48,0.57h0.04c1.52,0,2.96-0.04,4.3-0.17l0.43-0.04
				c0.04,0.04,0.04,0.13,0,0.26c-0.13,0.43-0.26,0.83-0.39,1.13c-0.04,0.13-0.09,0.13-0.17,0.13c-1.52,0.17-3.09,0.26-4.65,0.22
				c-0.26,0-0.52-0.09-0.74-0.22c0-0.04,0-0.09,0-0.13c0-0.26,0.13-0.61,0.43-1.13C43.17,166.48,43.43,166.09,43.78,165.7
				L43.78,165.7z"/>
		</g>
		<g>
			<path class="st3" d="M91.11,160.6c0.1,0,0.2,0.37,0.34,1.12l0.47,1.12l-0.24,1.32l0.17,3.15v0.54c-0.03,1.29-0.24,2.03-0.54,2.24
				l-0.03-0.03l0.03-0.88c0-0.75-0.2-3.19-0.68-7.29C90.87,161.01,91.04,160.6,91.11,160.6L91.11,160.6z"/>
			<path class="st3" d="M92.84,156.26c0.03-0.03,0.07,0,0.03,0.14c-0.31,0.78-0.78,1.29-1.39,1.59l-2.31,1.22
				c-0.14,0-0.14-0.1-0.07-0.24c0.31-0.64,0.51-1.02,0.61-1.15L92.84,156.26z"/>
			<path class="st3" d="M88.8,161.62l0.44,1.36c0.2,0.2,0.31,0.37,0.31,0.51l-0.37,1.7l0.07,0.88c0,2.24-0.78,3.8-2.27,4.61
				c-1.25,0.41-2.1,0.64-2.58,0.64l-0.07-0.07v-0.14l1.15-0.54c0.44-0.24,1.05-0.58,1.8-1.09c0.85-0.81,1.29-1.39,1.42-1.7
				l-0.14-2.37l-0.14-2.37C88.57,162.06,88.7,161.62,88.8,161.62L88.8,161.62z M82.97,161.66c0.44,0.03,1.63,0.98,3.63,2.85
				c0.71,0.98,1.09,1.8,1.09,2.48c-0.07,1.02-0.1,1.7-0.17,1.93c-0.17,0.1-0.24,0.07-0.24-0.1l0.07-0.41v-0.27
				c0-1.09-0.85-2.27-2.54-3.6c-0.07,0.58-0.14,0.88-0.2,0.92c-0.31-0.58-0.85-1.29-1.63-2.1v-0.03l-0.1-1.53L82.97,161.66z"/>
			<path class="st3" d="M87.11,159.04h0.54c0.64,0,0.95,0.24,0.95,0.75c-0.41,1.19-0.92,1.83-1.49,1.9l-0.71,0.1
				c-0.1,0-0.17-0.03-0.17-0.1c0.58-0.34,1.12-0.68,1.59-1.12c-0.17-0.17-0.34-0.27-0.54-0.27h-0.17l-0.58,0.07l-0.03-0.07v-0.07
				C86.77,159.42,86.97,159.04,87.11,159.04L87.11,159.04z"/>
			<path class="st3" d="M85.38,157.72c0.03,0,0.07,0.03,0.03,0.17c-0.31,0.75-0.78,1.29-1.39,1.56l-2.34,1.25
				c-0.1-0.03-0.1-0.14-0.03-0.27c0.31-0.61,0.51-0.98,0.61-1.12L85.38,157.72z"/>
			<path class="st3" d="M77.78,168.37c1.39,0.1,2.2-0.14,2.37-0.71c0-0.2-0.17-0.68-0.54-1.49l0.17-1.46h0.1
				c0.47,0.85,0.71,1.7,0.71,2.54v0.51c0,0.34-0.1,0.71-0.24,1.09c-0.17,0.37-0.41,0.71-0.75,0.95c-0.31,0.27-0.92,0.34-1.83,0.31
				V168.37z M79.31,161.96c0.54,0.17,0.95,0.41,1.22,0.68v0.1c0,0.2-0.17,0.61-0.58,1.25c-0.37,0-0.78-0.2-1.22-0.61v-0.14
				C78.73,162.84,78.9,162.44,79.31,161.96L79.31,161.96z"/>
			<path class="st3" d="M79.14,158.4h0.51c0.68,0,0.98,0.24,0.98,0.75c-0.41,1.19-0.92,1.8-1.53,1.87l-0.71,0.1
				c-0.1,0-0.14,0-0.14-0.1c0.58-0.31,1.12-0.68,1.59-1.12c-0.17-0.14-0.34-0.24-0.58-0.24h-0.14l-0.61,0.03v-0.03v-0.1
				C78.76,158.77,79,158.4,79.14,158.4L79.14,158.4z"/>
			<path class="st3" d="M76.87,159.31c0.34,0,0.58,0.27,0.68,0.75c0,0.41-0.27,0.61-0.78,0.61c-0.37,0-0.58,0.07-0.58,0.17v0.07
				c0.14,0.44,0.24,1.36,0.37,2.68c-0.07,0.24-0.14,0.37-0.24,0.37l-0.47-2.78l-0.03-0.31c0-0.37,0.14-0.61,0.37-0.71l0.2-0.07
				C76.39,159.62,76.56,159.35,76.87,159.31L76.87,159.31z M76.76,159.93c-0.07,0.07-0.07,0.1-0.07,0.14c0.14,0,0.27,0,0.37-0.03
				C77.07,159.89,76.97,159.86,76.76,159.93L76.76,159.93z"/>
			<path class="st3" d="M73.2,168.37c0.37,0,0.61,0,0.71-0.03c0.81-0.17,1.36-0.64,1.66-1.53c0.03-0.14,0.14-0.14,0.27-0.03
				c0.07,0.07,0.1,0.34,0.14,0.78c0.51,0.61,1.12,0.88,1.83,0.81h0.14v1.73l0,0c-1.15-0.03-2-0.61-2.54-1.63h-0.07
				c-0.37,0.85-0.85,1.36-1.49,1.56c-0.2,0.07-0.41,0.07-0.64,0.07V168.37z M75.17,170.74c0.17,0,0.61,0.2,1.29,0.68
				c0,0.27-0.2,0.71-0.64,1.36c-0.85-0.27-1.29-0.54-1.29-0.78C74.56,171.76,74.76,171.35,75.17,170.74L75.17,170.74z"/>
			<path class="st3" d="M77.92,172.41c0.07-0.03,0.07,0,0.07,0.17c-0.31,0.75-0.81,1.25-1.42,1.56l-2.31,1.22
				c-0.1-0.03-0.14-0.14-0.07-0.24c0.31-0.64,0.51-1.02,0.61-1.15L77.92,172.41z"/>
			<path class="st3" d="M68.56,168.37c0.41,0,0.64,0,0.71-0.03c0.81-0.17,1.39-0.64,1.66-1.53c0.07-0.14,0.14-0.14,0.31-0.03
				c0.03,0.07,0.1,0.34,0.14,0.78c0.51,0.61,1.12,0.88,1.83,0.81h0.14v1.73H73.3c-1.12-0.03-1.97-0.61-2.54-1.63h-0.03
				c-0.37,0.85-0.88,1.36-1.53,1.56c-0.17,0.07-0.41,0.07-0.64,0.07V168.37z M71.47,170.85c0.88,0.41,1.32,0.75,1.32,0.95
				c-0.07,0.2-0.31,0.61-0.75,1.22c-0.58-0.27-1.02-0.54-1.29-0.88C70.93,171.52,71.17,171.08,71.47,170.85L71.47,170.85z
				 M69.51,171.12c0.24,0,0.64,0.31,1.19,0.88c0,0.17-0.2,0.58-0.64,1.22h-0.1c-0.2,0-0.54-0.2-1.02-0.68v-0.03
				C68.93,172.27,69.1,171.8,69.51,171.12L69.51,171.12z"/>
			<path class="st3" d="M72.83,161.76c0.03-0.03,0.07,0.03,0.03,0.17c-0.31,0.75-0.78,1.29-1.42,1.56l-2.31,1.25
				c-0.1-0.03-0.14-0.14-0.07-0.27c0.31-0.64,0.54-0.98,0.64-1.12L72.83,161.76z"/>
			<path class="st3" d="M69.91,155.18l0.03,0.07c0,0.75-0.58,1.56-1.7,2.37c-0.68,0.31-1.36,0.44-2.03,0.44l-0.51-0.03
				c-0.2,0.71-0.31,1.09-0.37,1.09c-0.07,0-0.2-0.34-0.34-0.92c-0.24-0.37-0.68-0.81-1.22-1.39v-0.1c0.1-0.75,0.27-1.12,0.41-1.12
				c0.71,0.78,1.56,1.19,2.58,1.19C67.95,156.77,69,156.23,69.91,155.18L69.91,155.18z M68.79,170.1c-1.05,0.1-1.8-0.41-2.27-1.53
				c-0.24-0.37-0.47-3.09-0.64-8.11v-0.1c0.1-0.85,0.34-1.25,0.58-1.25l0.27-0.07c0.34,0,0.81,0.1,1.53,0.37v0.1
				c-0.07,0.1-0.17,0.17-0.34,0.17H67c-0.2,0-0.37,0.1-0.54,0.34c0.17,4.24,0.41,6.72,0.75,7.39c0.31,0.71,0.81,1.02,1.59,0.95
				V170.1z"/>
			<path class="st3" d="M62.28,165.79c0.64,0,1.29,0.34,1.93,1.02c0.07,0.1,0.03,0.2-0.1,0.27c-0.07,0.07-0.2,0.03-0.31-0.03
				c-0.27-0.27-0.68-0.41-1.19-0.41h-0.2c-0.2,0-0.47,0.1-0.75,0.27c0,0.54,0.64,0.88,1.9,1.02l1.25-0.51v0.17
				c0,0.64-0.71,1.19-2.14,1.66l-2,1.15l-0.2,0.1c-0.07,0-0.14-0.03-0.17-0.14c0-0.31,0.47-0.78,1.36-1.36v-0.07
				c-0.44-0.24-0.64-0.58-0.64-1.05C61.23,166.47,61.64,165.79,62.28,165.79L62.28,165.79z"/>
		</g>
	</g>
</g>
<text transform="matrix(1 0 0 1 15.1924 128.7246)"><tspan x="0" y="0" class="st4 st5 st6">Ask those who have knowledge of the Message,</tspan><tspan x="285.16" y="35.8" class="st4 st5 st6"> if you do not know</tspan></text>
</svg>
