<svg xmlns="http://www.w3.org/2000/svg" viewBox="0 0 89.53 89.53"><defs><style>.cls-1{fill:#0f2836;stroke:#fff;stroke-miterlimit:10;stroke-width:2px;}.cls-2{fill:#fff;}</style></defs><title>Asset 8</title><g id="Layer_2" data-name="Layer 2"><g id="Layer_1-2" data-name="Layer 1"><path class="cls-1" d="M23.16,1H66.38A22.16,22.16,0,0,1,88.53,23.16V66.38A22.15,22.15,0,0,1,66.38,88.53H23.16A22.16,22.16,0,0,1,1,66.38V23.16A22.16,22.16,0,0,1,23.16,1Z"/><path class="cls-2" d="M58.19,28.56a3,3,0,1,0,3,3A3,3,0,0,0,58.19,28.56Z"/><path class="cls-2" d="M45,32.37A12.49,12.49,0,1,0,57.46,44.85,12.5,12.5,0,0,0,45,32.37Zm0,20.48a8,8,0,1,1,8-8A8,8,0,0,1,45,52.85Z"/><path class="cls-2" d="M54.88,70.2H34.65A15.24,15.24,0,0,1,19.42,55V34.73A15.24,15.24,0,0,1,34.65,19.51H54.88A15.24,15.24,0,0,1,70.11,34.73V55A15.24,15.24,0,0,1,54.88,70.2ZM34.65,24.28A10.47,10.47,0,0,0,24.19,34.73V55A10.47,10.47,0,0,0,34.65,65.43H54.88A10.47,10.47,0,0,0,65.34,55V34.73A10.47,10.47,0,0,0,54.88,24.28Z"/></g></g></svg>