<svg xmlns="http://www.w3.org/2000/svg" viewBox="0 0 825.4 172.8"><defs><style>.cls-1,.cls-2{fill:#f2f2f2;}.cls-2{font-size:29.84px;font-family:Arial-BoldMT, Arial;font-weight:700;}</style></defs><title>Asset 10</title><g id="Layer_2" data-name="Layer 2"><g id="Layer_1-2" data-name="Layer 1"><path class="cls-1" d="M77.4,43.14c-.18-1.34-.25-2.7-.47-4a33.19,33.19,0,0,0-2.14-7.36A25.81,25.81,0,0,0,72,27a18.46,18.46,0,0,0-3.75-3.89,12.16,12.16,0,0,0-4.83-2.2,14.15,14.15,0,0,0-3-.59,15.65,15.65,0,0,0-6.83,1.54,6.41,6.41,0,0,0-1.16.68,20.21,20.21,0,0,0-6.86,9.17,33.61,33.61,0,0,0-1.42,4.43,18.56,18.56,0,0,0-.8,4.56,1.41,1.41,0,0,1-.07.45A10.06,10.06,0,0,0,43,44.24q0,23.5,0,47c0,.49,0,1,.06,1.52A4.17,4.17,0,0,0,44,93c1.76,0,3.52,0,5.29,0a4.47,4.47,0,0,0,1-.29c0-.62,0-1.17,0-1.72q0-16.77,0-33.54c0-.91-.08-1.82-.08-2.72,0-2.62.08-5.23.08-7.85a37.71,37.71,0,0,1,.34-5.72,19.37,19.37,0,0,1,2.6-7.35c1.1-1.79,2.52-3.28,4.78-3.57a2.17,2.17,0,0,0,.42-.17,6.92,6.92,0,0,1,3.44-.13,6.27,6.27,0,0,1,2.12.68,10.32,10.32,0,0,1,4.27,4.75,22.7,22.7,0,0,1,1.87,7.55c.2,2.1.11,4.22.13,6.34a6.3,6.3,0,0,1-.13.9c-.31,0-.55.06-.8.06H53.82c-.36,0-.71,0-1.06,0-.57,0-.8.28-.86.85a6.37,6.37,0,0,0,0,.76q0,3.46,0,6.95a6.21,6.21,0,0,0,0,.75,1,1,0,0,0,.84.93,10.24,10.24,0,0,0,1.36.07l15,0c.38,0,.81-.14,1.22.31.08,1.41,0,2.92,0,4.42s0,3.13,0,4.69v13.6c0,1.57,0,3.13,0,4.69a41.52,41.52,0,0,0,.09,4.58,6,6,0,0,0,1,.2,47.63,47.63,0,0,0,6.17-.15V90.13q0-20.4,0-40.81a47.28,47.28,0,0,0-.2-6.18"/><path class="cls-1" d="M38.81,48.48c-.26-1.28-.62-2.54-.77-3.83a17.37,17.37,0,0,0-1.2-4.17,32.61,32.61,0,0,0-3.64-7.25,40.75,40.75,0,0,0-4.38-5.56,18.28,18.28,0,0,0-6.11-4.29c-1.4-.58-2.71-1.32-4.28-1.26a1,1,0,0,1-.44-.07,6.63,6.63,0,0,0-2.82-.37L2,21.64a2.11,2.11,0,0,0-.63.24c0,.7,0,1.4,0,2.1V84.13q0,3.78,0,7.56a9.88,9.88,0,0,0,.11,1.12A40.64,40.64,0,0,0,8.19,93,4.45,4.45,0,0,0,9,92.74C9,90.84,9,89,9,87.12s0-3.73,0-5.59,0-3.63,0-5.44V42.69C9,40.82,9,39,9,37.1s-.09-3.71.07-5.54a2.22,2.22,0,0,1,.5-.18l5,.22a14.26,14.26,0,0,0,2,.11c1.31-.1,2.43.58,3.68.72a14.55,14.55,0,0,1,5.22,4,35.53,35.53,0,0,1,2,3,27,27,0,0,1,2.51,5.79,33.58,33.58,0,0,1,1,4.25,35,35,0,0,1,.52,5.85,45.09,45.09,0,0,1-1.25,11.51c-.4,1.46-.77,2.92-1.29,4.34a28.29,28.29,0,0,1-4.24,7.61A10.28,10.28,0,0,1,15,82.94a28.29,28.29,0,0,0-3.32,0c-.61,0-.81.26-.86.84,0,.2,0,.4,0,.6,0,2.47,0,4.94,0,7.41a9.26,9.26,0,0,0,.1,1,2,2,0,0,0,1.37.29c1.06,0,2.12-.06,3.17,0a21.08,21.08,0,0,0,5.19-.77,6.15,6.15,0,0,0,1.84-.62,18.63,18.63,0,0,0,6.17-4.72c.68-.87,1.4-1.71,2.06-2.6a35.45,35.45,0,0,0,4.09-7A58.07,58.07,0,0,0,37.46,70a47,47,0,0,0,1.08-5.43,28.32,28.32,0,0,0,.39-3.89,4,4,0,0,1,.17-.73,6.74,6.74,0,0,0,.15-.88,94.84,94.84,0,0,0-.4-10.25,1.45,1.45,0,0,0,0-.29"/><path class="cls-1" d="M318.35,43c-.37-1.56-.55-3.15-.84-4.73-.07-.39-.2-.78-.28-1.17a20.29,20.29,0,0,0-.51-2.34,29.07,29.07,0,0,0-3.17-6.63c-2-3-4.33-5.53-7.78-6.82a15,15,0,0,0-4.38-1,18.14,18.14,0,0,0-4.16.58,10.29,10.29,0,0,0-4,1.67A18.45,18.45,0,0,0,287,30.11a26.08,26.08,0,0,0-1.92,5.51c-.15.69-.28,1.38-.49,2a21.79,21.79,0,0,0-.71,4.31c-.14,1.55-.12,3.12-.12,4.68v42c0,1,0,2,0,3a9,9,0,0,0,.18,1.14,11.16,11.16,0,0,0,3.39.16,9.75,9.75,0,0,0,3.44-.2,6.85,6.85,0,0,0,.16-.92c0-1,0-2,0-3q0-11.42,0-22.83c0-.85-.08-1.71-.08-2.56,0-2,.08-3.92.08-5.88,0-3.88-.06-7.76,0-11.63a23.94,23.94,0,0,1,2.76-11.62,10.42,10.42,0,0,1,3.42-3.68c.57-.38,1.19-.2,1.72-.47a6,6,0,0,1,3.56-.29,6.7,6.7,0,0,1,2.4.75A10,10,0,0,1,309,35.16a24.15,24.15,0,0,1,2.09,8.9c.16,1.75.06,3.52.07,5.29a4.62,4.62,0,0,1-.16.86H297.59c-1.5,0-3-.07-4.4,0a1.92,1.92,0,0,0-.5,1.66c0,2.32,0,4.63,0,6.95,0,.2,0,.41,0,.61.07.7.34,1,1.05,1,.4,0,.8,0,1.21,0h6l9.22,0a5.4,5.4,0,0,1,.82.13,5.35,5.35,0,0,1,.07.54q0,15.18,0,30.38c0,.39.08.78.13,1.26a7.35,7.35,0,0,0,1.22.18,39.07,39.07,0,0,0,5.88-.17c0-.64.05-1.14.05-1.64V44a4.59,4.59,0,0,0,0-1.05"/><path class="cls-1" d="M115.9,68.22a41.69,41.69,0,0,0-1.32-5.4A12.12,12.12,0,0,0,111,57.2c-.28-.22-.57-.42-1-.74a12.5,12.5,0,0,0,4.11-6.24c.28-.86.42-1.76.64-2.64a27.22,27.22,0,0,0,.75-6.42,30.37,30.37,0,0,0-.26-4.36,20.18,20.18,0,0,0-.93-3.94,2.46,2.46,0,0,0-.07-.29,21.46,21.46,0,0,0-1.37-3.18,30.19,30.19,0,0,0-3.65-5A9.67,9.67,0,0,0,105,21.54c-.64-.55-1.52-.48-2.22-.85a3.94,3.94,0,0,0-1.74-.39,8.43,8.43,0,0,0-2.69.25,18.92,18.92,0,0,0-3.74,1.05,17.16,17.16,0,0,0-2.88,1.59,19.67,19.67,0,0,0-5.89,7.71,40.71,40.71,0,0,0-1.76,5.59c-.23.92-.32,1.87-.46,2.81s-.27,1.78-.39,2.68c0,.45-.11.9-.12,1.35,0,2.37-.05,4.73-.05,7.1q0,20.7,0,41.41c0,.29,0,.59.07.91a1.67,1.67,0,0,0,.58.22c1.86,0,3.72,0,5.59,0a3.57,3.57,0,0,0,.84-.21,4.09,4.09,0,0,0,.19-2c0-15.41,0-30.82,0-46.24a26.07,26.07,0,0,1,.6-5.52A14.56,14.56,0,0,1,94,32.92a6.67,6.67,0,0,1,5-2.34,15.52,15.52,0,0,1,3.27.46,1.94,1.94,0,0,1,.57.2,9,9,0,0,1,5.28,8.13,20.66,20.66,0,0,1-.27,5.26,12.4,12.4,0,0,1-1.11,3.56,11.78,11.78,0,0,1-4.37,4.27,1.51,1.51,0,0,1-.56.16,14.43,14.43,0,0,0-1.76.36c-.72.26-1.23-.39-1.89-.31-.1,0-.2,0-.3,0l-4.38,0a3.56,3.56,0,0,0-.66.12,2.06,2.06,0,0,0-.41,1.64c0,2,0,3.93,0,5.89a6,6,0,0,0,.11,1.2.8.8,0,0,0,.88.67,18.37,18.37,0,0,1,3.15.11c1,0,1.92,0,2.87,0a11.48,11.48,0,0,1,4.51,1,7.81,7.81,0,0,1,3.19,2.65,10,10,0,0,1,1.55,5.42V91.6c0,.39,0,.79.06,1.18a2.47,2.47,0,0,0,.64.21c1.87,0,3.73,0,5.59,0,.69,0,.9-.25,1-.91,0-.25,0-.5,0-.76q0-11,0-22.06a5.25,5.25,0,0,0,0-1"/><path class="cls-1" d="M156.06,24a12.59,12.59,0,0,0-.1-1.5.85.85,0,0,0-.81-.76,4.78,4.78,0,0,0-.76,0c-1.56,0-3.12,0-4.68,0a12.62,12.62,0,0,0-1.35.16,11.83,11.83,0,0,0-.22,1.46c0,1.36-.06,2.71-.06,4.07,0,11.59,0,23.17,0,34.76,0,3.57.14,7.14-.12,10.71a18.82,18.82,0,0,1-.75,4,20.61,20.61,0,0,1-1.1,3,8.77,8.77,0,0,1-3.33,4,11.86,11.86,0,0,1-2,.6c-1.69.7-3.24.09-4.8-.47a6.5,6.5,0,0,1-2.28-1.69,9.42,9.42,0,0,1-2.29-3.5,19.94,19.94,0,0,1-1.34-6c-.09-1.65-.41-3.28-.41-5q0-22.2,0-44.42c0-.2,0-.4,0-.6-.05-.79-.23-1-1-1-.5,0-1,0-1.51,0-1.31,0-2.62,0-3.93,0-1,0-1.23.3-1.31,1.27,0,.35,0,.7,0,1.06q0,23.12,0,46.23a36.1,36.1,0,0,0,1.17,9,21.65,21.65,0,0,0,6.29,10.62,11.38,11.38,0,0,0,3,2.27c1.05.47,2.07,1,3.11,1.5a1.81,1.81,0,0,0,.73.12c1.92,0,3.83,0,5.74,0a1.45,1.45,0,0,0,.86-.2,4.43,4.43,0,0,1,1.36-.59,12.51,12.51,0,0,0,3-1.45,19.51,19.51,0,0,0,6.1-7.36,20.38,20.38,0,0,0,1.64-4.81,24.61,24.61,0,0,0,.8-5.17,4.07,4.07,0,0,1,.11-1,15,15,0,0,0,.31-3.6V35.17q0-5.58,0-11.18"/><path class="cls-1" d="M247.22,54.17a3,3,0,0,0,0-.6,1,1,0,0,0-1-.89c-.6,0-1.2,0-1.81,0H229.85c0-.39,0-.59,0-.78,0-1.41.07-2.81.08-4.22,0-1.71-.05-3.42,0-5.13a22.81,22.81,0,0,1,.85-5,7.94,7.94,0,0,1,4.61-5.08,13.79,13.79,0,0,1,5.7-1.17c1.56,0,3.12,0,4.68,0,1.1,0,1.41-.4,1.41-1.5l0-6.05c0-.2,0-.4,0-.6-.07-1-.49-1.36-1.45-1.33-.45,0-.9.06-1.35.07a7.26,7.26,0,0,0-2.54.25,2.66,2.66,0,0,1-.75.05c-1,0-2,.08-3,0a11,11,0,0,0-4.24.93,18.39,18.39,0,0,0-4.45,2.45,12,12,0,0,0-4.2,5,24.46,24.46,0,0,0-2,8,3,3,0,0,1-.1.74,8,8,0,0,0-.32,2.83c0,1.56,0,3.12,0,4.68q0,14.51,0,29,0,7.71,0,15.41a3.41,3.41,0,0,0,.19,1.59c.14.06.23.14.32.14,2,0,3.92.06,5.88,0,.48,0,.69-.27.72-.8.06-1.06.12-2.11.11-3.17-.06-8.71.17-17.42-.13-26.13a3.12,3.12,0,0,1,.13-.69,3.56,3.56,0,0,1,1.69-.17h13.6c.4,0,.8,0,1.2,0,.6,0,.77-.24.8-.87V54.17"/><path class="cls-1" d="M280.61,21.7c-.25,0-.5,0-.75,0H251a3.64,3.64,0,0,0-1.05.09.79.79,0,0,0-.48.5,7.39,7.39,0,0,0-.16,1.49c0,1.46,0,2.92,0,4.38,0,.5,0,1,0,1.51a2.75,2.75,0,0,0,.38,1.57c1.88,0,3.83,0,5.78,0s3.9-.08,6,.06c0,.62.06,1.17.07,1.71V91.16a3.29,3.29,0,0,0,.15,1.62,2.46,2.46,0,0,0,1.48.24c1.51,0,3,0,4.53,0,.31,0,.61,0,.91,0a.76.76,0,0,0,.79-.76c.06-.6.08-1.2.08-1.81V36.18c0-.55,0-1.11,0-1.66s0-1,0-1.51,0-1.08,0-1.72c.59,0,1.08-.07,1.58-.07h9.21c.39,0,.82.11,1.15-.28a2.34,2.34,0,0,0,.11-.4c0-2.62,0-5.24,0-7.86,0-.69-.25-.9-.9-1"/><path class="cls-1" d="M186.29,83.71c-1.67,0-3.27,0-4.87,0-1.06,0-2.11.07-3.17.07a6.75,6.75,0,0,1-4.78-2.22,8.09,8.09,0,0,1-1.84-3.73,33.76,33.76,0,0,1-1.26-9.69q0-21.53,0-43.05c0-.51,0-1,0-1.51s-.16-1.08-.24-1.66a10.54,10.54,0,0,0-1.09-.24,24.55,24.55,0,0,0-5.61.21,3.3,3.3,0,0,0-.19,1.74q0,25.61,0,51.2c0,1.69.6,3.27.62,4.93a19.65,19.65,0,0,0,3.06,6.79,17.59,17.59,0,0,0,5.19,4.94A10.36,10.36,0,0,0,176.9,93c2.77,0,5.54,0,8.31,0a1.47,1.47,0,0,0,1.23-.42c.13-2.65.06-5.42,0-8.18a3.22,3.22,0,0,0-.18-.71"/><path class="cls-1" d="M216.43,22.61a3.29,3.29,0,0,0-.16-.67,23.86,23.86,0,0,0-5.92-.24,3.91,3.91,0,0,0-.76.21,4.12,4.12,0,0,0-.39,2.45V91.72a1.41,1.41,0,0,0,.5,1.18,25.44,25.44,0,0,0,6.66-.14,3.66,3.66,0,0,0,.15-.69c0-1.41,0-2.82,0-4.22V26.22c0-1.2-.05-2.41-.1-3.61"/><path class="cls-1" d="M404.81,99.64h0"/><path class="cls-1" d="M405.36,99.52a.54.54,0,0,1-.19.07.54.54,0,0,0,.19-.07"/><path class="cls-1" d="M370.29,84.42s0,0-.05,0h0l.05,0"/><path class="cls-1" d="M431.6,95.5c0,.07.1.12.16.19s-.11-.12-.16-.19"/><polygon class="cls-1" points="370.24 84.45 370.25 84.41 370.24 84.45 370.24 84.45"/><path class="cls-1" d="M431.76,95.69c0-.09,0-.17-.05-.25,0,.08,0,.16.05.25"/><path class="cls-1" d="M432.76,96.83c-.23-.4-.42-.86-.95-1h0c.53.18.72.64.95,1"/><polygon class="cls-1" points="407.04 75.8 407.01 75.84 407.04 75.8 407.04 75.8"/><path class="cls-1" d="M427.1,77.11a.66.66,0,0,1,.15,0,.66.66,0,0,0-.15,0"/><path class="cls-1" d="M370.26,84.61s0,.1,0,.11,0-.06,0-.11"/><path class="cls-1" d="M436.31,103.83c-.06-.07-.23-.06-.35-.09h0c.13,0,.29,0,.35.08"/><path class="cls-1" d="M453.63,65.66c-.35,0-.69.07-1.12.11-.17.69-.3,1.22-.42,1.76a39.28,39.28,0,0,1-11.76,20.18,2.41,2.41,0,0,1-1.77.69c-1,0-1.92,0-2.87-.09a2.32,2.32,0,0,0-1.7.43c-.16.12-.34.21-.51.32a39.38,39.38,0,0,1-19.67,5.57,41.39,41.39,0,0,1-10.63-1.14A38.8,38.8,0,0,1,392,88.76a3.12,3.12,0,0,0-2.13-.51c-.75.08-1.51.08-2.26.15a2.56,2.56,0,0,1-2.15-.83,39.31,39.31,0,0,1-11.67-20.24,5,5,0,0,0-.46-1.54c-1.44-.19-17.27-.17-18.49,0v.67a3.54,3.54,0,0,0,1.69.17h14.36a3,3,0,0,1,1.6.16c.47,1.62.86,3.24,1.4,4.8a39.63,39.63,0,0,0,1.82,4.48,42.92,42.92,0,0,0,2.43,4.34,45.24,45.24,0,0,0,2.85,3.9c1,1.27,2.15,2.44,3.34,3.78a5.35,5.35,0,0,1-3.72-2.06A42.8,42.8,0,0,1,372,69.28c-.1-.37-.26-.73-.4-1.15H355.6a2.5,2.5,0,0,0-.63.17,18.65,18.65,0,0,0,.6,3.43,58.82,58.82,0,0,0,30.8,39.58,58.37,58.37,0,0,0,29.35,6.26,59.61,59.61,0,0,0,8.84-1.07A59,59,0,0,0,470.7,70a5.31,5.31,0,0,0,.18-1.8,7.38,7.38,0,0,0-.81-.09h-15a5.51,5.51,0,0,0-.87.16l-.35,1.21a42.67,42.67,0,0,1-2.67,7.37,43.6,43.6,0,0,1-6,9.37,4.93,4.93,0,0,1-2.49,1.62,3.26,3.26,0,0,1-.78,0c1.4-1.63,2.78-3.1,4-4.7s2.27-3.32,3.31-5a28.18,28.18,0,0,0,2.55-5.62c.63-1.9,1.17-3.82,1.78-5.83h15.73c.45,0,.91,0,1.36,0s.51-.17.38-.85c-1.38-.2-10.64-.27-17.36-.13m-52.3,30.48a39.39,39.39,0,0,1-.54,6.75l-1-.25c-.06-.39-.11-.73-.17-1.15l-1.17-.38-.67.85-1-.28a34.36,34.36,0,0,1,3.35-5.9A2,2,0,0,1,401.33,96.14ZM367.21,88.8l-.64-1c.27-.3.51-.55.8-.88l-.59-1-1.1.18c-.16-.31-.32-.61-.47-.88.11-.13.15-.25.23-.27,2-.6,4-1.2,6.06-1.78a1.71,1.71,0,0,1,.52,0l.56.93c-.06.16-.07.28-.14.34q-2.16,1.88-4.33,3.74C367.85,88.34,367.56,88.54,367.21,88.8Zm2.63,3.58a15.56,15.56,0,0,1-1.66-2.25c1.91-1.41,3.8-2.64,5.74-4l.81,1-4.8,3.35c.23.45.43.84.67,1.29Zm3.22-1,1.2,1.43-.8.69A4.22,4.22,0,0,1,372.29,92Zm.26,5.28c-.17-.37-.14-.69.1-.8a.79.79,0,0,1,.85,0c.69.5.71.51,1.15.11,1-.9,2-1.83,3-2.75.22-.2.45-.38.74-.63l.9.91-3.13,2.93a8.73,8.73,0,0,1-1.14,1A1.53,1.53,0,0,1,373.32,96.67Zm5.79,5.55-.8-.75.45-1.11-.71-.77-1.23.54-.66-.65c0-.39,2.83-2.44,5.63-4.23l.94.71c0,.2,0,.32,0,.39-1.05,1.82-2.1,3.64-3.17,5.45A2.56,2.56,0,0,1,379.11,102.22Zm5.65,3.79-.86-.44c0-.18,0-.3,0-.36.53-.84,1.08-1.67,1.66-2.58-.44-.08-.58.22-.78.37s-.36.35-.55.51-.46.39-.66.56c-.77-.32-.89-.45-.73-.91a10.76,10.76,0,0,0,.63-2.31c-.65,1-1.29,2-2,3l-.86-.51a35.39,35.39,0,0,1,3.9-5.82l1,.61a1.55,1.55,0,0,1,0,.49c-.44,1.16-.9,2.32-1.45,3.74a10.18,10.18,0,0,0,1.77-1.45c.53-.45,1-.93,1.62-1.45l1.19.77C387.35,102.22,386.07,104.07,384.76,106Zm1.76,1.13a39.29,39.29,0,0,1,3.12-6.18c.33.16.66.33,1.08.56l-3.06,6A1,1,0,0,1,386.52,107.14Zm7.8-3.15a33.79,33.79,0,0,1-1.66,6.25l-1-.44c0-.39.07-.72.11-1.13l-1-.53-.86.76-.89-.38c0-.16,0-.28,0-.33,1.36-1.8,2.72-3.59,4.14-5.44l1.17.48A4.75,4.75,0,0,1,394.32,104Zm-.88-3.68c-.28-.12-.56-.23-.83-.36a2.88,2.88,0,0,1-.44-.3,13.43,13.43,0,0,1,1.17-3c.42-1,.88-2,1.37-3.09a4.45,4.45,0,0,1,1.94.79,2,2,0,0,1,.91,2.21,7.08,7.08,0,0,1-1.35,3A2.09,2.09,0,0,1,393.44,100.31Zm2.39,11-1.06-.32c.36-1.88,1.23-3.54,1.73-5.4l-.75-.73.32-.85a14.17,14.17,0,0,1,3,1.06c-.12.88-.12.88-1.19,1C397.06,107.72,396.67,109.55,395.83,111.35Zm6,1.67-1.16-.33.6-2.92-.8-.32c-.6.91-.47,2-1,3l-1-.17a29.63,29.63,0,0,1,1.48-6.84l1,.24a3.1,3.1,0,0,1-.15,1.57,2.39,2.39,0,0,0-.12.74.68.68,0,0,0,.31.43.42.42,0,0,0,.62-.22,8.47,8.47,0,0,0,.25-.86l.32-1.13c.43-.31.78-.13,1.24.08C403,108.5,402.45,110.74,401.81,113Zm1.63-9.53-.91-.15a11.59,11.59,0,0,1,.4-3.29c.14-1.08.37-2.17.57-3.28a5.05,5.05,0,0,1,2.26.32,1.87,1.87,0,0,1,.82,3.06,6.78,6.78,0,0,1-.86.73c.15.94.31,1.91.46,2.84a1,1,0,0,1-1.18,0c-.1-.4-.21-.88-.34-1.35a3,3,0,0,0-.49-1.55c-.21,1-.38,1.8-.54,2.52C403.52,103.43,403.48,103.5,403.44,103.49Zm4.72,4.55c-.2,1.5-.34,3-.66,4.47A1.7,1.7,0,0,1,405,113.7a1.56,1.56,0,0,1-1-1.22,3.12,3.12,0,0,1,0-.75c.13-1.7.32-3.39.63-5.17l1.16.08a6.66,6.66,0,0,1,0,.9c-.14,1.15-.31,2.3-.44,3.45a5.26,5.26,0,0,0,0,1.19.64.64,0,0,0,.36.43.46.46,0,0,0,.57-.35,4.46,4.46,0,0,0,.19-.88c.17-1.25.32-2.5.49-3.74,0-.25.1-.48.17-.81l1.09.13A9.72,9.72,0,0,1,408.16,108Zm0-4.66a4.3,4.3,0,0,1-.17-1.33c.05-1.25.16-2.5.27-3.75a3.9,3.9,0,0,1,.19-.77l1,0c.09.16.18.25.17.33-.07,1.3-.17,2.6-.24,3.91a6,6,0,0,0,.07,1.19.42.42,0,0,0,.3.26c.18,0,.46-.09.5-.21a5.29,5.29,0,0,0,.29-1.31c.08-.7.07-1.4.13-2.1s.15-1.28.25-2.07l1.14.17c0,.3.07.54.06.78q-.13,2-.3,3.9a4.5,4.5,0,0,1-.15.73,1.86,1.86,0,0,1-3,.95A1.39,1.39,0,0,1,408.18,103.38Zm3.2,10.81c-.6,0-1.19,0-2-.07,0-.82,0-1.47,0-2.11,0-1.35.06-2.7.13-4.05,0-1,.19-1,1.33-.64-.06,1.79-.14,3.63-.21,5.54l1.43.29c0,.32,0,.6.05.94A5.68,5.68,0,0,1,411.38,114.19Zm19.17-20.63c.22-.12.45-.21.85-.39,1.51,1.8,2.89,3.56,4.3,5.33a4.24,4.24,0,0,1-.48.34,4.45,4.45,0,0,1-.54.25,3.91,3.91,0,0,0-1-.59c-.24-.06-.54.18-.86.31a5.62,5.62,0,0,0-.09.57c0,.2,0,.39,0,.66l-.86.39c-.39-.29-1.49-4.9-1.62-6.59A1.67,1.67,0,0,1,430.55,93.56Zm-1.89.94.39.77-.76.66c0,.09-.06.2,0,.28.43,1.13.87,2.25,1.3,3.38.18.47.34.94.5,1.37a1,1,0,0,1-1.19.48l-2-5-1,.13c-.11-.26-.21-.52-.35-.85A14.35,14.35,0,0,1,428.66,94.5Zm-3.75,1.44.25.83-1.36.58c.12.46.21.88.33,1.37l1.47-.18c.07.19.24.44.18.62s-.3.35-.5.47a4.66,4.66,0,0,1-.77.29c.22,1,.43,1.88.66,2.86l-1,.28c-.13-.12-.24-.18-.27-.26-.65-2-1.18-4-1.7-6.1A7.32,7.32,0,0,1,424.91,95.94Zm-11.21,8.51a10.82,10.82,0,0,1-.31-3.43,20.84,20.84,0,0,1,0-3.35l1-.06c.07.15.19.28.2.41.08,1.31.14,2.61.21,3.92,0,.39.07.79.11,1.27l1.3.16a.67.67,0,0,1,.06.89A7.9,7.9,0,0,1,413.7,104.45Zm5.67,9.42c-.43-.92-.84-1.82-1.25-2.73-.43.25-.24.57-.25.83s0,.6,0,.9,0,.59,0,1l-1.1.09c-.44-2.28-.4-4.54-.66-6.86l1-.16c.13.14.24.2.25.28.1.68.18,1.36.29,2.26a3.8,3.8,0,0,0,.41-.64c.15-.43.25-.87.4-1.3.26-.75.31-.77,1.46-.67a20.12,20.12,0,0,1-.64,2,2.3,2.3,0,0,0,.09,2.15c.41.81.74,1.65,1.2,2.68Zm1.34-10.61c-.34-2-.84-4-1.07-6.14l1-.17c.42.34,1.21,4.45,1.31,6.57l-1,.16C420.87,103.5,420.73,103.39,420.71,103.26Zm3.94,9.72-.72-1-1.12.14c-.07.41-.12.7-.19,1.09l-.89.26c-.11-.12-.22-.2-.22-.27-.08-2.25,0-4.5.05-6.77.46-.15.83-.26,1.19-.36a34.77,34.77,0,0,1,2.92,6.53Zm5.58-2.55a1.66,1.66,0,0,1-1.44,1.53,1.55,1.55,0,0,1-1.82-.71,4.64,4.64,0,0,1-.44-1c-.15-.42-.27-.86-.39-1.29-.31-1.11-.61-2.22-.94-3.46.41-.16.7-.25,1.05-.38a4.73,4.73,0,0,1,.39.78c.34,1.16.64,2.33,1,3.48a7,7,0,0,0,.55,1.22.47.47,0,0,0,.39.13.45.45,0,0,0,.31-.29,1.64,1.64,0,0,0,0-.73c-.27-1.07-.57-2.13-.86-3.19-.14-.53-.27-1.06-.43-1.67l1-.36c.12.1.23.15.26.23.46,1.59.93,3.18,1.37,4.78A2.66,2.66,0,0,1,430.23,110.43Zm1.89.11c-.49-2-.18-4-.69-6l-1.51.4a1.77,1.77,0,0,1-.23-.35,2.2,2.2,0,0,1-.11-.51,13,13,0,0,1,2.94-1.22,5.23,5.23,0,0,1,.26,1.93c.09.65.15,1.3.2,2a15.19,15.19,0,0,0,.19,2l1.55-.26.31.73A9,9,0,0,1,432.12,110.54Zm7.1-3.23-1-.7-.88.4a1.54,1.54,0,0,0-.07.48c.17.69-.13,1-1,1.2-.72-2.26-1.25-4.48-1.9-6.77l1.14-.67a35.76,35.76,0,0,1,4.5,5.56Zm4.57-2.92c-1-.3-1.54-1.23-2.6-1.66.26,1,1,1.56,1.26,2.44l-.75.57c-.16-.07-.28-.09-.33-.15-1.28-1.78-2.43-3.65-3.73-5.65a19.91,19.91,0,0,1,1.7-1.07,2,2,0,0,1,2.94,2,4.22,4.22,0,0,1-.18.77c.7.85,1.79,1.26,2.57,2.14Zm6.9-16.64a6.22,6.22,0,0,1,.45-.53c.15,0,.26-.06.34,0l6.21,2.88L457,91.14l-1.09-.3-.74.81.57,1.08-.58.73c-.41,0-3.63-3.76-4.64-5.32A2.2,2.2,0,0,1,450.69,87.75Zm-2.94,3.79,2.39,1.13c-.34-.61-.53-.94-.71-1.28s-.34-.61-.55-1a4.26,4.26,0,0,1,.26-.47c.13-.14.29-.27.41-.38.15,0,.28,0,.32.11.4.76.83,1.5,1.19,2.27a6.21,6.21,0,0,0,1.78,2.4c.3.25.56.57.91.93l-.77.87c-1.09-.62-1.69-1.72-2.8-2.15s-2.13-.9-3.19-1.35C446.93,92,447.36,91.81,447.75,91.54Zm-3.54,3.56c.82,0,1.36.89,2.34,1l-1.13-2.24.91-.81a8.71,8.71,0,0,1,1.05,2.09,7.8,7.8,0,0,0,2.17,3.19,6.65,6.65,0,0,1,.69.81l-.71.72a2.83,2.83,0,0,1-1.32-1A5.93,5.93,0,0,0,446,97.27c-.87-.38-1.71-.82-2.66-1.27A1.82,1.82,0,0,1,444.21,95.1Zm-2,1.52a1.9,1.9,0,0,1,.37-.2,41.49,41.49,0,0,1,4.28,5.27,1.44,1.44,0,0,1-.8.74,38.93,38.93,0,0,1-4.34-5.35C442,96.89,442.09,96.74,442.24,96.62Z"/><path class="cls-1" d="M358.31,49.51c1.11,0,2.22,0,3.33,0H365c1.11,0,2.22,0,3.33,0a27,27,0,0,0,3.35-.07l.34-1.19a42.45,42.45,0,0,1,38.5-31.67,39.74,39.74,0,0,1,10.82.78,41.74,41.74,0,0,1,21.5,11.53c.5.49,1,.95,1.53,1.42h0c.42-.29.9-.48,1-1.13s.66-.53,1.08-.68c0-.09,0-.2,0-.25-1-1.22-1-1.55-.17-3.06.69.42.95,1.31,1.79,1.64,1.14-1,1.48-2.56,2.18-3.91a3,3,0,0,1,1.95,0,14.87,14.87,0,0,1-3.25,4.74,3.14,3.14,0,0,0,1,0,2.88,2.88,0,0,0,.68-.59c.71-.71,1.46-1.39,2.12-2.15a2.16,2.16,0,0,1,2-.78l.57.08a3.33,3.33,0,0,1-.41.62c-1,1-2,2-3.07,2.91A5,5,0,0,1,449.3,29a5.47,5.47,0,0,1-2.21-.25,8.72,8.72,0,0,1-1.12.67l.51.8c-.09.1-.16.24-.22.24l-1.9-.18h0s0,0,0,0c.33.44.65.88,1,1.31a42.31,42.31,0,0,1,8.54,16.49c.12.43.24.86.36,1.27,1.37.2,15.45.19,16.64,0C467.64,25.06,445.22-.35,411.92,0a57,57,0,0,0-28.35,7.86,58.44,58.44,0,0,0-21.4,21.27,57,57,0,0,0-7.26,20.22,14.11,14.11,0,0,0,3.4.16m91.69-15a4.25,4.25,0,0,1-.31-2.5,2.6,2.6,0,0,1,.65.34,6.08,6.08,0,0,0,1.83,1.31.83.83,0,0,0,1.08-.24c.56-.72,1.09-1.44,1.69-2.24a3.69,3.69,0,0,1,1.89.25,8.35,8.35,0,0,1-3.65,3.16A3.44,3.44,0,0,1,450,34.51Zm6.34,6.14a13.66,13.66,0,0,1-1.25-2.81,3.22,3.22,0,0,1,2-1.47,8.84,8.84,0,0,0,1,2.56c.78-.31,1.1-1.08,1.83-1.48a5.57,5.57,0,0,1,1.62.45A6.77,6.77,0,0,1,456.34,40.65ZM461,32.37a8.22,8.22,0,0,1-.74.64c-1.34.86-2.69,1.72-4.06,2.55s-1.24.74-2.89.23A26.76,26.76,0,0,1,456.21,34c1-.65,1.92-1.26,3-2Zm-3.86-6c-.1.28-.11.4-.18.45q-2.31,1.8-4.65,3.59a2.15,2.15,0,0,1-2.24.13c.09-.17.11-.28.18-.33,1.54-1.2,3.11-2.37,4.64-3.59C455.6,26,456.3,26.23,457.15,26.32ZM372.48,38l-.42-1.38,1-.26c.2.4.4.78.58,1.13C373.49,38.08,373.08,38,372.48,38ZM374,36.5c-.55-.33-.54-.87-.72-1.31,0-.06,0-.12.09-.14l.8-.33a2.12,2.12,0,0,1,.72,1.38Zm46.26-22.26c-.19-.28-.38-.54-.62-.87l1.16-1.06.65,1A2.31,2.31,0,0,1,420.21,14.24ZM450,16.6c.05.34.09.66.14,1a2.27,2.27,0,0,1-1.5.39l-.2-.9A1.82,1.82,0,0,1,450,16.6Zm-6.26-3.9c.13.38.25.7.38,1.05l1.1.1c.06.31.12.63.2,1l-1.39.47-.43-1.15-1.11-.07c0-.35-.07-.67-.11-1.06ZM440,10.62c.31.28.09.5,0,.7-.67,1.35-1.35,2.7-2.07,4.13.5.35,1,.69,1.47,1l1.44.94L441.6,16a2.13,2.13,0,0,1,1.46-.39c.27.29,0,.49-.1.67-.37.59-.77,1.15-1.2,1.79a36.3,36.3,0,0,0,3.19,2.6,2.87,2.87,0,0,1,2.7-2.09c1.21,0,1.77.77,1.32,1.9a5.11,5.11,0,0,1-.78,1.28,7.32,7.32,0,0,1-3.05,2.18c-.23-.16-.44-.29-.63-.45q-2-1.63-3.94-3.29c-.12-.09-.29-.17-.34-.29-.2-.45-.6-.55-1-.76-1.23-.67-2.38-1.48-3.5-2.19a2.33,2.33,0,0,1-.09-.23.35.35,0,0,1,0-.14l2.83-5.39Zm-6.79,2.79c-.25-.5-.64-.95-.28-1.53a2.28,2.28,0,0,1,1.69-1.13c.84-.11,1.09.11,1.34,1.22-.57.31-1.44-.32-1.86.53.19.88,1,.83,1.81,1.16l-.56,1.16a23,23,0,0,1-3.39.36C432,14.26,432.23,13.61,433.21,13.41Zm-2.66-7.17a2.78,2.78,0,0,1,0,.66c-.48,1.69-1,3.38-1.47,5-.34,1.09-.49,1.19-1.94,1.73.07-.3.11-.53.18-.76.48-1.63,1-3.25,1.42-4.9A2.25,2.25,0,0,1,430.55,6.24ZM415.42,7.71c-.05-1,0-2.11,0-3.13l1.06-1.12c.42.06.39.34.39.57,0,1-.05,2-.07,3,0,.5,0,1,0,1.58,2,.43,3.91.61,5.94.89a2.89,2.89,0,0,0-3.32-2.1,14.62,14.62,0,0,1,.7-1.3,1.1,1.1,0,0,1,1.71-.27,5.62,5.62,0,0,1,1.25,1.28,10.83,10.83,0,0,1,1.14,2.12,1.48,1.48,0,0,0,1.4,1,6.84,6.84,0,0,0,.67-2.81c.11-1.16.83-1.59,1.75-2.06a31.79,31.79,0,0,1-1.82,7.44A4.59,4.59,0,0,1,424,12a.71.71,0,0,0-.82-.09,1.53,1.53,0,0,1-.73,0,50.46,50.46,0,0,0-6.13-.84,6.17,6.17,0,0,1-.93-.17A14.49,14.49,0,0,1,415.42,7.71Zm-16.15-.17c.17.42.34.84.52,1.25s.38.82.6,1.32c1.39-.2,2.73-.57,4.21-.93a8.49,8.49,0,0,0-.7-.68,6.75,6.75,0,0,0-.83-.49c0-.29.06-.58.08-.88C403.22,6,404,5.5,405,5.35a6.08,6.08,0,0,1,1.35,0,1.31,1.31,0,0,1,1.31,1.38A6.72,6.72,0,0,1,407.48,8a5.87,5.87,0,0,1-.29.81c1.23,0,2.34-.19,3.5-.24.19-.52.32-1,.53-1.45A6.43,6.43,0,0,1,412,5.84a.84.84,0,0,1,1.32,0,3.3,3.3,0,0,1,.61,1,4.91,4.91,0,0,1-.47,4.42,6.33,6.33,0,0,0-2.62-.35c-.9.11-1.8.15-2.71.21a2.67,2.67,0,0,1-2-.29,4.63,4.63,0,0,1-2.46.92c-.94.17-1.85.49-2.77.74-.61.17-.61.17-1.34-.33l-.61.7a6.24,6.24,0,0,1-2.07,0,7.87,7.87,0,0,1-.79-2.53c.34-.45.68-.94,1-1.4s.73-.75.71-1.41c0-.37.42-.75.69-1.2A2.53,2.53,0,0,1,399.27,7.54Zm-3.41-2.8.59.18.59.19.59-.83.83.34c.22.65-.24,1-.31,1.55l-1.22-.4c-.2.29-.41.56-.64.89l-1-.56ZM390.2,8.26c.19.13.39.2.46.34.88,1.63,1.77,3.26,2.61,4.91.48,1,.41,1.27-.29,2.43-.36-.71-.69-1.36-1-2s-.69-1.33-1.06-2-.74-1.31-1.14-2ZM378.83,18.34c.2-.79.61-1.12,1.42-1a5,5,0,0,1,1.38.55,15.08,15.08,0,0,1,1.34.93l3.8-2.61a4.08,4.08,0,0,0-.69-.25c-.5-.06-1-.08-1.51-.13a1,1,0,0,1-.92-.65c-.14-.38-.31-.74-.47-1.11a11.93,11.93,0,0,1,1.79-3,1.19,1.19,0,0,1,.75-.57l.47,1.65c-.35.84-1.15,1.28-1.33,2.17.34.09.67.2,1,.26.69.12,1.39.21,2.08.32a1.51,1.51,0,0,0,1.56-.46,7.53,7.53,0,0,0-.36-.77c-.4-.64-.83-1.26-1.24-1.9s-.47-1.09.06-2.19a29.65,29.65,0,0,1,3.84,6.31c-.26.18-.53.39-.81.56-1.68,1-3.37,2-5,3a3.63,3.63,0,0,0-1.35,1.21,9.56,9.56,0,0,1,.41,1.13,9.08,9.08,0,0,1,.19,1.48.84.84,0,0,1-.63.92,4.56,4.56,0,0,1-1.92.4c-.16-.43.17-.66.33-.93a4,4,0,0,0,.65-2.1l-.92.4c-.19.09-.36.19-.55.26-1.71.67-2.86.08-3.26-1.71A4.75,4.75,0,0,1,378.83,18.34Zm-3.13,2.44c2,.74,3.57,1.72,4.33,4a56.73,56.73,0,0,1-4,4.31c.2.27.4.54.58.81a3.39,3.39,0,0,1,.69,2.48,4.1,4.1,0,0,1-2.24,1.14c0-.69.38-1.18.48-1.74a2.35,2.35,0,0,0-.05-1.8c-.91-.62-2.07-.58-3.22-.92l-.51-1.68c.92-.31,1.58.41,2.44.38,1.18-1.36,2.4-2.74,3.7-4.21-.44-.2-.74-.35-1.06-.47s-.56-.19-.9-.31A3.77,3.77,0,0,1,375.7,20.78Zm-2.14-.6.82-.07c.34.21.34.21.45,1.47l-1.13.22v1l-1,.14a1.83,1.83,0,0,1-.37-1.47l1.06-.25C373.44,20.9,373.49,20.58,373.56,20.18Zm-.84-.9.36,1.41c-.26.09-.43.17-.61.21a.49.49,0,0,1-.67-.38c-.09-.32-.11-.66-.2-1.18Zm-7.77,16c1.41.13,2.6.89,4,1l2.19-3.9L369,31.87a4.55,4.55,0,0,1-.59-1.62,5.56,5.56,0,0,1,5,2.9l-2.73,5a3.26,3.26,0,0,0-.41,0,2,2,0,0,0-.26.1c.07.69.09,1-.2,1.38a13,13,0,0,1-.93,1.09,4.69,4.69,0,0,1-2.17-.81,1,1,0,0,1-.44-.57,6.41,6.41,0,0,1-.31-1.31,1.89,1.89,0,0,0-.64-1.45C364.92,36.38,364.94,35.86,365,35.29Zm-2.05.42c-.1-.29-.19-.57-.28-.86.18-.43.55-.49,1-.5.23.37.46.73.72,1.17l-1.05.71c.08.3.17.61.28,1l-.87.44a2.14,2.14,0,0,1-.84-1.36Z"/><path class="cls-1" d="M442.41,75.37a1.85,1.85,0,0,0,.44-.78c.3-1.8.22-3.54-1.25-4.88a16.21,16.21,0,0,0-1.93-1.45,63.43,63.43,0,0,1-7.61-6.16,1.37,1.37,0,0,0-.12-1.46c-.67-1.18-1.37-2.35-2.07-3.51-.05-.07-.25-.06-.44-.1-.2,1.29-.37,2.54-.6,3.77a2.83,2.83,0,0,0,1,2.83c.85.71,1.67,1.47,2.56,2.11,1.8,1.3,3.64,2.52,5.46,3.79,1.12.78,2.22,1.57,3.32,2.37,1.37,1,1.1,1.56,0,2.45a54.35,54.35,0,0,1-8,5.61,16.65,16.65,0,0,1-1.92.88,1.83,1.83,0,0,1-1.47,0A2.65,2.65,0,0,1,428.34,77c.61-1.2,1.35-2.35,2-3.53a12.3,12.3,0,0,0,.68-1.17c.09-.16,0-.39.07-.83A35.27,35.27,0,0,0,427.33,77a1.89,1.89,0,0,1-.12-.51c-.08-1.66-.14-3.32-.2-5,0-.54,0-1.09,0-1.64a4.18,4.18,0,0,1,2.44-.13c.74.25,1.45.59,2.21.91a10.25,10.25,0,0,0,1.4-2.31,8.29,8.29,0,0,0-1-.66,4.65,4.65,0,0,0-3.1-.16c-.63.15-1.24.36-2,.57-.07-.5-.16-.94-.19-1.38-.13-2.11-.24-4.22-.35-6.33-.13-2.46-.25-4.93-.38-7.39a2.41,2.41,0,0,1,.38-1.73,3.4,3.4,0,0,0,.48-2.74c-.15-1-.3-2.09-.46-3.14a5,5,0,0,0-.16-.66,6.55,6.55,0,0,0-1.16,1.65,6.92,6.92,0,0,0-1.1,4.74c.25,2.76.35,5.52.51,8.29.18,3,.35,6,.52,9.05,0,.35,0,.7,0,1a9.22,9.22,0,0,0-.9.64,27.29,27.29,0,0,0-4.65,5.13c-.63.92-1.25,1.83-1.91,2.72a9.3,9.3,0,0,1-1.09,1.25,1,1,0,0,1-1.6,0,3.15,3.15,0,0,1-.92-2.32,9.48,9.48,0,0,1,.92-4.09A2.38,2.38,0,0,1,416,71.45a1.48,1.48,0,0,0,.8-.86c.17-.47.14-.65-.32-1a4.18,4.18,0,0,0-.49-.31c.17-.3.28-.52.42-.73s.34-.5.53-.74.3-.4.46-.59.42-.44.61-.68.42-.27.22-.72c-1.6,1.36-2.94,2.8-3.27,4.91a3.13,3.13,0,0,1-.37,1.13A14.48,14.48,0,0,0,413,79.43a3.64,3.64,0,0,0,.23,1.18,2.39,2.39,0,0,0,4.21.89,10.61,10.61,0,0,0,1.16-1.57c1.16-1.77,2.27-3.57,3.48-5.3a36.94,36.94,0,0,1,2.39-2.91,3.26,3.26,0,0,1,.66-.44c.06.59.12,1,.14,1.49.09,1.6.16,3.21.23,4.82a7.55,7.55,0,0,1-.53,3.55s.06.14.1.21a1,1,0,0,0,.25-.17c.27-.43.51-.87.78-1.29.12-.18.15-.49.52-.38,0,.25,0,.5,0,.75a2.94,2.94,0,0,0,3.11,3.13,5.36,5.36,0,0,0,2.74-.73,42.45,42.45,0,0,0,9.12-6.4,6.85,6.85,0,0,0,.81-.89m-15.32,1.86s0-.11,0-.12l.15,0,.06-.06,0,0-.1,0Z"/><path class="cls-1" d="M470.75,51.07a10.3,10.3,0,0,0-1.36,0H455a3,3,0,0,1-1.6-.16,1.14,1.14,0,0,1-.08-.16c0-.15-.08-.29-.11-.44a40,40,0,0,0-14.88-23.33,40.46,40.46,0,0,0-23.42-8.59,39.84,39.84,0,0,0-17.15,2.78c-12.69,5.21-21,14.37-24.76,27.62-.2.72-.38,1.45-.58,2.25l-1.68,0H356.86a10.1,10.1,0,0,0-1.35,0c-.45,0-.57.33-.27.86h18.12c.31-1.27.55-2.35.84-3.41a40,40,0,0,1,39.17-29.22A40.21,40.21,0,0,1,451.86,49.2c.22.87.43,1.74.63,2.58,1.42.22,9.91.29,17.58.15a8.06,8.06,0,0,0,1-.1c.09-.39.07-.71-.32-.76"/><path class="cls-1" d="M412.69,34.43q-.42,8.91-.84,17.81c-.33,7-.64,14-1,21-.06,1.35-.28,2.7-.46,4a3.83,3.83,0,0,1-2.13,3A31.42,31.42,0,0,1,405,81.84c-1.73.69-3.51,1.24-5.27,1.85-.23.08-.5.09-.55.51l3.3-.24a13.06,13.06,0,0,0,4.93-1.29,8,8,0,0,1,.82-.29,5.16,5.16,0,0,1,.53-.6,10.57,10.57,0,0,0,3.88-7.89c.27-5.14.46-10.27.7-15.4.18-3.78.39-7.55.56-11.32.14-3,.26-5.94.4-8.91,0-.66.08-1.31.15-2,0-.22-.06-.52.36-.59a40.26,40.26,0,0,1,5.51,8.41,7.28,7.28,0,0,1,.42,1.13A3.79,3.79,0,0,1,419.07,50c-.37.25-.77.46-1.15.71a5.46,5.46,0,0,0-.57.44c.11.07.16.12.19.11a5.73,5.73,0,0,0,3.08-2c1.91-2.47,2.53-5.12.94-8a7.68,7.68,0,0,0-.41-.81c-.88-1.35-1.76-2.7-2.69-4-.72-1-1.52-2-2.27-3a8.42,8.42,0,0,1-1.6-3.55,6.12,6.12,0,0,0-.46-1.43.47.47,0,0,0-.85-.05c-.51.92-1,1.87-1.41,2.83a.75.75,0,0,0,.27.94,1.64,1.64,0,0,1,.58,1.62c0,.25,0,.5,0,.75"/><path class="cls-1" d="M398.27,80.91a1.55,1.55,0,0,1,.26-.37c.2-.2.41-.39.64-.59.47.36.86.68,1.27,1a3.22,3.22,0,0,0,4.55-.77,9.54,9.54,0,0,0,1.48-2.78c.17-.53.38-1,.57-1.55-.05.2-.06.38.25.4a2.89,2.89,0,0,0,.9-1.53c.38-1.2.69-2.41,1-3.63a7.86,7.86,0,0,0-.73-5.85c-.72-1.38-1.41-2.78-2.11-4.17L400.5,49.43a2,2,0,0,1-.35-1.57,4.77,4.77,0,0,0-.63-4c-.57-.92-1-1.93-1.54-2.93-.33,1.25-.6,2.54-1,3.77a3.18,3.18,0,0,0,.29,2.72c3.53,6.73,7,13.5,10.51,20.24a5.64,5.64,0,0,1,.68,3.49A15.49,15.49,0,0,1,407,75.84l0,0h0l0,0c0-.51,0-1-.05-1.51a7.43,7.43,0,0,0-1.43-3.92,4.52,4.52,0,0,0-1.88-1.47,1.71,1.71,0,0,0-2,.34,5.43,5.43,0,0,0-1.54,2.39,2.13,2.13,0,0,0,.84,2.79,3,3,0,0,0,2.07.78,15.35,15.35,0,0,1,1.66,0,1.1,1.1,0,0,1,1,1.71,2.66,2.66,0,0,1-2.49,1.66,3.33,3.33,0,0,1-1.75-.39c-.64-.37-1.27-.78-2-1.21a4.81,4.81,0,0,0-1.22,1.46,2.48,2.48,0,0,1-2.66,1,3.32,3.32,0,0,1-2-1.2,4.66,4.66,0,0,1-1-2.47c-.25-2.25-.47-4.51-.65-6.76-.26-3.27-.47-6.53-.71-9.79-.11-1.56-.24-3.12-.38-4.67,0-.21.05-.51-.37-.61a16.67,16.67,0,0,0-1.07,2.45,1.5,1.5,0,0,0,0,.6c.19,2.1.4,4.21.6,6.31q.39,4.13.79,8.27c.19,1.9.37,3.8.6,5.7a9.62,9.62,0,0,0,1.2,3.39c1,1.85,4.43,2.7,5.76.24m4.14-7.58a.61.61,0,0,1-.55-.6.67.67,0,0,1,.72-.6,2.12,2.12,0,0,1,1.91,1A4,4,0,0,1,402.41,73.33Z"/><path class="cls-1" d="M393.85,57.86c.81.75.9,1.14.46,2.11a3,3,0,0,1-.21.4,9.6,9.6,0,0,0-.88,2.7,1.56,1.56,0,0,0,.64,1.72c.16.12.31.25.48.36a2.74,2.74,0,0,1,1.3,1.93s.15.08.23.12a3.87,3.87,0,0,0,.93-2.28,1.89,1.89,0,0,0-.78-2.1c-.47-.36-.91-.76-1.46-1.23.34-.76.63-1.35.87-2a11.43,11.43,0,0,0,.63-1.84A2.64,2.64,0,0,0,394,54.55,4.07,4.07,0,0,0,392.88,57c.3.26.64.55,1,.85"/><path class="cls-1" d="M369.43,57.08c-1.11-.25-2,0-2.84-.22-.65-.74-.51-1.82-1.18-2.57-.56.84-.51,1.84-1.15,2.6l-2.5.11-.09.26,2,1.57c-.07,1-.64,1.76-.62,2.83l2.37-1.59,2.37,1.57c0-1.06-.57-1.82-.61-2.81l1-.79,1.23-1"/><path class="cls-1" d="M461.58,56.84c-.62-.72-.46-1.77-1.2-2.52-.36.9-.68,1.72-1,2.59l-2,0c-.23,0-.52-.05-.6.32.53.71,1.54.91,2,1.73-.13.43-.25.81-.36,1.19s-.41.82-.2,1.39l2.28-1.51c.4.27.77.51,1.14.77a2.3,2.3,0,0,0,1.29.56c-.11-.9-.68-1.68-.65-2.58.62-.63,1.43-1,2.08-1.69-1-.38-1.92,0-2.73-.29"/><path class="cls-1" d="M382.19,45.42c.34-.44.66-.89,1-1.34s.67-1,1-1.49a6.73,6.73,0,0,1,1-1.5c0,.89,0,1.57.06,2.24,0,.19,0,.41.36.38A16.27,16.27,0,0,0,387,40.1a2,2,0,0,0-.41-2c-.61-.75-.71-.89-1.54-.55a7.89,7.89,0,0,0-2.48,1.68c.73.66,1.52.41,2.33.35-2.17,2.59-3.52,5.13-3.75,7a4.39,4.39,0,0,0,1.08-1.25M386,38.75c-.15.89-.15.89-.69.58C385.54,39.15,385.74,39,386,38.75Z"/><path class="cls-1" d="M445,39.24c-.36-.3-.69-.59-1.05-.85a8.42,8.42,0,0,0-1-.64,4,4,0,0,0-.84-.3c-.44-.1-.66.08-1,.49a2.54,2.54,0,0,0-.4,2.51c.33,1,.71,2,1.08,3,.07.19.17.37.47.24.06-.84.13-1.7.19-2.56a36.35,36.35,0,0,0,4.08,5.57,2.45,2.45,0,0,0-.18-.86,15.22,15.22,0,0,0-3.49-5.94,1.72,1.72,0,0,1-.26-.46c1.35.48,1.37.47,2.41-.17m-2.59,1.81-.07-.11-.09-.06a.24.24,0,0,1,.08.06h0l.11.08Zm.12-1.66h0c-.58.19-.6.17-1-.36.45-.14.65.3,1,.36l.06,0Z"/><path class="cls-1" d="M385.53,74.51a5,5,0,0,1,1.31-2.17,7.65,7.65,0,0,1,1.38-1.16,1.42,1.42,0,0,0,.63-1.94c-.64,0-1,.52-1.38.85a2.05,2.05,0,0,1-3.07-.18,5.13,5.13,0,0,1,.6-.63,3.28,3.28,0,0,1,2.09-.42c.21-.47.31-.86,0-1.22a1.36,1.36,0,0,0-1.1-.41,1.63,1.63,0,0,0-1.49.86,5.68,5.68,0,0,0-.79,2.57c-.06,1.06,0,1.17,1,1.5l.65.22c-.12,1.07-.23,2-.34,2.92a1.84,1.84,0,0,0,.46-.79"/><path class="cls-1" d="M408.25,82.42l0,0,0,0,0,0h0s0,0,0,.05h0"/><path class="cls-1" d="M407.82,85.46a2.59,2.59,0,0,1,.26.43c-.29.5-1,.74-.46,1.5a29.22,29.22,0,0,0,3.79-2.93,2,2,0,0,0,.3-.64c-.57-.29-.92.14-1.32.29a2.1,2.1,0,0,1-1.46.13.32.32,0,0,1-.17-.48.63.63,0,0,1,.87-.36c.23.08.49.29.64,0s.38-.36.69-.43a1.36,1.36,0,0,0,1.12-1.79,3.09,3.09,0,0,0-.38-.8c-.07-.1-.31-.21-.36-.18s-.34.33-.3.44a10.26,10.26,0,0,0,.49,1.19c-.33.39-.55.8-1.13.42a1.37,1.37,0,0,0-.86-.08c-.43.06-.86.18-1.29.28-.12.19-.25.38-.38.56a1.82,1.82,0,0,0-.05,2.48"/><path class="cls-1" d="M417.05,60c.24.07.39.16.51.14,1.46-.28,2.46-1.4,3.79-2.3a3.63,3.63,0,0,1-.07.76c-.14.37-.31.74-.48,1.1a2.44,2.44,0,0,0-.13,1.62.64.64,0,0,0,.92.48c.2-.06.37-.27.67-.51-1.14-.76-1.15-.76-.74-1.76.17-.42.38-.82.52-1.25.07-.23.15-.56,0-.71a3.56,3.56,0,0,1-.35-1.74,2.62,2.62,0,0,0-.35-1,1,1,0,0,0-1.72,0,1.9,1.9,0,0,0-.27.68,2.67,2.67,0,0,0,0,.89,1.44,1.44,0,0,0,.33.65,3.46,3.46,0,0,0,.66.5c-.83,1.28-2.34,1.45-3.38,2.42"/><path class="cls-1" d="M410.54,43.77c-.18.13-.35.19-.4.31-.41.9-.8,1.82-1.31,3-.2-.47-.31-.69-.39-.91a3.86,3.86,0,0,0-1.65-1.91c-.26-.17-.53-.31-.82-.06s-.21.56.09.94.38.43.61.69c-1.07,1.25-2.68,1.48-4.16,2.5a7.46,7.46,0,0,0,4.94-2.14c.59.74.52,1.71,1.19,2.34,1.09-.91,1-2.4,1.81-3.45.16.12.3.19.41.29s.41.3.66.13a.54.54,0,0,0,0-.8c-.31-.32-.65-.61-1-.91"/><path class="cls-1" d="M401.77,65.46c.3-.62.59-1.14.82-1.68a1.22,1.22,0,0,0-.36-1.49c-.56-.48-1.16-.92-1.82-1.43a3.49,3.49,0,0,0-1.25,1.86,1,1,0,0,0,.26,1.1,11.41,11.41,0,0,0,2.35,1.64"/><path class="cls-1" d="M408.16,52.19c-.41.45-.71.66-.83.94a5.24,5.24,0,0,0-.35,3.22,1.76,1.76,0,0,0,.22.55,1.46,1.46,0,0,0,1.56.63,1.3,1.3,0,0,0,.67-1.24,1,1,0,0,0-.74-1c-.26-.07-.54-.09-.75-.13-.31-1,.34-1.75.22-3"/><path class="cls-1" d="M388.05,79.88a1.46,1.46,0,0,0,1.5.45,1.28,1.28,0,0,0,.59-1.42.92.92,0,0,0-.8-.79c-.23,0-.47,0-.66-.05-.35-1,.42-1.82.21-2.81a1.82,1.82,0,0,0-.37.13.67.67,0,0,0-.21.2,4.94,4.94,0,0,0-.55,3.77,1.28,1.28,0,0,0,.29.52"/><path class="cls-1" d="M404.31,42.87a1.09,1.09,0,0,0,1,.81A1.22,1.22,0,0,0,406.4,43a.79.79,0,0,0-.33-1.25c-.18-.09-.39-.1-.58-.18a.7.7,0,0,1-.52-.81,6.49,6.49,0,0,1,.78-2.88c.08-.09.05-.27.07-.41a6.37,6.37,0,0,0-1.71,4.2,3.26,3.26,0,0,0,.2,1.18"/><path class="cls-1" d="M409.63,34.13A8,8,0,0,0,408,38.51a3.81,3.81,0,0,0,.22,1.32,1.06,1.06,0,0,0,1,.77,1.23,1.23,0,0,0,1.11-.86,3,3,0,0,0,0-.84l-1.56-.7a17.92,17.92,0,0,0,.28-2.06c0-.69.79-1.15.55-2"/><path class="cls-1" d="M436.41,51.36a4.75,4.75,0,0,0-.53.18c-1.51.69-3,1.38-4.52,2.09a8.75,8.75,0,0,0-1.28.78c-.18.13-.27.38-.51.73.39,0,.5,0,.58,0l5.74-2.68a2.16,2.16,0,0,0,.6-.44c.21-.2.23-.43-.08-.65"/><path class="cls-1" d="M402.2,28.63a2.48,2.48,0,0,0,.22-.85c0-.18-.07-.48-.19-.53a.94.94,0,0,0-.68,0,2.46,2.46,0,0,0-1.24,1.26,4.16,4.16,0,0,0-.47,2.43,6.24,6.24,0,0,0,2.36-2.32"/><path class="cls-1" d="M419.79,25.43a3.11,3.11,0,0,0,2.33-.33,4.61,4.61,0,0,0,2.27-1.89,7.45,7.45,0,0,0-3.61.88l.06-.05h0s0,0,0,0c-.43.37-.92.68-1,1.35"/><path class="cls-1" d="M419.52,26a1.34,1.34,0,0,0,.26,1.8,7.06,7.06,0,0,0,2.28,1.5,4.1,4.1,0,0,0-.56-2.36,1.66,1.66,0,0,0-2-.94"/><path class="cls-1" d="M418.8,23.49A4.56,4.56,0,0,0,417,24.86a2,2,0,0,0-.19.52,4.3,4.3,0,0,0,2.77-.83,2.36,2.36,0,0,1,1.18-.51c0-.56.65-.78.84-1.4a9.28,9.28,0,0,0-2.83.85"/><path class="cls-1" d="M430,26.62a4.08,4.08,0,0,0-1.22.48.74.74,0,0,0-.29.9l.15,0c.19,0,.36.06.44.27a5.12,5.12,0,0,0,4-1.2,8.19,8.19,0,0,0-3.07-.47"/><path class="cls-1" d="M396.73,26.61a10.29,10.29,0,0,0-1.47.27,3.8,3.8,0,0,0-.7.39c1.42.86,2.72,1.37,4.22.76a5.22,5.22,0,0,1,.56-.18,2.31,2.31,0,0,0-2.61-1.24"/><path class="cls-1" d="M399.35,27.84h0Z"/><path class="cls-1" d="M428.47,28a1.12,1.12,0,0,0-.36,1.55,8.21,8.21,0,0,0,1.77,2.4,3.07,3.07,0,0,0,.66.41,5.23,5.23,0,0,0-1.33-3.73.62.62,0,0,1-.13-.32c-.27,0-.51,0-.61-.31"/><path class="cls-1" d="M386.91,33.88a3.7,3.7,0,0,0,3.82-.24,3.81,3.81,0,0,1-.27.69,5.72,5.72,0,0,0-.8,3.45c0,.17,0,.42.36.44a13.22,13.22,0,0,0,1.44-2.86,4.55,4.55,0,0,0,.15-1.48c0-.4-.36-.4-.67-.4.1-.17.19-.34.29-.54a1.31,1.31,0,0,0-1.61-.51c-.74.28-1.48.62-2.2,1-.19.09-.33.31-.51.49"/><path class="cls-1" d="M438.57,35.94a1.05,1.05,0,0,0-.33.62,2.33,2.33,0,0,0,.12.73,13.35,13.35,0,0,0,1.34,3.33c.05.1.19.16.41.33a6.44,6.44,0,0,0-.53-4c-.17-.34-.31-.7-.47-1-.19,0-.43-.06-.54,0"/><path class="cls-1" d="M439.1,35.87h0v0h0l0,0Z"/><path class="cls-1" d="M427.83,31a4.77,4.77,0,0,0-1.18-3.31c-.35-.32-.74-.72-1.33-.47a1.45,1.45,0,0,0,.21,1.68c.5.62,1.06,1.2,1.62,1.77a2.68,2.68,0,0,0,.68.33"/><path class="cls-1" d="M400.29,24.41c1.33,1.07,2.67,2,4.65,1.42a2.7,2.7,0,0,0-2.07-1.58,3.6,3.6,0,0,0-2.58.16"/><path class="cls-1" d="M403.05,23.3a6.92,6.92,0,0,0,3.19,2.09,1.7,1.7,0,0,0,1.58-.11l-.8-1.16c-.41-.16-.81-.35-1.23-.47a5.29,5.29,0,0,0-2.74-.35"/><path class="cls-1" d="M424.17,27.17a2.18,2.18,0,0,0-1.55-.88,1,1,0,0,0-.35,1.14,1.5,1.5,0,0,0,.18.41A6.13,6.13,0,0,0,425,30a4.69,4.69,0,0,0-.82-2.81"/><path class="cls-1" d="M423.67,24.65a1.45,1.45,0,0,0-.93,1.12,2.06,2.06,0,0,0,1.87.13,6,6,0,0,0,2.89-1.73,6.52,6.52,0,0,0-3.83.48"/><path class="cls-1" d="M391.88,29.12a4.33,4.33,0,0,0,1.58.74,7.47,7.47,0,0,0,2.36-.06c.11-.27.36-.25.6-.28-.19-.86-.39-1.12-1.05-1.18a5.8,5.8,0,0,0-3.49.78"/><path class="cls-1" d="M427,25.37a1.69,1.69,0,0,0-1.43,1.28,3.37,3.37,0,0,0,2.58.12,4,4,0,0,0,2.06-1.3,5.45,5.45,0,0,0-1.72-.19,6.67,6.67,0,0,0-1.49.09"/><path class="cls-1" d="M416.24,26.85a1.39,1.39,0,0,0,.66,1c.64.39,1.31.72,2.09,1.14a3.42,3.42,0,0,0-.37-2.13,1.61,1.61,0,0,0-1.41-1,.84.84,0,0,0-1,1"/><path class="cls-1" d="M436.68,32.58c-.42.26-.3.56-.05.86-.38,0-.75.13-.71.58a5.73,5.73,0,0,0,.29,1.61,24.49,24.49,0,0,0,1.15,2.29c.07.14.25.23.47.42a5.75,5.75,0,0,0-.83-4.18,1.37,1.37,0,0,1-.12-.42,13.31,13.31,0,0,0,1.25.46,2.63,2.63,0,0,0,.88.11,11.67,11.67,0,0,0,1.31-.26c.11,0,.19-.15.35-.28a7.79,7.79,0,0,0-2.85-1.39,1.39,1.39,0,0,0-1.14.2"/><path class="cls-1" d="M397.47,25.44a3.71,3.71,0,0,0,4.46,1.15c-.07-.72-.63-1-1.19-1.17a3.54,3.54,0,0,0-1.18-.14,7.13,7.13,0,0,0-2.09.16"/><path class="cls-1" d="M435,30.19a1.11,1.11,0,0,0-1.25,1c.27.12.53.23.79.36a3.7,3.7,0,0,0,3.2.07,2.58,2.58,0,0,0,.52-.42c-.75-.31-1.34-.59-1.95-.8a4.52,4.52,0,0,0-1.31-.24"/><polygon class="cls-1" points="433.76 31.22 433.76 31.22 433.73 31.2 433.76 31.22"/><path class="cls-1" d="M384.8,36.59a.73.73,0,0,0,.25.15,4.32,4.32,0,0,0,3.3-.59,7.56,7.56,0,0,0-1,4.33c0,.18,0,.42.34.39a13.06,13.06,0,0,0,1.37-3.1,4.6,4.6,0,0,0,.13-1.48c0-.39-.33-.43-.66-.4.06-.23.21-.51.14-.69a.91.91,0,0,0-.59-.39,1.54,1.54,0,0,0-.73.06A7.41,7.41,0,0,0,385,36.11c-.15.11-.34.24-.2.48"/><path class="cls-1" d="M406.42,26.46a3.94,3.94,0,0,0-.91,2.85,7.69,7.69,0,0,0,2.29-1.54,1.35,1.35,0,0,0,.28-1.75c-.92-.06-1.28,0-1.66.44"/><path class="cls-1" d="M410.57,25.39c.19-.54-.2-.78-.48-1a7.85,7.85,0,0,0-4.22-1.74L407,24.08l1.31.68a3.93,3.93,0,0,0,2.26.63"/><path class="cls-1" d="M407,24.08h0l0,0,0,0,0,.05h0l0-.05"/><path class="cls-1" d="M389.9,31c-.22.09-.46.2-.37.56a3.79,3.79,0,0,0,3.72-.08,3.32,3.32,0,0,1,.69-.24h0c-.67-1-1.1-1.23-2.21-.92a15.58,15.58,0,0,0-1.83.69"/><polyline class="cls-1" points="399.35 27.85 399.34 27.85 399.35 27.85"/><path class="cls-1" d="M397.26,32.35a7.56,7.56,0,0,0,1.44-1.5,2.75,2.75,0,0,0,.64-3c-.29.25-.57.51-.87.76a3.84,3.84,0,0,0-1.21,3.74"/><path class="cls-1" d="M392.16,36A9,9,0,0,0,394.05,33a1.94,1.94,0,0,0-.11-1.83c-1.7,1.63-2.22,3-1.78,4.77"/><path class="cls-1" d="M402.63,29.93a6.66,6.66,0,0,0,2.3-1.81,1.24,1.24,0,0,0,0-1.81c-1.7.59-2.15,1.3-2.26,3.62"/><path class="cls-1" d="M431,29.38h0a14.67,14.67,0,0,0,1.42.46,3.7,3.7,0,0,0,3.27-.74,6.55,6.55,0,0,0-2.94-.8A1.58,1.58,0,0,0,431,29.38"/><path class="cls-1" d="M410.62,25.84a1.64,1.64,0,0,0-1.62.87,3.21,3.21,0,0,0-.4,2.15,7,7,0,0,0,2.22-1.17,1.22,1.22,0,0,0,.44-1.33.65.65,0,0,0-.64-.52"/><path class="cls-1" d="M433,33.91a4.23,4.23,0,0,0-1.23-3.82l-.76-.7a4.4,4.4,0,0,0-.25,1.26A5.83,5.83,0,0,0,433,33.91"/><path class="cls-1" d="M439.4,34.82a.8.8,0,0,0-.53.45c-.05.17.16.41.26.63a3.55,3.55,0,0,0,3.31.86,2.6,2.6,0,0,0,.55-.33,8.23,8.23,0,0,0-2.71-1.53,2,2,0,0,0-.88-.08"/><path class="cls-1" d="M395.22,30.79a4.46,4.46,0,0,0-.59,3.25,4,4,0,0,0,1.08-1.19,11.75,11.75,0,0,0,1-1.69,1.23,1.23,0,0,0-.26-1.62l-.61.31c-.2.31-.4.62-.59.94"/><path class="cls-1" d="M433.77,31.23l0,0,0,0h0"/><path class="cls-1" d="M433.47,32.86c.45.93,1,1.84,1.49,2.74.08.14.27.22.5.42a4.9,4.9,0,0,0-1-4c-.22-.26-.45-.5-.67-.74a1.29,1.29,0,0,0-.29,1.62"/><path class="cls-1" d="M435.8,60.61a2.71,2.71,0,0,0,.79-2.83,4.48,4.48,0,0,0-2.84-3.16c-.06.44-.1.72-.14,1,.45.28.85.49,1.2.76a2.83,2.83,0,0,1,1.23,3c-.07.32-.13.64-.24,1.25"/><path class="cls-1" d="M414.14,26.2a5.16,5.16,0,0,1,.68-.4l-.46-1.65a2.41,2.41,0,0,1-.65.18,4.29,4.29,0,0,1-.87-.17,3.63,3.63,0,0,1-.08.79,5.46,5.46,0,0,1-.39.82,4.15,4.15,0,0,1,.66.36,7,7,0,0,1,.61.67,4.16,4.16,0,0,1,.5-.6"/><path class="cls-1" d="M415.69,64.71c1.57-1.49,1.68-3-.36-4.26-.48.28-.48.71-.37,1.2a3,3,0,0,0,.32.29,1.38,1.38,0,0,1,.63,1.92,4.6,4.6,0,0,0-.22.85"/><path class="cls-1" d="M437.23,81.3c-.14.06-.27.13-.4.2a1.4,1.4,0,0,0,1.08.17,10.41,10.41,0,0,0,1.37-.61,1.18,1.18,0,0,1,.87,0c.79.23.8.2,1.23-.72a2.41,2.41,0,0,0-2.38.15c-.57.32-1.18.57-1.77.85"/><path class="cls-1" d="M394.55,53a3.55,3.55,0,0,0-1.21-4.66.7.7,0,0,0,0,1.13,3.34,3.34,0,0,1,1.07,3.11c0,.12.08.25.14.42"/><path class="cls-1" d="M387,58.89a.67.67,0,0,0-.07-.11s-.09,0-.1,0a21.92,21.92,0,0,0-1.16,2.39,1,1,0,0,0,.64,1.43,1.22,1.22,0,0,0,.76-1.15c-.85-.49-.87-.5-.63-1.21.17-.47.37-.92.56-1.38"/><path class="cls-1" d="M435.21,74.45c.68-.36.56-1,.53-1.48a2.85,2.85,0,0,0-1.48-2.22c-.35.18-.33.48-.19.76a2.3,2.3,0,0,0,.47.57,2,2,0,0,1,.65,1.75,3.31,3.31,0,0,0,0,.62"/><path class="cls-1" d="M437.94,63.49c.05.3.36.57.59.82a.39.39,0,0,0,.64,0,.63.63,0,0,0,0-.54,5.66,5.66,0,0,0-.79-.62c.15-.94.28-1.72.41-2.49a3.3,3.3,0,0,0-.82,2.86"/><path class="cls-1" d="M422,81.09c1.21-1,1.17-1.64-.21-2.81a.56.56,0,0,0-.1.9A1.25,1.25,0,0,1,422,80.8a.74.74,0,0,0,0,.29"/><path class="cls-1" d="M390.53,85.05c1.19-1.11,1.13-1.74-.23-2.82a.68.68,0,0,0,0,1,1,1,0,0,1,.24,1.33,1.54,1.54,0,0,0,0,.45"/><path class="cls-1" d="M396.57,70a2.5,2.5,0,0,0-.38,1.89.7.7,0,0,0,1.16.42c.1-.08.24-.27.21-.36a.8.8,0,0,0-.34-.41,1.48,1.48,0,0,0-.49-.16c-.05-.42-.09-.76-.16-1.38"/><path class="cls-1" d="M421.74,50.47c.07-.4-.28-.75-.81-.74-.06.09-.22.23-.24.38-.06.41.27.67.77.61a.44.44,0,0,0,.28-.25"/><path class="cls-1" d="M440.09,99.84c-.19,0-.43.15-.79.29.43.57.61,1.16,1.15,1.54.64-.69.73-1,.36-1.39a1.36,1.36,0,0,0-.72-.44"/><path class="cls-1" d="M404.5,99.63h.31l.36,0,.19-.08a.58.58,0,0,0,.23-.21.86.86,0,0,0,.11-.32c.09-.5-.14-.75-1-1-.09.49-.2,1-.28,1.44a.41.41,0,0,0,0,.12.83.83,0,0,1,.08.12"/><path class="cls-1" d="M395.47,95.18c-.58,1.29-1.16,2.61-1.74,3.92.4.34.75.31,1,0a4.9,4.9,0,0,0,1.47-3.36c0-.35-.16-.68-.74-.6"/><path class="cls-1" d="M452.82,89.21a5.47,5.47,0,0,0,1.55,1.63l.49-.61a5.29,5.29,0,0,0-2-1"/><path class="cls-1" d="M391.56,107.24l.6.23a6.15,6.15,0,0,0,.63-2.25c-.84.81-1.37,1.63-1.23,2"/><path class="cls-1" d="M392.79,105.14v.08s0,0,0,0Z"/><path class="cls-1" d="M392.89,104.93a2,2,0,0,0-.1.21l0,0Z"/><path class="cls-1" d="M370.29,84.42h0v0h0v0L369,85a4.39,4.39,0,0,0-.82.38.49.49,0,0,0-.11.49c.07.11.39.23.48.16.57-.39,1.12-.83,1.66-1.28,0,0,0-.06,0-.11a.89.89,0,0,1,0-.15h0s0,0,.05,0"/><path class="cls-1" d="M370.44,84.48s-.05-.09-.08-.09a.15.15,0,0,0-.07,0l.15.06"/><path class="cls-1" d="M422.73,110.9l.83-.12a4.85,4.85,0,0,0-1.06-2.33c.07.79.15,1.58.23,2.45"/><path class="cls-1" d="M378.83,98.89l.58.55c.23-.3.43-.52.6-.75a5.23,5.23,0,0,0,.41-.63c.13-.22.42-.39.27-.83a17,17,0,0,0-1.86,1.66"/><path class="cls-1" d="M431.81,95.79a3.42,3.42,0,0,0,.64,2c.22-.17.37-.28.51-.4s0-.09.06-.22a1.7,1.7,0,0,1-.26-.38c-.23-.4-.42-.85-.95-1"/><path class="cls-1" d="M431.81,95.79h0v-.05h0l-.05,0s0,0,0,.08h0l0,0"/><path class="cls-1" d="M431.71,95.44l-.11.06c0,.07.1.12.16.19,0-.09,0-.17-.05-.25"/><path class="cls-1" d="M436.79,106l.73-.41a7.37,7.37,0,0,0-1.21-1.77c-.06-.07-.22-.06-.35-.08.26.72.53,1.45.83,2.26"/><path class="cls-1" d="M435.92,103.75h0v0a2.41,2.41,0,0,1-.08-.25,2.33,2.33,0,0,1,.05.28Z"/><path class="cls-1" d="M399.27,100.2a.78.78,0,0,0,.52-.1.59.59,0,0,0,.17-.39c.09-.63.16-1.26.24-1.89a5.39,5.39,0,0,0-1.12,2c0,.1.1.33.19.34"/><path class="cls-1" d="M413,7.62a.65.65,0,0,0-1.12.07,3.28,3.28,0,0,0-.21.82l1.61.33A1.22,1.22,0,0,0,413,7.62"/><path class="cls-1" d="M406.22,8c.23-.58,0-1-.63-1a6.57,6.57,0,0,0-1,.32l1.33,1.13a3.07,3.07,0,0,0,.35-.46"/><path class="cls-1" d="M399.14,10.74l-.58-1.16A2.2,2.2,0,0,0,397.51,11a2,2,0,0,0,1.63-.26"/><path class="cls-1" d="M380.58,20.52a1.4,1.4,0,0,0,1.25-.73,1.62,1.62,0,0,0-1.21-.74.61.61,0,0,0-.73.38,1.24,1.24,0,0,0,0,.83.81.81,0,0,0,.65.26"/><path class="cls-1" d="M446.45,21.88A2.71,2.71,0,0,0,447.7,20a1.08,1.08,0,0,0-1.42.16c-.33.35-.19.75-.08,1.14.05.14.12.27.25.57"/><path class="cls-1" d="M368.66,37.8c-.55-.13-.93-.6-1.49-.15.13.48.26.94.49,1.77.44-.72.69-1.13,1-1.62"/><path class="cls-1" d="M550,31a5.72,5.72,0,0,1,5.47-3.49c.76-3.33,3.17-5.19,5.93-7.08V77c0,1.27,0,1.27,1.31,1.27h10.72c0-.38.06-.69.06-1q0-7,0-14c0-2.48-1.16-4.36-3.07-5a13.92,13.92,0,0,0-1.49-.31,5.38,5.38,0,0,1,4.67-3.43,1.09,1.09,0,0,0,1.09-.94,9.86,9.86,0,0,1,4-5.08c.5-.38,1-.73,1.66-1.2v30.9h32.41c0-1.86,0-3.68,0-5.49,0-.69-.56-.48-.93-.48H591.53c0-.4,0-.72,0-1,.18-3.44.09-6.91.59-10.3,1.2-8.13,6.22-13.3,13.59-16.37,3.28-1.36,6.68-2.43,10-3.71a20.76,20.76,0,0,0,2.5-1.51,11.7,11.7,0,0,1,1.44-.6V40q0,22,0,44.06c0,.88-.22,1.13-1.12,1.13q-31.49,0-63,0c-.88,0-1.12-.23-1.12-1.12q0-23.81,0-47.61c0-1.84-.44-3.51-2.06-4.56A11.17,11.17,0,0,0,550,31m62.65,34.28v-16c-10.5,2.4-14.23,8.52-13.93,16Z"/><path class="cls-1" d="M822.61,85.21h-1.16c-13.79,0-27.58.07-41.37,0A26.28,26.28,0,0,1,767.19,82a13.76,13.76,0,0,1-7.11-9.81c-.26-1.34-.41-2.7-.54-4-.09-.85,0-.92,1.18-1.47a54.11,54.11,0,0,0,3.21,4.48,20.77,20.77,0,0,0,13.16,6.72,36.5,36.5,0,0,0,5.23.39c10.71,0,21.43,0,32.15,0h1.28c-.25-3.42.54-6.82-.89-10.07a6.41,6.41,0,0,0-5-3.82,27.28,27.28,0,0,0-4.93-.49c-7.59-.05-15.17.06-22.75-.06a20.09,20.09,0,0,1-9.59-2.2,9.51,9.51,0,0,1-5.06-8c-.31-3.31,1-6.13,2.38-9,.12-.24.6-.31,1-.49.16,1.42.28,2.67.44,3.92.74,5.5,4.28,7.73,9.1,8.51a41,41,0,0,0,6.37.37c6.94,0,13.88,0,20.82,0a20.07,20.07,0,0,1,6.68.93,11.06,11.06,0,0,1,6.75,6.33,21.19,21.19,0,0,1,1.53,8.09c0,3.87,0,7.74,0,11.61Z"/><path class="cls-1" d="M655,20.4c2.48,1.83,5,3.59,5.67,6.83A14.65,14.65,0,0,1,664,28.35a15.93,15.93,0,0,1,2.6,2.6,14.24,14.24,0,0,0-2.1.5c-2.13.89-2.74,2.74-2.76,4.81-.09,11.25-.19,22.5-.16,33.75A15.12,15.12,0,0,1,647,85.2c-2.61.08-5,.73-6.75,2.79-2.91,3.38-3.3,7.79,1,11a48.93,48.93,0,0,0,4.73,2.84.88.88,0,0,0,.69.06,16.6,16.6,0,0,0,6.76-4.69,7,7,0,0,0-.14-8.34c-.65-.77-1.38-1.48-2-2.14l4.24-2.09a4.41,4.41,0,0,0,.64-.42c1.33-1,1.32-1,2.48.28a11,11,0,0,1,2.88,7.17,24.4,24.4,0,0,1-.36,5.6c-.42,2.2-1.85,3.9-3.41,5.5-3,3.09-6.88,4.77-10.7,6.51a1.82,1.82,0,0,1-1.26,0,33.18,33.18,0,0,1-9-4.84c-5.59-4.55-7-10.43-4.23-16.85,2.28-5.33,6.66-8.29,12.4-9.15,1.23-.18,2.5-.11,3.7-.39a7.94,7.94,0,0,0,6.14-7.87V20.49Z"/><path class="cls-1" d="M509,57.05h19.71a10.35,10.35,0,0,0,2.37-.19c1.87-.5,3.66-1.14,4.48-3.18.09-.22.59-.35.92-.38.14,0,.44.34.45.54,0,2.74-.24,5.4-2,7.66a6,6,0,0,1-4.88,2.4c-3.71,0-7.42,0-11.13,0h-1.08a14.84,14.84,0,0,0,3.94,9.4,14.61,14.61,0,0,0,11.16,5h13.37a8,8,0,0,1-2.12,4.3,7.47,7.47,0,0,1-6,2.64c-8.12-.08-16.25-.1-24.38,0-4,.05-7.68-2.27-8-6.93h10.4a20.66,20.66,0,0,1-5.84-9.86A36.54,36.54,0,0,1,509,57.05"/><path class="cls-1" d="M669.15,104.57c-1.46-1.17-1.51-1.2-.87-2.7a54.72,54.72,0,0,0,3.59-12.34,41,41,0,0,0,.62-6.73q.16-23.07.17-46.13a8.52,8.52,0,0,0-.85-3.37,3.81,3.81,0,0,0-3.73-2.08,5.23,5.23,0,0,1,4.45-3.52,1.38,1.38,0,0,0,1.41-1.17c.6-2.08,2.15-3.5,3.79-4.79.52-.41,1.07-.78,1.75-1.28,0,.5.07.83.07,1.16,0,19,.05,38,0,56.92a41.54,41.54,0,0,1-2,13.44,30.17,30.17,0,0,1-6,10c-.75.86-1.51,1.71-2.3,2.6"/><path class="cls-1" d="M737.57,104.58c-1.49-1.2-1.44-1.18-.88-2.76,1-2.91,2.08-5.8,2.86-8.77a36.21,36.21,0,0,0,1.09-6.94c.92-15.59.2-31.19.41-46.79a23.67,23.67,0,0,0-.16-4.3,4.13,4.13,0,0,0-4.27-3.8,4.88,4.88,0,0,1,4.26-3.51,1.54,1.54,0,0,0,1.53-1.3c.72-2.26,2.45-3.73,4.3-5.07l1.17-.84c0,.43.06.73.06,1,0,19,0,38.07,0,57.11a41.69,41.69,0,0,1-2,13.33,29.5,29.5,0,0,1-6,10l-2.29,2.6"/><path class="cls-1" d="M720.23,58a5.52,5.52,0,0,1,4.85-3.47,1.06,1.06,0,0,0,.8-.57c.66-2.54,2.46-4.17,4.43-5.68.37-.28.76-.54,1.3-.91,0,.46.07.78.07,1.11,0,11.16.12,22.33,0,33.49a27.64,27.64,0,0,1-5.45,16.7,23.19,23.19,0,0,1-9.92,7.47,41.62,41.62,0,0,1-11.85,2.79,6.49,6.49,0,0,1-.79,0,17.26,17.26,0,0,1,0-2.28c0-.25.45-.55.76-.64a37.4,37.4,0,0,0,8.75-4,24.26,24.26,0,0,0,10.7-13.54,19.79,19.79,0,0,0,.86-5.62c.11-6.52,0-13,0-19.58,0-2.43-1-4.17-2.93-4.87a11.29,11.29,0,0,0-1.61-.36"/><path class="cls-1" d="M641.34,76.89l-6.7,3.46a11.24,11.24,0,0,1-3.23-7.77c-.24-8.11-.27-16.22-.36-24.33,0-4,0-8.06,0-12.1,0-2.06-.68-3.83-2.75-4.7a10.54,10.54,0,0,0-1.78-.42,5.62,5.62,0,0,1,5.54-3.58c.6-3.37,3.18-5.16,5.89-7.19v1.27c0,15.77,0,31.54,0,47.31,0,1.88,0,3.86,1.12,5.52a24.18,24.18,0,0,0,2.26,2.53"/><path class="cls-1" d="M634,113.85c2.68,0,5.08-.1,7.46,0a4.75,4.75,0,0,1,3.75,2.46l-2.29,2.24c-1.19-1.11-2.73-1.07-4.29-1a3,3,0,0,0,3,3.81h4.31c.3,0,.6,0,1.21.07-.76,1.11-1.34,2-2,2.89a1.53,1.53,0,0,1-1.1.41c-3.36,0-6.71,0-10.06,0a1.43,1.43,0,0,1-1.06-.58c-.49-.81-.86-1.71-1.36-2.77h3.09c-.21-2.59-.42-5.1-.62-7.58"/><path class="cls-1" d="M584.13,38.73a3.53,3.53,0,0,1-3.51,3.45A3.63,3.63,0,0,1,577,38.75a3.85,3.85,0,0,1,3.55-3.58,3.69,3.69,0,0,1,3.6,3.56"/><path class="cls-1" d="M568.84,38.67a3.52,3.52,0,1,1,7,.11,3.52,3.52,0,0,1-7-.11"/><path class="cls-1" d="M603.56,36.74A3.4,3.4,0,0,1,600,33.42a3.57,3.57,0,0,1,3.46-3.62,3.68,3.68,0,0,1,3.64,3.55,3.46,3.46,0,0,1-3.52,3.39"/><text class="cls-2" transform="translate(0 161.57)">T</text><text class="cls-2" transform="translate(23.74 161.57)">h</text><text class="cls-2" transform="translate(47.48 161.57)">e </text><text class="cls-2" transform="translate(81.5 161.57)">C</text><text class="cls-2" transform="translate(108.56 161.57)">o</text><text class="cls-2" transform="translate(132.3 161.57)">m</text><text class="cls-2" transform="translate(164.34 161.57)">p</text><text class="cls-2" transform="translate(188.08 161.57)">l</text><text class="cls-2" transform="translate(201.89 161.57)">e</text><text class="cls-2" transform="translate(223.99 161.57)">t</text><text class="cls-2" transform="translate(241.26 161.57)">e </text><text class="cls-2" transform="translate(278.24 161.57)">S</text><text class="cls-2" transform="translate(303.65 161.57)">o</text><text class="cls-2" transform="translate(327.39 161.57)">l</text><text class="cls-2" transform="translate(341.19 161.57)">u</text><text class="cls-2" transform="translate(364.93 161.57)">t</text><text class="cls-2" transform="translate(380.38 161.57)">i</text><text class="cls-2" transform="translate(394.19 161.57)">o</text><text class="cls-2" transform="translate(417.93 161.57)">n </text><text class="cls-2" transform="translate(456.3 161.57)">f</text><text class="cls-2" transform="translate(471.75 161.57)">o</text><text class="cls-2" transform="translate(495.49 161.57)">r </text><text class="cls-2" transform="translate(529.06 161.57)">i</text><text class="cls-2" transform="translate(542.86 161.57)">s</text><text class="cls-2" transform="translate(564.97 161.57)">l</text><text class="cls-2" transform="translate(578.77 161.57)">a</text><text class="cls-2" transform="translate(600.88 161.57)">m</text><text class="cls-2" transform="translate(632.92 161.57)">i</text><text class="cls-2" transform="translate(646.73 161.57)">c </text><text class="cls-2" transform="translate(681.2 161.57)">Q</text><text class="cls-2" transform="translate(709.92 161.57)">u</text><text class="cls-2" transform="translate(733.66 161.57)">e</text><text class="cls-2" transform="translate(755.77 161.57)">r</text><text class="cls-2" transform="translate(772.9 161.57)">i</text><text class="cls-2" transform="translate(786.7 161.57)">e</text><text class="cls-2" transform="translate(808.81 161.57)">s</text></g></g></svg>