<svg xmlns="http://www.w3.org/2000/svg" viewBox="0 0 940.05 196.8"><defs><style>.cls-1,.cls-2{fill:#235775;}.cls-2{font-size:33.98px;font-family:Arial-BoldMT, Arial;font-weight:700;}</style></defs><title>Asset 2</title><g id="Layer_2" data-name="Layer 2"><g id="Layer_1-2" data-name="Layer 1"><path class="cls-1" d="M88.15,49.14c-.2-1.53-.28-3.08-.54-4.61a37.67,37.67,0,0,0-2.43-8.37A29.56,29.56,0,0,0,82,30.69a21.62,21.62,0,0,0-4.27-4.43,14,14,0,0,0-5.51-2.51,16.42,16.42,0,0,0-3.35-.66,17.75,17.75,0,0,0-7.78,1.76,6.24,6.24,0,0,0-1.32.77A23,23,0,0,0,52,36.06a38.42,38.42,0,0,0-1.62,5,21.42,21.42,0,0,0-.92,5.2,1.46,1.46,0,0,1-.07.51A11.65,11.65,0,0,0,49,50.39q0,26.76,0,53.53c0,.57,0,1.13.07,1.74a4.91,4.91,0,0,0,1.08.26c2,0,4,0,6,0a4.77,4.77,0,0,0,1.16-.33c0-.71.05-1.33.05-2q0-19.09,0-38.2c0-1-.09-2.07-.09-3.1,0-3,.09-6,.09-8.93a43.21,43.21,0,0,1,.39-6.53,22.15,22.15,0,0,1,3-8.36c1.26-2,2.87-3.73,5.45-4.07a2.32,2.32,0,0,0,.47-.19,7.75,7.75,0,0,1,3.91-.15,7,7,0,0,1,2.42.78,11.71,11.71,0,0,1,4.87,5.4,25.94,25.94,0,0,1,2.13,8.6c.22,2.39.12,4.81.15,7.22a8.26,8.26,0,0,1-.15,1c-.36,0-.63.07-.91.07H61.29a12,12,0,0,0-1.2,0c-.65,0-.91.32-1,1a8.14,8.14,0,0,0,0,.86V67a8.33,8.33,0,0,0,0,.86,1.08,1.08,0,0,0,1,1.05,9.94,9.94,0,0,0,1.54.08l17,0c.44,0,.93-.15,1.39.36.09,1.61,0,3.33,0,5s0,3.56,0,5.34V95.15c0,1.78,0,3.56,0,5.34a45.6,45.6,0,0,0,.1,5.21,6.8,6.8,0,0,0,1.18.23,55.56,55.56,0,0,0,7-.17v-3.11q0-23.24,0-46.48a53.34,53.34,0,0,0-.23-7"/><path class="cls-1" d="M44.2,55.21c-.3-1.45-.7-2.89-.87-4.36A20.24,20.24,0,0,0,42,46.1a38.28,38.28,0,0,0-4.15-8.26,47.67,47.67,0,0,0-5-6.33,20.92,20.92,0,0,0-7-4.88C24.27,26,22.78,25.12,21,25.2a1.2,1.2,0,0,1-.5-.09,7.85,7.85,0,0,0-3.22-.42l-15,0a2.52,2.52,0,0,0-.72.27c0,.8,0,1.6,0,2.39V95.82c0,2.87,0,5.74,0,8.61a10.07,10.07,0,0,0,.14,1.27,44.15,44.15,0,0,0,7.65.2,3.7,3.7,0,0,0,.86-.28c.07-2.16,0-4.28,0-6.4s0-4.24,0-6.36V48.62c0-2.12,0-4.25,0-6.37s-.1-4.22.08-6.31a1.83,1.83,0,0,1,.56-.19c1.9.07,3.78.15,5.67.24a16.87,16.87,0,0,0,2.23.13c1.49-.12,2.77.66,4.18.82,2.22,1.21,4.42,2.41,5.95,4.54a37.63,37.63,0,0,1,2.28,3.42A31.08,31.08,0,0,1,34,51.49a37.7,37.7,0,0,1,1.1,4.84,39.36,39.36,0,0,1,.6,6.66,51.8,51.8,0,0,1-1.43,13.12c-.45,1.65-.88,3.32-1.46,4.93A32.11,32.11,0,0,1,28,89.71a11.66,11.66,0,0,1-10.93,4.75,31.76,31.76,0,0,0-3.78,0c-.69,0-.92.29-1,1,0,.23,0,.46,0,.69,0,2.81,0,5.62,0,8.43,0,.4.08.79.11,1.12a2.34,2.34,0,0,0,1.57.33c1.2,0,2.41-.06,3.61,0,2,.13,3.95-.53,5.91-.88a7.27,7.27,0,0,0,2.09-.71,21.24,21.24,0,0,0,7-5.37c.77-1,1.6-2,2.34-3a40.52,40.52,0,0,0,4.67-8,66.66,66.66,0,0,0,3-8.36,53.36,53.36,0,0,0,1.23-6.19,31.38,31.38,0,0,0,.45-4.42,4,4,0,0,1,.19-.83,7.24,7.24,0,0,0,.17-1c.24-3.9-.27-7.77-.45-11.66,0-.11,0-.23,0-.34"/><path class="cls-1" d="M362.57,49c-.42-1.78-.63-3.59-.95-5.38-.08-.45-.23-.89-.33-1.34a21.32,21.32,0,0,0-.58-2.66A33.59,33.59,0,0,0,357.1,32c-2.27-3.37-4.93-6.31-8.86-7.77a17.11,17.11,0,0,0-5-1.16,20.44,20.44,0,0,0-4.74.66,11.59,11.59,0,0,0-4.5,1.9,20.93,20.93,0,0,0-7.13,8.65,29.32,29.32,0,0,0-2.19,6.27c-.17.78-.32,1.57-.56,2.33a24.09,24.09,0,0,0-.8,4.9c-.17,1.76-.14,3.55-.14,5.33q0,23.92,0,47.86c0,1.15,0,2.3,0,3.44a9.68,9.68,0,0,0,.22,1.31,13.27,13.27,0,0,0,3.85.19,11.28,11.28,0,0,0,3.92-.24,9,9,0,0,0,.19-1c0-1.14,0-2.29,0-3.44q0-13,0-26c0-1-.09-1.95-.09-2.92,0-2.24.08-4.47.09-6.7,0-4.42-.07-8.84,0-13.25.09-4.62.79-9.1,3.14-13.23a11.86,11.86,0,0,1,3.89-4.19c.65-.43,1.36-.22,1.95-.53a6.91,6.91,0,0,1,4.06-.34,7.69,7.69,0,0,1,2.73.86,11.31,11.31,0,0,1,4.66,5.14c1.61,3.16,2.07,6.65,2.38,10.13.18,2,.08,4,.08,6a5.32,5.32,0,0,1-.18,1H343.92c-1.66,0-3.33,0-5,0s-3.43-.08-5,.06a2.16,2.16,0,0,0-.57,1.88c0,2.64,0,5.28,0,7.92a5.3,5.3,0,0,0,0,.69c.08.8.38,1.12,1.19,1.19.45,0,.92,0,1.38,0h6.88l10.5,0a5.76,5.76,0,0,1,.94.15c0,.27.07.44.07.61q0,17.3,0,34.6a13.68,13.68,0,0,0,.15,1.43,8.39,8.39,0,0,0,1.39.21,46,46,0,0,0,6.69-.19c0-.74.06-1.3.06-1.87V50.15a5.33,5.33,0,0,0,0-1.2"/><path class="cls-1" d="M132,77.69a45.59,45.59,0,0,0-1.51-6.15,13.71,13.71,0,0,0-4.12-6.4c-.31-.24-.65-.47-1.15-.84a14.24,14.24,0,0,0,4.69-7.1c.31-1,.47-2,.72-3a30.51,30.51,0,0,0,.86-7.31,37.67,37.67,0,0,0-.3-5,23.66,23.66,0,0,0-1.06-4.49c0-.1,0-.22-.08-.33a25.27,25.27,0,0,0-1.55-3.62,34.56,34.56,0,0,0-4.17-5.66,10.92,10.92,0,0,0-4.74-3.28c-.72-.62-1.72-.55-2.52-1a4.49,4.49,0,0,0-2-.45,9.34,9.34,0,0,0-3.06.29,21.25,21.25,0,0,0-4.26,1.19,18.76,18.76,0,0,0-3.28,1.82,22.28,22.28,0,0,0-6.7,8.78,45.59,45.59,0,0,0-2,6.36c-.26,1-.37,2.13-.53,3.2s-.3,2-.43,3.05a13.35,13.35,0,0,0-.14,1.54c0,2.69-.06,5.39-.06,8.09q0,23.58,0,47.15c0,.34,0,.68.07,1a2.9,2.9,0,0,0,.66.25q3.2,0,6.37,0a4,4,0,0,0,1-.24,4.73,4.73,0,0,0,.22-2.25q0-26.34,0-52.67a28.63,28.63,0,0,1,.68-6.28,16.62,16.62,0,0,1,3.5-7,7.54,7.54,0,0,1,5.73-2.66,17.82,17.82,0,0,1,3.73.52,2.66,2.66,0,0,1,.65.23,10.23,10.23,0,0,1,6,9.27,23.14,23.14,0,0,1-.31,6,13.65,13.65,0,0,1-1.26,4.05,13.3,13.3,0,0,1-5,4.87,2.17,2.17,0,0,1-.64.19,13.38,13.38,0,0,0-2,.41c-.82.29-1.4-.46-2.15-.36-.11,0-.23,0-.34,0-1.67,0-3.33,0-5,0a4.28,4.28,0,0,0-.75.13,2.34,2.34,0,0,0-.47,1.87q0,3.34,0,6.71a6.88,6.88,0,0,0,.12,1.36.91.91,0,0,0,1,.76c1.21-.24,2.39.16,3.58.14a32.39,32.39,0,0,1,3.27,0,13,13,0,0,1,5.14,1.09,9,9,0,0,1,3.64,3,11.53,11.53,0,0,1,1.76,6.17v23.07c0,.44,0,.89.07,1.34a3.23,3.23,0,0,0,.73.24c2.12,0,4.24,0,6.36,0,.79,0,1-.29,1.08-1,0-.28,0-.57,0-.86V78.89a6,6,0,0,0-.06-1.2"/><path class="cls-1" d="M177.74,27.33a13.9,13.9,0,0,0-.12-1.71,1,1,0,0,0-.92-.87,6.11,6.11,0,0,0-.86-.05h-5.33c-.45,0-.9.11-1.54.19a12,12,0,0,0-.25,1.66c-.05,1.54-.07,3.09-.07,4.64,0,13.19,0,26.38,0,39.58,0,4.07.17,8.14-.14,12.21a21.38,21.38,0,0,1-.85,4.51,22.45,22.45,0,0,1-1.25,3.38,10,10,0,0,1-3.78,4.55,14.39,14.39,0,0,1-2.28.68c-1.92.8-3.69.1-5.47-.53a7.49,7.49,0,0,1-2.59-1.93,10.61,10.61,0,0,1-2.61-4,22.81,22.81,0,0,1-1.53-6.82c-.09-1.89-.47-3.75-.46-5.65q0-25.31,0-50.6c0-.23,0-.46,0-.68-.06-.9-.26-1.13-1.12-1.19-.57,0-1.15,0-1.72,0-1.49,0-3,0-4.48,0-1.1,0-1.4.33-1.49,1.44,0,.4,0,.8,0,1.21q0,26.32,0,52.65a41.18,41.18,0,0,0,1.34,10.19,24.56,24.56,0,0,0,7.16,12.09,12.58,12.58,0,0,0,3.38,2.59c1.2.54,2.36,1.16,3.55,1.71a2.07,2.07,0,0,0,.83.14c2.18,0,4.36,0,6.54,0a1.65,1.65,0,0,0,1-.23,5.29,5.29,0,0,1,1.56-.68,13.68,13.68,0,0,0,3.37-1.65,22.12,22.12,0,0,0,6.94-8.38,23.87,23.87,0,0,0,1.87-5.47,28.08,28.08,0,0,0,.91-5.9,4.72,4.72,0,0,1,.12-1.19,16.61,16.61,0,0,0,.36-4.1q0-19.53,0-39.07,0-6.36,0-12.73"/><path class="cls-1" d="M281.56,61.7a3.21,3.21,0,0,0-.05-.69,1.1,1.1,0,0,0-1.17-1c-.68,0-1.37,0-2.06,0-5.1,0-10.21,0-15.31,0h-1.2v-.89c0-1.6.08-3.2.1-4.8,0-1.95-.06-3.9,0-5.84a26.71,26.71,0,0,1,1-5.74,9,9,0,0,1,5.25-5.79,15.59,15.59,0,0,1,6.49-1.33c1.78,0,3.56,0,5.33,0,1.26,0,1.61-.45,1.6-1.71,0-2.29,0-4.59,0-6.88,0-.23,0-.46,0-.69-.09-1.1-.57-1.54-1.66-1.51l-1.54.08a8.3,8.3,0,0,0-2.89.28,2.71,2.71,0,0,1-.86.06c-1.14,0-2.29.09-3.43,0a12.53,12.53,0,0,0-4.83,1.07,20.23,20.23,0,0,0-5.07,2.79,13.64,13.64,0,0,0-4.79,5.74,28.21,28.21,0,0,0-2.28,9.08,2.68,2.68,0,0,1-.11.85A9.26,9.26,0,0,0,253.7,48c0,1.78,0,3.56,0,5.33q0,16.53,0,33c0,5.85,0,11.7,0,17.55a3.92,3.92,0,0,0,.21,1.81c.16.07.26.16.37.16,2.23,0,4.46.06,6.7,0,.53,0,.78-.32.81-.92.07-1.2.14-2.4.13-3.6-.07-9.92.19-19.85-.15-29.76a4,4,0,0,1,.14-.79,3.94,3.94,0,0,1,1.93-.19h15.49c.46,0,.92,0,1.37,0,.68,0,.87-.27.91-1V61.7"/><path class="cls-1" d="M319.59,24.72a8.29,8.29,0,0,0-.86,0H285.86a3.92,3.92,0,0,0-1.19.1.88.88,0,0,0-.55.56,8.94,8.94,0,0,0-.18,1.71c0,1.66,0,3.32,0,5,0,.57,0,1.15,0,1.72a3.08,3.08,0,0,0,.43,1.78c2.14,0,4.37,0,6.59,0s4.44-.09,6.77.07c0,.71.07,1.33.08,1.94v66.26a3.82,3.82,0,0,0,.17,1.84,2.77,2.77,0,0,0,1.69.27q2.58,0,5.16,0a8.87,8.87,0,0,0,1,0c.57-.06.84-.29.9-.85a20.41,20.41,0,0,0,.09-2.06q0-30.9,0-61.78c0-.64,0-1.27,0-1.9s0-1.14,0-1.72,0-1.22,0-2c.67,0,1.23-.08,1.79-.08h10.5c.44,0,.93.12,1.3-.32a1.64,1.64,0,0,0,.12-.46c0-3,0-6,0-9,0-.79-.28-1-1-1.1"/><path class="cls-1" d="M212.16,95.34c-1.9,0-3.72,0-5.54,0-1.2,0-2.41.08-3.61.08a7.7,7.7,0,0,1-5.44-2.52,9.31,9.31,0,0,1-2.11-4.26,38.44,38.44,0,0,1-1.43-11q0-24.51,0-49c0-.57,0-1.15,0-1.72s-.18-1.22-.27-1.88a9.4,9.4,0,0,0-1.24-.27,28,28,0,0,0-6.38.24,3.75,3.75,0,0,0-.23,2q0,29.16,0,58.32c0,1.92.68,3.72.71,5.61.84,2.72,1.65,5.45,3.48,7.73s3.43,4.3,5.91,5.64a12.06,12.06,0,0,0,5.49,1.71c3.16,0,6.31,0,9.47,0a1.62,1.62,0,0,0,1.39-.48c.15-3,.07-6.17,0-9.31a3.13,3.13,0,0,0-.21-.81"/><path class="cls-1" d="M246.49,25.75a4,4,0,0,0-.18-.76,26.84,26.84,0,0,0-6.75-.27,3.54,3.54,0,0,0-.86.24,4.7,4.7,0,0,0-.44,2.79q0,37.75,0,75.51c0,.4,0,.8,0,1.2a1.63,1.63,0,0,0,.57,1.35,29.28,29.28,0,0,0,7.58-.16,4.11,4.11,0,0,0,.17-.79c0-1.61,0-3.21,0-4.81q0-35.08,0-70.18c0-1.38-.06-2.75-.11-4.12"/><path class="cls-1" d="M461,113.48h0"/><path class="cls-1" d="M461.67,113.35l-.22.08.22-.08"/><path class="cls-1" d="M421.72,96.15l-.05,0h0l.05,0"/><path class="cls-1" d="M491.55,108.77l.18.21-.18-.21"/><polygon class="cls-1" points="421.67 96.19 421.68 96.14 421.67 96.19 421.67 96.19"/><path class="cls-1" d="M491.73,109l-.06-.29.06.29"/><path class="cls-1" d="M492.87,110.29c-.26-.46-.48-1-1.08-1.2h0c.6.22.82.74,1.08,1.2"/><polygon class="cls-1" points="463.58 86.32 463.55 86.37 463.58 86.32 463.58 86.32"/><path class="cls-1" d="M486.42,87.82l.17,0-.17,0"/><path class="cls-1" d="M421.69,96.37s0,.11,0,.12,0-.07,0-.12"/><path class="cls-1" d="M496.92,118.26c-.08-.09-.27-.07-.41-.11h0c.15,0,.34,0,.41.1"/><path class="cls-1" d="M516.64,74.79c-.4,0-.79.07-1.28.12-.19.78-.33,1.39-.47,2a44.82,44.82,0,0,1-13.4,23,2.67,2.67,0,0,1-2,.78c-1.09,0-2.19,0-3.27-.11a2.71,2.71,0,0,0-1.94.5c-.18.13-.38.24-.58.36a44.74,44.74,0,0,1-22.4,6.34,46.6,46.6,0,0,1-12.11-1.3,43.68,43.68,0,0,1-12.77-5.38,3.58,3.58,0,0,0-2.43-.58c-.85.09-1.72.09-2.57.18a3,3,0,0,1-2.46-1,44.78,44.78,0,0,1-13.28-23,5.72,5.72,0,0,0-.53-1.76c-1.64-.22-19.67-.2-21.06,0v.77a4,4,0,0,0,1.92.19h16.36a3.55,3.55,0,0,1,1.83.18c.52,1.85,1,3.69,1.58,5.48a45.87,45.87,0,0,0,8.1,14.48c1.16,1.44,2.45,2.78,3.8,4.3A6,6,0,0,1,433.44,98a48.65,48.65,0,0,1-9.83-19.12c-.11-.42-.29-.83-.46-1.31H405a2.73,2.73,0,0,0-.72.2,20.24,20.24,0,0,0,.68,3.91A67,67,0,0,0,440,126.79a66.1,66.1,0,0,0,24.31,7,64.37,64.37,0,0,0,9.11.17,68,68,0,0,0,10.07-1.21,67.2,67.2,0,0,0,52.55-53,6,6,0,0,0,.21-2,7.9,7.9,0,0,0-.93-.11H518.31a5.18,5.18,0,0,0-1,.18c-.14.5-.28.93-.39,1.37A48.31,48.31,0,0,1,507,98.21a5.6,5.6,0,0,1-2.83,1.85,3.65,3.65,0,0,1-.89,0c1.59-1.86,3.16-3.53,4.53-5.35s2.59-3.79,3.77-5.75a32.58,32.58,0,0,0,2.91-6.42c.72-2.15,1.33-4.34,2-6.62h17.91c.51,0,1,0,1.55,0s.58-.19.43-1c-1.57-.22-12.12-.3-19.77-.14M457.07,109.5a44.1,44.1,0,0,1-.61,7.68l-1.17-.29c-.06-.44-.12-.82-.19-1.3l-1.33-.44-.76,1-1.15-.31a39.37,39.37,0,0,1,3.82-6.72A2.29,2.29,0,0,1,457.07,109.5Zm-38.85-8.36-.73-1.17.91-1-.67-1.17-1.26.2c-.18-.35-.36-.69-.53-1,.12-.15.17-.28.25-.31l6.91-2a2.23,2.23,0,0,1,.59,0l.64,1.06c-.07.18-.08.33-.15.39q-2.46,2.14-4.94,4.26C418.94,100.61,418.61,100.84,418.22,101.14Zm3,4.07a18,18,0,0,1-1.89-2.56c2.18-1.61,4.33-3,6.53-4.53l.93,1.15-5.47,3.82c.26.51.49,1,.76,1.46Zm3.67-1.13,1.37,1.63-.92.79a4.92,4.92,0,0,1-1.33-1.77Zm.29,6c-.19-.42-.16-.79.12-.92a.92.92,0,0,1,1,0c.79.57.82.58,1.32.13,1.14-1,2.25-2.09,3.38-3.14l.84-.71,1,1-3.56,3.33A10.58,10.58,0,0,1,428,111,1.75,1.75,0,0,1,425.17,110.1Zm6.6,6.32c-.34-.32-.62-.59-.91-.85l.51-1.27-.81-.87-1.4.61-.75-.75c0-.44,3.22-2.77,6.41-4.8l1.07.8c0,.23,0,.37,0,.45q-1.78,3.11-3.61,6.2C432.17,116.12,432,116.23,431.77,116.42Zm6.43,4.31-1-.49c0-.21-.07-.34,0-.42l1.9-2.93c-.51-.1-.67.24-.89.42s-.42.4-.64.59-.51.43-.75.63c-.87-.36-1-.51-.83-1a12.28,12.28,0,0,0,.73-2.63l-2.27,3.42-1-.59a39.84,39.84,0,0,1,4.44-6.62l1.09.69a2,2,0,0,1,0,.56c-.5,1.32-1,2.64-1.65,4.26a10.74,10.74,0,0,0,2-1.65c.61-.52,1.19-1.07,1.85-1.66l1.35.88C441.15,116.42,439.69,118.52,438.2,120.73Zm2,1.3c-.06-.39,2.25-5,3.56-7l1.23.64-3.5,6.8A1.1,1.1,0,0,1,440.21,122Zm8.88-3.6a38.91,38.91,0,0,1-1.89,7.12l-1.1-.5c0-.44.09-.82.13-1.28l-1.18-.61-1,.86-1-.42c0-.18,0-.32,0-.39,1.54-2,3.1-4.08,4.71-6.19l1.33.55A4.86,4.86,0,0,1,449.09,118.43Zm-1-4.19-.94-.4a4.48,4.48,0,0,1-.5-.34,14.7,14.7,0,0,1,1.33-3.42c.49-1.15,1-2.28,1.56-3.53a5.19,5.19,0,0,1,2.21.9,2.26,2.26,0,0,1,1,2.52,8,8,0,0,1-1.54,3.4A2.39,2.39,0,0,1,448.08,114.24Zm2.73,12.58-1.21-.36c.41-2.14,1.4-4,2-6.15l-.85-.84c.1-.27.22-.57.37-1a16,16,0,0,1,3.39,1.2c-.14,1-.14,1-1.36,1.12C452.21,122.68,451.77,124.77,450.81,126.82Zm6.81,1.9-1.32-.38c.23-1.11.44-2.16.69-3.32l-.92-.37c-.69,1-.53,2.28-1.11,3.36l-1.11-.19a33.88,33.88,0,0,1,1.69-7.79l1.11.28a3.47,3.47,0,0,1-.17,1.78,2.49,2.49,0,0,0-.13.84.75.75,0,0,0,.35.5.48.48,0,0,0,.7-.26,8.46,8.46,0,0,0,.29-1c.12-.44.25-.88.36-1.28.49-.36.89-.15,1.41.09C458.92,123.58,458.35,126.12,457.62,128.72Zm1.86-10.85-1-.17a13.3,13.3,0,0,1,.45-3.75c.17-1.24.43-2.47.66-3.74a5.84,5.84,0,0,1,2.57.37,2.13,2.13,0,0,1,.94,3.48,9.31,9.31,0,0,1-1,.84c.18,1.06.36,2.17.53,3.23a1.1,1.1,0,0,1-1.34,0c-.12-.46-.25-1-.39-1.54a3.43,3.43,0,0,0-.56-1.77c-.24,1.13-.43,2-.61,2.88C459.57,117.8,459.52,117.87,459.48,117.87Zm5.37,5.18c-.23,1.7-.38,3.42-.75,5.1a1.94,1.94,0,0,1-2.82,1.35,1.76,1.76,0,0,1-1.15-1.39,3.47,3.47,0,0,1-.05-.85c.15-1.94.37-3.87.72-5.9l1.32.09a8.71,8.71,0,0,1,0,1c-.16,1.31-.35,2.61-.5,3.92a7,7,0,0,0,0,1.37.7.7,0,0,0,.41.48.54.54,0,0,0,.66-.4,5.55,5.55,0,0,0,.21-1c.19-1.42.37-2.84.56-4.26,0-.28.11-.55.19-.92l1.25.15A10,10,0,0,1,464.85,123.05Zm0-5.31a5.13,5.13,0,0,1-.19-1.51c.06-1.43.19-2.85.31-4.28a5.16,5.16,0,0,1,.21-.87l1.14,0c.09.18.19.28.19.37-.09,1.48-.2,3-.27,4.45a6.76,6.76,0,0,0,.07,1.35.45.45,0,0,0,.35.3c.2,0,.52-.1.57-.23a7,7,0,0,0,.33-1.49c.08-.8.08-1.6.15-2.4s.17-1.46.27-2.35l1.3.19a7.75,7.75,0,0,1,.08.88c-.11,1.48-.22,3-.35,4.45a4.89,4.89,0,0,1-.17.83,2.13,2.13,0,0,1-3.43,1.09A1.71,1.71,0,0,1,464.87,117.74Zm3.65,12.31c-.68,0-1.35,0-2.25-.07,0-.94,0-1.68,0-2.41,0-1.54.07-3.08.15-4.61.05-1.1.21-1.18,1.51-.73-.07,2-.15,4.13-.24,6.31l1.62.33c0,.37.05.69.07,1.06A6,6,0,0,1,468.52,130.05Zm21.84-23.49c.24-.14.51-.24,1-.44,1.72,2,3.29,4,4.9,6.06-.28.2-.4.31-.54.39s-.41.19-.62.29a4.62,4.62,0,0,0-1.15-.68c-.27-.06-.62.21-1,.35,0,.23-.08.44-.09.66s0,.45,0,.74l-1,.45c-.45-.32-1.7-5.58-1.85-7.51A2.77,2.77,0,0,1,490.36,106.56Zm-2.16,1.06.44.88-.86.76c0,.1-.07.23,0,.32.48,1.29,1,2.56,1.48,3.85.2.53.39,1.06.56,1.55a1.14,1.14,0,0,1-1.35.55l-2.27-5.64L485,110l-.39-1A15.94,15.94,0,0,1,488.2,107.62Zm-4.27,1.65.28.94-1.54.66c.13.53.24,1,.37,1.57l1.68-.22c.07.23.27.51.2.72s-.35.4-.57.53a6.1,6.1,0,0,1-.87.34c.25,1.09.49,2.13.74,3.25l-1.13.32c-.15-.14-.27-.2-.31-.3-.75-2.26-1.34-4.57-1.93-7A8.43,8.43,0,0,1,483.93,109.27ZM471.17,119a12.36,12.36,0,0,1-.36-3.9,23.22,23.22,0,0,1,0-3.82l1.1-.07c.09.18.23.32.23.47.09,1.48.16,3,.24,4.46,0,.45.08.9.13,1.45l1.47.18a.75.75,0,0,1,.07,1A8.59,8.59,0,0,1,471.17,119Zm6.44,10.73c-.48-1.06-.94-2.07-1.42-3.11-.48.28-.26.64-.28.94s0,.69,0,1,0,.67,0,1.12l-1.26.11c-.49-2.6-.45-5.17-.75-7.82l1.17-.18c.14.16.27.24.28.33.11.77.2,1.54.33,2.57a4.94,4.94,0,0,0,.47-.73c.17-.49.29-1,.46-1.48.29-.86.35-.88,1.66-.76a23,23,0,0,1-.74,2.26,2.67,2.67,0,0,0,.11,2.46c.47.91.84,1.87,1.36,3Zm1.54-12.08c-.39-2.31-1-4.58-1.22-7l1.15-.2c.48.39,1.38,5.07,1.5,7.49l-1.11.18C479.33,117.88,479.17,117.75,479.15,117.61Zm4.49,11.06-.83-1.13-1.27.16-.22,1.24-1,.3c-.12-.15-.25-.23-.26-.31-.08-2.57,0-5.13.07-7.72l1.35-.41a39.65,39.65,0,0,1,3.32,7.44Zm6.35-2.9a1.9,1.9,0,0,1-1.64,1.74,1.77,1.77,0,0,1-2.08-.81,5.89,5.89,0,0,1-.5-1.08c-.17-.49-.3-1-.44-1.48-.35-1.26-.69-2.53-1.08-3.94l1.2-.43a5.32,5.32,0,0,1,.45.89c.39,1.31.73,2.65,1.12,4a8.2,8.2,0,0,0,.62,1.39.5.5,0,0,0,.45.14.51.51,0,0,0,.35-.32,1.79,1.79,0,0,0,0-.83c-.31-1.22-.65-2.43-1-3.64-.16-.6-.31-1.2-.49-1.9l1.11-.41c.13.12.26.18.29.27.53,1.81,1.06,3.62,1.56,5.43A2.93,2.93,0,0,1,490,125.77Zm2.16.13c-.57-2.26-.21-4.54-.79-6.82l-1.73.45a2.65,2.65,0,0,1-.26-.39,2.93,2.93,0,0,1-.13-.59,14.64,14.64,0,0,1,3.36-1.39,6.28,6.28,0,0,1,.3,2.2c.09.74.16,1.48.23,2.22a16.24,16.24,0,0,0,.21,2.31l1.76-.3.35.84A10.6,10.6,0,0,1,492.15,125.9Zm8.08-3.69-1.16-.78-1,.45a2,2,0,0,0-.08.54c.2.78-.14,1.18-1.1,1.37-.82-2.57-1.43-5.11-2.16-7.71l1.29-.76a41.21,41.21,0,0,1,5.13,6.33Zm5.21-3.32c-1.11-.34-1.76-1.4-3-1.89.3,1.12,1.09,1.78,1.44,2.78l-.86.65c-.17-.08-.32-.1-.37-.18-1.46-2-2.77-4.15-4.25-6.43.78-.49,1.33-.92,1.93-1.22a2.26,2.26,0,0,1,3.35,2.24,4.66,4.66,0,0,1-.2.87c.8,1,2,1.44,2.92,2.45ZM513.29,100c.17-.23.36-.44.51-.61s.3-.07.39,0l7.07,3.29-.78,1.2-1.25-.34-.84.92c.21.4.41.78.66,1.23l-.66.83c-.48,0-4.15-4.28-5.29-6.06A2.69,2.69,0,0,1,513.29,100Zm-3.35,4.31,2.72,1.28-.8-1.45c-.2-.35-.39-.7-.63-1.15a3.07,3.07,0,0,1,.3-.54A6,6,0,0,1,512,102c.17.06.32.06.36.13.47.85,1,1.7,1.36,2.58a7,7,0,0,0,2,2.73c.35.29.64.65,1,1.06l-.89,1c-1.23-.7-1.91-1.95-3.18-2.45s-2.42-1-3.63-1.53C509,104.78,509.49,104.56,509.94,104.26Zm-4,4c.94,0,1.56,1,2.68,1.09l-1.29-2.55,1-.93a10.18,10.18,0,0,1,1.19,2.38,8.94,8.94,0,0,0,2.48,3.64,8.68,8.68,0,0,1,.78.91l-.81.83a3.22,3.22,0,0,1-1.5-1.15,6.86,6.86,0,0,0-2.5-1.75c-1-.43-2-.93-3-1.44A2.09,2.09,0,0,1,505.9,108.31ZM503.67,110a2.91,2.91,0,0,1,.42-.23,48.89,48.89,0,0,1,4.87,6,1.64,1.64,0,0,1-.91.85,44.9,44.9,0,0,1-4.94-6.1C503.34,110.35,503.49,110.18,503.67,110Z"/><path class="cls-1" d="M408.08,56.39c1.26,0,2.53,0,3.79,0h3.79c1.26,0,2.52,0,3.78,0a32.75,32.75,0,0,0,3.82-.08c.14-.49.27-.92.38-1.36A48.37,48.37,0,0,1,467.5,18.88a45.54,45.54,0,0,1,12.32.9A47.53,47.53,0,0,1,504.31,32.9c.56.56,1.15,1.09,1.73,1.63h0c.48-.33,1-.54,1.12-1.29s.75-.59,1.22-.77c0-.1,0-.23,0-.28-1.13-1.39-1.16-1.77-.19-3.49.78.48,1.08,1.49,2,1.87,1.3-1.19,1.69-2.91,2.49-4.45a3.36,3.36,0,0,1,2.22,0,17.18,17.18,0,0,1-3.71,5.39,3.35,3.35,0,0,0,1.15,0,2.86,2.86,0,0,0,.77-.67c.82-.81,1.67-1.58,2.42-2.44a2.44,2.44,0,0,1,2.28-.89l.64.09a4,4,0,0,1-.46.71c-1.16,1.12-2.32,2.23-3.5,3.31a5.75,5.75,0,0,1-2.84,1.52,6.22,6.22,0,0,1-2.51-.29,10.28,10.28,0,0,1-1.28.77l.59.9c-.11.12-.18.28-.25.27-.72,0-1.45-.13-2.17-.2h0l0,0c.38.5.75,1,1.15,1.49a48,48,0,0,1,9.73,18.78c.13.5.28,1,.41,1.45,1.57.22,17.6.21,19,0C532.6,28.54,507.06-.4,469.13,0a64.92,64.92,0,0,0-32.28,9,66.47,66.47,0,0,0-24.37,24.23,64.75,64.75,0,0,0-8.27,23,16.5,16.5,0,0,0,3.87.18M512.5,39.31a4.85,4.85,0,0,1-.35-2.85,3.71,3.71,0,0,1,.75.38,6.66,6.66,0,0,0,2.07,1.5,1,1,0,0,0,1.24-.27c.63-.82,1.24-1.65,1.92-2.56a4.34,4.34,0,0,1,2.16.28,9.45,9.45,0,0,1-4.17,3.6A3.9,3.9,0,0,1,512.5,39.31Zm7.22,7a15.35,15.35,0,0,1-1.42-3.2,3.68,3.68,0,0,1,2.24-1.68,9.9,9.9,0,0,0,1.18,2.91c.89-.34,1.25-1.22,2.08-1.67a6.42,6.42,0,0,1,1.84.5A7.66,7.66,0,0,1,519.72,46.3ZM525,36.87a7.69,7.69,0,0,1-.84.73c-1.53,1-3.06,2-4.62,2.91-1.4.85-1.41.83-3.3.25a31.15,31.15,0,0,1,3.3-2.08c1.08-.74,2.18-1.44,3.37-2.22ZM520.65,30c-.12.32-.13.46-.2.51-1.76,1.37-3.52,2.74-5.3,4.09a2.5,2.5,0,0,1-2.56.15c.1-.2.13-.32.21-.38,1.76-1.36,3.55-2.7,5.29-4.09C518.88,29.63,519.68,29.88,520.65,30ZM424.22,43.29c-.16-.54-.31-1-.48-1.57l1.18-.3.66,1.29C425.37,43.37,424.9,43.32,424.22,43.29Zm1.67-1.72c-.62-.37-.61-1-.82-1.49,0-.06.06-.14.11-.16l.9-.38a2.43,2.43,0,0,1,.83,1.58Zm52.69-25.35-.71-1,1.32-1.2.75,1.1A2.67,2.67,0,0,1,478.58,16.22Zm33.93,2.69c.06.39.11.75.16,1.12a2.61,2.61,0,0,1-1.7.44l-.23-1A2.08,2.08,0,0,1,512.51,18.91Zm-7.12-4.45c.15.43.28.8.43,1.21l1.25.11L507.3,17l-1.58.53-.5-1.31L504,16.1c0-.4-.07-.77-.12-1.22Zm-4.28-2.37c.36.32.11.58,0,.8-.76,1.54-1.54,3.07-2.37,4.71.58.4,1.12.78,1.68,1.15s1,.69,1.64,1.08l.88-1.63a2.39,2.39,0,0,1,1.66-.45c.31.32,0,.55-.11.76-.42.67-.88,1.31-1.37,2a42.91,42.91,0,0,0,3.63,3,3.26,3.26,0,0,1,3.08-2.38c1.38,0,2,.87,1.51,2.17a6,6,0,0,1-.89,1.45A8.22,8.22,0,0,1,507,27.23c-.26-.18-.5-.33-.72-.51L501.76,23c-.13-.11-.32-.2-.38-.34-.23-.5-.68-.62-1.13-.86-1.39-.77-2.71-1.68-4-2.5a.86.86,0,0,1-.09-.26.23.23,0,0,1,0-.16l3.21-6.14Zm-7.73,3.19c-.28-.58-.73-1.09-.32-1.74A2.59,2.59,0,0,1,495,12.25c1-.13,1.24.12,1.53,1.39-.65.35-1.64-.37-2.12.6.21,1,1.16.95,2.05,1.32l-.64,1.32a27.66,27.66,0,0,1-3.86.41C492.05,16.25,492.26,15.5,493.38,15.28Zm-3-8.17a3,3,0,0,1,0,.75c-.54,1.92-1.09,3.85-1.68,5.76-.38,1.23-.55,1.35-2.2,2,.08-.33.12-.6.2-.86.55-1.86,1.17-3.7,1.62-5.59A2.55,2.55,0,0,1,490.35,7.11ZM473.12,8.79c-.05-1.2,0-2.41,0-3.58l1.21-1.27c.48.07.44.39.44.65,0,1.15-.06,2.3-.08,3.44,0,.57,0,1.14,0,1.8,2.25.49,4.45.69,6.77,1-.63-1.87-1.9-2.5-3.78-2.4a13.81,13.81,0,0,1,.8-1.48,1.25,1.25,0,0,1,1.94-.31,6.43,6.43,0,0,1,1.43,1.47,11.64,11.64,0,0,1,1.29,2.41,1.67,1.67,0,0,0,1.59,1.09,7.59,7.59,0,0,0,.77-3.2c.13-1.33.94-1.81,2-2.34a36.11,36.11,0,0,1-2.07,8.47,5.2,5.2,0,0,1-2.51-.88.83.83,0,0,0-.94-.11,1.69,1.69,0,0,1-.83,0,56.82,56.82,0,0,0-7-.95,9.56,9.56,0,0,1-1.06-.19C472.78,11.15,473.17,10,473.12,8.79Zm-18.4-.2c.21.48.4,1,.61,1.43l.68,1.5c1.58-.23,3.1-.66,4.79-1.06a9.37,9.37,0,0,0-.79-.78,8.85,8.85,0,0,0-.95-.56c0-.33.07-.66.09-1,.08-1.35,1-1.87,2.14-2A7.13,7.13,0,0,1,462.82,6a1.5,1.5,0,0,1,1.49,1.58,6.6,6.6,0,0,1-.24,1.51,6.86,6.86,0,0,1-.32.92c1.4,0,2.67-.22,4-.27.22-.6.37-1.15.61-1.66a7.74,7.74,0,0,1,.86-1.47,1,1,0,0,1,1.5,0,3.46,3.46,0,0,1,.7,1.16,5.6,5.6,0,0,1-.54,5,7.36,7.36,0,0,0-3-.41c-1,.13-2.05.18-3.08.25a3,3,0,0,1-2.24-.34,5.38,5.38,0,0,1-2.81,1.06c-1.07.19-2.1.55-3.15.83-.7.19-.7.19-1.53-.37l-.69.8a7.46,7.46,0,0,1-2.36,0,9,9,0,0,1-.9-2.89c.38-.51.77-1.07,1.2-1.6s.82-.85.8-1.6c0-.42.48-.85.79-1.36A2.74,2.74,0,0,1,454.72,8.59ZM450.85,5.4l.67.2.66.22c.23-.31.42-.58.68-1l.94.39c.26.74-.27,1.16-.34,1.76-.53-.17-1-.3-1.39-.45l-.74,1L450.24,7Zm-6.45,4c.22.15.44.23.52.39,1,1.85,2,3.71,3,5.59.55,1.08.47,1.44-.32,2.77-.42-.81-.79-1.55-1.18-2.29s-.79-1.52-1.2-2.27-.84-1.49-1.31-2.3C444.07,10.62,444.22,10.08,444.4,9.41ZM431.45,20.89c.23-.9.7-1.27,1.62-1.09a5.71,5.71,0,0,1,1.57.62c.5.28.94.65,1.52,1.06l4.34-3a4.56,4.56,0,0,0-.8-.29c-.57-.07-1.14-.09-1.71-.14a1.12,1.12,0,0,1-1.05-.75c-.16-.43-.36-.84-.53-1.25a13.33,13.33,0,0,1,2-3.42,1.36,1.36,0,0,1,.85-.66c.2.69.38,1.33.54,1.89-.39,1-1.31,1.45-1.52,2.47.4.1.77.22,1.16.29.78.14,1.58.24,2.37.37a1.72,1.72,0,0,0,1.78-.53,7.65,7.65,0,0,0-.42-.87c-.45-.73-.95-1.44-1.4-2.17-.57-.89-.55-1.24.06-2.49a33.52,33.52,0,0,1,4.37,7.19c-.29.2-.6.44-.92.64-1.92,1.15-3.84,2.28-5.75,3.45A4.19,4.19,0,0,0,438,23.62a10.52,10.52,0,0,1,.47,1.29,11.88,11.88,0,0,1,.22,1.68,1,1,0,0,1-.72,1.06,5.17,5.17,0,0,1-2.19.44c-.18-.48.2-.74.38-1.05a4.66,4.66,0,0,0,.74-2.39l-1.06.46c-.2.09-.4.2-.62.29-1.94.76-3.25.09-3.71-1.95A5.4,5.4,0,0,1,431.45,20.89Zm-3.57,2.78c2.23.84,4.07,2,4.93,4.52a62.39,62.39,0,0,1-4.51,4.91c.23.31.46.61.67.92a3.89,3.89,0,0,1,.79,2.82,4.79,4.79,0,0,1-2.56,1.31c0-.79.44-1.35.55-2a2.66,2.66,0,0,0-.06-2c-1-.7-2.36-.65-3.67-1-.18-.6-.38-1.24-.58-1.92,1.05-.34,1.8.48,2.78.44l4.21-4.8-1.2-.53c-.31-.12-.64-.22-1-.35A4.48,4.48,0,0,1,427.88,23.67ZM425.44,23l.94-.09c.39.24.39.24.52,1.68l-1.29.26V26l-1.14.15a2.06,2.06,0,0,1-.43-1.67l1.21-.28C425.31,23.81,425.37,23.44,425.44,23Zm-.95-1c.14.53.27,1,.41,1.6a6.9,6.9,0,0,1-.69.25.57.57,0,0,1-.77-.43,13.38,13.38,0,0,1-.22-1.36Zm-8.85,18.23c1.61.15,3,1,4.55,1.13l2.5-4.45-2.45-.57a5.19,5.19,0,0,1-.66-1.84,6.3,6.3,0,0,1,5.64,3.3l-3.11,5.71-.47.06a1.88,1.88,0,0,0-.3.12c.08.77.11,1.08-.22,1.57a12.39,12.39,0,0,1-1.06,1.24,5.37,5.37,0,0,1-2.47-.92,1.18,1.18,0,0,1-.5-.65,7.63,7.63,0,0,1-.36-1.5,2.16,2.16,0,0,0-.73-1.65C415.6,41.43,415.63,40.84,415.64,40.19Zm-2.33.48-.33-1c.21-.49.64-.56,1.19-.57l.82,1.32-1.21.81c.1.34.2.7.32,1.15l-1,.5a2.42,2.42,0,0,1-.95-1.54Z"/><path class="cls-1" d="M503.86,85.84a2.11,2.11,0,0,0,.5-.88c.35-2.06.25-4-1.42-5.56a18.64,18.64,0,0,0-2.2-1.66,70.38,70.38,0,0,1-8.67-7,1.55,1.55,0,0,0-.14-1.66q-1.14-2-2.36-4c-.05-.09-.28-.07-.49-.11-.23,1.46-.43,2.88-.68,4.29a3.19,3.19,0,0,0,1.15,3.22c1,.81,1.89,1.67,2.91,2.41,2.05,1.47,4.15,2.87,6.22,4.31,1.27.88,2.52,1.79,3.78,2.69,1.56,1.12,1.26,1.78,0,2.8a61.06,61.06,0,0,1-9.16,6.39,20.57,20.57,0,0,1-2.18,1,2.11,2.11,0,0,1-1.67,0,3,3,0,0,1-1.65-4.37c.7-1.38,1.54-2.68,2.32-4,.26-.44.55-.87.78-1.33a3.78,3.78,0,0,0,.08-.95,39.13,39.13,0,0,0-4.32,6.27,3,3,0,0,1-.15-.57c-.08-1.89-.15-3.78-.22-5.67,0-.63,0-1.25,0-1.87a4.67,4.67,0,0,1,2.78-.15c.84.28,1.66.67,2.52,1a11.89,11.89,0,0,0,1.59-2.63,9.38,9.38,0,0,0-1.15-.75,5.28,5.28,0,0,0-3.53-.18c-.72.17-1.42.4-2.24.64-.08-.57-.19-1.06-.22-1.56-.14-2.4-.27-4.81-.4-7.21q-.23-4.22-.43-8.42a2.74,2.74,0,0,1,.43-2,3.87,3.87,0,0,0,.55-3.12c-.18-1.19-.34-2.38-.52-3.57a7.53,7.53,0,0,0-.19-.76,7.59,7.59,0,0,0-1.32,1.88,7.93,7.93,0,0,0-1.25,5.4c.29,3.14.4,6.29.58,9.44.2,3.44.4,6.87.59,10.31,0,.39,0,.79,0,1.09a12.09,12.09,0,0,0-1,.73,31.23,31.23,0,0,0-5.29,5.84c-.71,1.05-1.43,2.09-2.18,3.1a10.52,10.52,0,0,1-1.24,1.42,1.17,1.17,0,0,1-1.82,0,3.63,3.63,0,0,1-1.05-2.64,11,11,0,0,1,1.05-4.66,2.65,2.65,0,0,1,1.22-1.4,1.69,1.69,0,0,0,.91-1c.2-.54.16-.74-.37-1.17a4.84,4.84,0,0,0-.55-.35c.19-.34.32-.6.48-.83a9.86,9.86,0,0,1,.6-.84c.17-.23.35-.46.53-.67s.48-.51.69-.78.48-.3.25-.82c-1.83,1.55-3.35,3.19-3.72,5.6a3.78,3.78,0,0,1-.42,1.28,16.44,16.44,0,0,0-1.79,8.65,4,4,0,0,0,.26,1.33c.88,2.28,3.08,2.76,4.79,1A11.18,11.18,0,0,0,476.75,91c1.33-2,2.59-4.06,4-6a42.94,42.94,0,0,1,2.73-3.32,3.5,3.5,0,0,1,.74-.49c.06.66.14,1.17.16,1.68.1,1.84.19,3.67.27,5.5a8.64,8.64,0,0,1-.61,4s.07.15.11.23c.1-.07.23-.11.29-.2.3-.48.58-1,.89-1.46.13-.2.17-.56.59-.44,0,.29,0,.57,0,.86A3.34,3.34,0,0,0,489.43,95a6,6,0,0,0,3.12-.82,48.83,48.83,0,0,0,10.39-7.29,8.92,8.92,0,0,0,.92-1M486.41,88s0-.13,0-.14l.17,0a.46.46,0,0,0,.07-.07l0,0-.12,0Z"/><path class="cls-1" d="M536.13,58.17a11.32,11.32,0,0,0-1.54-.05H518.23a3.32,3.32,0,0,1-1.82-.19l-.09-.18c0-.16-.09-.33-.12-.5a46.82,46.82,0,0,0-43.63-36.35A45.37,45.37,0,0,0,453,24.06C438.59,30,429.1,40.42,424.84,55.51c-.23.82-.42,1.65-.66,2.57l-1.91,0H406.43a11.28,11.28,0,0,0-1.54,0c-.51.07-.65.38-.31,1h20.64c.35-1.43.62-2.67.95-3.88,5.15-18.78,22.5-33.33,44.61-33.28a45.78,45.78,0,0,1,43.84,34c.25,1,.49,2,.72,2.94,1.62.26,11.29.34,20,.18.39,0,.78-.08,1.14-.11.1-.45.08-.81-.37-.87"/><path class="cls-1" d="M470,39.22q-.48,10.14-1,20.28c-.37,8-.72,15.94-1.12,23.9-.07,1.54-.32,3.08-.53,4.61A4.34,4.34,0,0,1,465,91.36a33.32,33.32,0,0,1-3.68,1.85c-2,.78-4,1.42-6,2.11-.26.09-.58.09-.63.58,1.27-.1,2.51-.2,3.76-.28A14.8,14.8,0,0,0,464,94.16a8.13,8.13,0,0,1,.94-.34,6.57,6.57,0,0,1,.61-.68,12.08,12.08,0,0,0,4.41-9c.31-5.84.53-11.69.8-17.54.2-4.3.44-8.59.64-12.89.16-3.38.29-6.76.45-10.15,0-.74.09-1.48.17-2.23,0-.24-.07-.59.42-.66a45.27,45.27,0,0,1,6.27,9.57,8.16,8.16,0,0,1,.47,1.28,4.32,4.32,0,0,1-1.94,5.37c-.42.28-.88.53-1.31.81a6.86,6.86,0,0,0-.65.51c.12.07.18.13.22.12A6.61,6.61,0,0,0,479,56c2.18-2.81,2.89-5.83,1.08-9.12-.17-.31-.28-.64-.47-.93-1-1.53-2-3.07-3.06-4.57-.83-1.17-1.74-2.27-2.59-3.43a9.57,9.57,0,0,1-1.82-4,7.93,7.93,0,0,0-.52-1.63.55.55,0,0,0-1-.06c-.57,1.05-1.11,2.13-1.6,3.22a.88.88,0,0,0,.31,1.08,1.89,1.89,0,0,1,.66,1.84c0,.28,0,.57,0,.86"/><path class="cls-1" d="M453.59,92.15a1.75,1.75,0,0,1,.29-.42c.23-.23.48-.44.73-.67.54.4,1,.77,1.46,1.08a3.65,3.65,0,0,0,5.17-.88,10.5,10.5,0,0,0,1.68-3.17c.21-.59.44-1.18.66-1.76-.06.23-.07.43.28.45a3.26,3.26,0,0,0,1-1.73c.43-1.37.78-2.76,1.15-4.14a9,9,0,0,0-.83-6.66c-.82-1.58-1.6-3.17-2.41-4.76q-3.33-6.6-6.68-13.19a2.34,2.34,0,0,1-.39-1.79,5.46,5.46,0,0,0-.71-4.6c-.66-1-1.16-2.2-1.76-3.34-.38,1.43-.69,2.89-1.17,4.29a3.64,3.64,0,0,0,.34,3.1c4,7.67,8,15.37,12,23.05a6.49,6.49,0,0,1,.78,4,17.84,17.84,0,0,1-1.64,5.38l0-.05h0l0,.05c0-.57,0-1.15-.06-1.72a8.32,8.32,0,0,0-1.62-4.45,5.12,5.12,0,0,0-2.15-1.68,1.94,1.94,0,0,0-2.23.39,6.06,6.06,0,0,0-1.75,2.72c-.41,1.5-.33,2.1,1,3.18a3.43,3.43,0,0,0,2.36.88,17,17,0,0,1,1.89,0,1.25,1.25,0,0,1,1.11,2,3,3,0,0,1-2.83,1.89,3.88,3.88,0,0,1-2-.44c-.74-.43-1.45-.89-2.25-1.38a5.45,5.45,0,0,0-1.39,1.66,2.85,2.85,0,0,1-3,1.14,3.77,3.77,0,0,1-2.31-1.37,5.29,5.29,0,0,1-1.18-2.82q-.44-3.84-.75-7.7c-.29-3.71-.53-7.43-.8-11.15-.13-1.77-.28-3.54-.44-5.31,0-.24.05-.58-.42-.69a17.29,17.29,0,0,0-1.21,2.79,1.51,1.51,0,0,0-.06.67l.69,7.2c.3,3.13.59,6.27.9,9.41.22,2.17.42,4.34.68,6.5A11,11,0,0,0,447,91.88c1.15,2.1,5.05,3.07,6.56.27m4.72-8.64a.7.7,0,0,1-.64-.67.78.78,0,0,1,.83-.69,2.44,2.44,0,0,1,2.18,1.15A4.53,4.53,0,0,1,458.31,83.51Z"/><path class="cls-1" d="M448.55,65.9c.93.85,1,1.3.53,2.4a4,4,0,0,1-.24.46,10.69,10.69,0,0,0-1,3.08,1.77,1.77,0,0,0,.72,2c.19.13.36.28.55.41a3.08,3.08,0,0,1,1.48,2.2c0,.06.17.09.26.13a4.43,4.43,0,0,0,1.07-2.59,2.17,2.17,0,0,0-.89-2.4c-.54-.4-1-.86-1.67-1.39.4-.87.72-1.54,1-2.22a11.58,11.58,0,0,0,.72-2.1,3,3,0,0,0-2.34-3.7,4.7,4.7,0,0,0-1.28,2.8c.34.3.73.63,1.1,1"/><path class="cls-1" d="M420.75,65c-1.27-.29-2.3,0-3.24-.25-.74-.85-.59-2.07-1.34-2.93-.64,1-.59,2.1-1.31,3l-2.85.11-.11.3,2.3,1.8c-.08,1.13-.73,2-.7,3.22l2.7-1.82,2.7,1.8c.05-1.21-.65-2.08-.69-3.21l1.13-.9L420.75,65"/><path class="cls-1" d="M525.7,64.74c-.71-.82-.54-2-1.38-2.87l-1.16,2.95c-.81,0-1.55,0-2.28.05-.26,0-.59-.07-.69.35.6.82,1.76,1,2.25,2l-.4,1.35c-.14.48-.46.93-.23,1.58l2.6-1.71c.45.3.88.58,1.29.87a2.58,2.58,0,0,0,1.47.64c-.12-1-.77-1.91-.73-2.94.7-.72,1.62-1.1,2.36-1.92-1.12-.44-2.18,0-3.1-.33"/><path class="cls-1" d="M435.28,51.73c.39-.5.75-1,1.11-1.53s.76-1.14,1.15-1.7a8.1,8.1,0,0,1,1.18-1.7c0,1,0,1.78.07,2.55,0,.22,0,.47.41.43a18.71,18.71,0,0,0,1.51-4.11,2.32,2.32,0,0,0-.47-2.22c-.7-.85-.8-1-1.75-.63a9.05,9.05,0,0,0-2.82,1.92c.82.75,1.72.46,2.65.39-2.47,3-4,5.85-4.27,8a5.35,5.35,0,0,0,1.23-1.43m4.34-7.59c-.17,1-.17,1-.79.66Z"/><path class="cls-1" d="M506.82,44.69c-.42-.34-.8-.68-1.21-1a8.74,8.74,0,0,0-1.17-.72,4.59,4.59,0,0,0-1-.35c-.49-.11-.75.1-1.11.55a2.91,2.91,0,0,0-.45,2.87c.37,1.14.8,2.26,1.22,3.39.08.21.19.41.54.27.07-1,.14-1.94.22-2.92a40.51,40.51,0,0,0,4.64,6.35,2.65,2.65,0,0,0-.21-1,17.22,17.22,0,0,0-4-6.76,1.51,1.51,0,0,1-.29-.53c1.53.55,1.56.54,2.75-.19m-3,2.06-.08-.12-.1-.06s.07,0,.09.06h0l.12.09Zm.14-1.89h0c-.66.22-.68.2-1.11-.4.51-.16.74.33,1.11.4l.08,0Z"/><path class="cls-1" d="M439.08,84.86a5.65,5.65,0,0,1,1.49-2.47,8.59,8.59,0,0,1,1.57-1.32,1.63,1.63,0,0,0,.72-2.22c-.72,0-1.1.6-1.57,1-1.2,1-2.24.93-3.5-.21a6.73,6.73,0,0,1,.69-.72,3.7,3.7,0,0,1,2.38-.47c.24-.54.35-1,0-1.39a1.54,1.54,0,0,0-1.25-.47,1.87,1.87,0,0,0-1.7,1,6.56,6.56,0,0,0-.9,2.92c-.07,1.21,0,1.34,1.17,1.72l.74.25-.38,3.32a2.08,2.08,0,0,0,.52-.9"/><path class="cls-1" d="M465,93.87l0-.05,0,0,0,0h0l0,.06h0"/><path class="cls-1" d="M464.47,97.33a3.88,3.88,0,0,1,.29.49c-.32.57-1.18.84-.52,1.71a32.44,32.44,0,0,0,4.31-3.34,2.25,2.25,0,0,0,.35-.73c-.65-.32-1,.17-1.5.33a2.42,2.42,0,0,1-1.67.16c-.26-.09-.3-.32-.19-.56a.72.72,0,0,1,1-.4c.26.09.55.33.73,0s.42-.41.79-.49a1.55,1.55,0,0,0,1.27-2,3.12,3.12,0,0,0-.44-.92c-.07-.12-.35-.24-.4-.2s-.39.37-.35.5a12.36,12.36,0,0,0,.56,1.35c-.38.45-.63.91-1.28.48a1.61,1.61,0,0,0-1-.09c-.5.07-1,.21-1.47.32-.15.22-.28.44-.44.64a2.08,2.08,0,0,0,0,2.82"/><path class="cls-1" d="M475,68.33c.28.08.44.19.58.16,1.67-.32,2.8-1.59,4.32-2.61a4.18,4.18,0,0,1-.09.86c-.16.43-.35.84-.54,1.26a2.71,2.71,0,0,0-.15,1.84.74.74,0,0,0,1,.55,3.57,3.57,0,0,0,.76-.59c-1.3-.86-1.3-.86-.84-2,.19-.47.43-.93.59-1.42.09-.25.18-.63,0-.81a4,4,0,0,1-.39-2,3.15,3.15,0,0,0-.4-1.11,1.12,1.12,0,0,0-2,0,2.54,2.54,0,0,0-.31.77,3.17,3.17,0,0,0,.05,1,1.67,1.67,0,0,0,.37.74,4.19,4.19,0,0,0,.76.57c-.95,1.45-2.67,1.65-3.85,2.75"/><path class="cls-1" d="M467.56,49.85c-.2.15-.39.22-.45.35-.47,1-.92,2.08-1.49,3.4-.23-.54-.35-.79-.45-1a4.4,4.4,0,0,0-1.88-2.18c-.29-.19-.61-.34-.93-.06s-.24.64.1,1.07c.21.26.44.49.69.78-1.21,1.43-3,1.7-4.73,2.85a8.52,8.52,0,0,0,5.63-2.43c.66.83.59,1.94,1.35,2.67,1.24-1,1.16-2.74,2.06-3.94a4.32,4.32,0,0,1,.46.33c.23.21.47.35.76.15a.62.62,0,0,0,0-.91c-.35-.36-.74-.69-1.12-1"/><path class="cls-1" d="M457.58,74.55c.34-.7.66-1.3.93-1.91a1.39,1.39,0,0,0-.42-1.7c-.63-.55-1.32-1-2.06-1.63a4,4,0,0,0-1.43,2.12,1.15,1.15,0,0,0,.29,1.26,13.46,13.46,0,0,0,2.69,1.86"/><path class="cls-1" d="M464.86,59.44c-.47.51-.81.75-.95,1.07a5.93,5.93,0,0,0-.4,3.67,2,2,0,0,0,.25.63,1.69,1.69,0,0,0,1.77.72,1.48,1.48,0,0,0,.77-1.42,1.13,1.13,0,0,0-.84-1.13,6.51,6.51,0,0,0-.86-.15c-.35-1.12.39-2,.26-3.39"/><path class="cls-1" d="M442,91a1.68,1.68,0,0,0,1.7.51,1.44,1.44,0,0,0,.68-1.61,1.05,1.05,0,0,0-.91-.9,7.23,7.23,0,0,0-.76-.06c-.39-1.15.49-2.07.25-3.21a4.08,4.08,0,0,0-.42.15.79.79,0,0,0-.25.23,5.68,5.68,0,0,0-.62,4.3A1.51,1.51,0,0,0,442,91"/><path class="cls-1" d="M460.47,48.82a1.24,1.24,0,0,0,1.12.93,1.4,1.4,0,0,0,1.26-.75.91.91,0,0,0-.38-1.43,6.36,6.36,0,0,0-.66-.2.8.8,0,0,1-.59-.92c.23-1.11.15-2.3.89-3.28.09-.11.05-.31.08-.47a7.23,7.23,0,0,0-1.95,4.78,3.9,3.9,0,0,0,.23,1.34"/><path class="cls-1" d="M466.52,38.87a9.19,9.19,0,0,0-1.85,5,4.54,4.54,0,0,0,.25,1.5,1.24,1.24,0,0,0,1.15.88,1.4,1.4,0,0,0,1.27-1,3.42,3.42,0,0,0,0-1l-1.77-.8a20.75,20.75,0,0,0,.31-2.34c0-.79.91-1.31.62-2.29"/><path class="cls-1" d="M497,58.49a6.34,6.34,0,0,0-.61.21c-1.72.79-3.44,1.57-5.14,2.39a9.08,9.08,0,0,0-1.47.88,4.06,4.06,0,0,0-.57.82,3.07,3.07,0,0,0,.66,0l6.53-3a2.47,2.47,0,0,0,.69-.51c.24-.23.26-.49-.09-.74"/><path class="cls-1" d="M458.06,32.61a2.78,2.78,0,0,0,.25-1c0-.21-.07-.54-.21-.6a1,1,0,0,0-.78,0,2.77,2.77,0,0,0-1.41,1.43,4.91,4.91,0,0,0-.54,2.77,7.08,7.08,0,0,0,2.69-2.64"/><path class="cls-1" d="M478.1,29a3.57,3.57,0,0,0,2.66-.37,5.26,5.26,0,0,0,2.57-2.15,8.48,8.48,0,0,0-4.1,1l.06-.05h-.06v0c-.48.41-1,.77-1.13,1.53"/><path class="cls-1" d="M477.79,29.6a1.52,1.52,0,0,0,.3,2,7.89,7.89,0,0,0,2.6,1.71,4.73,4.73,0,0,0-.64-2.69,1.9,1.9,0,0,0-2.26-1.07"/><path class="cls-1" d="M477,26.75a5.22,5.22,0,0,0-2,1.56,2.44,2.44,0,0,0-.22.6A4.9,4.9,0,0,0,477.9,28a2.64,2.64,0,0,1,1.33-.57c0-.65.75-.9,1-1.61a10.83,10.83,0,0,0-3.22,1"/><path class="cls-1" d="M489.73,30.32a4.34,4.34,0,0,0-1.39.55.82.82,0,0,0-.33,1l.17,0c.21,0,.41.06.5.3a5.79,5.79,0,0,0,4.54-1.36,9.27,9.27,0,0,0-3.49-.54"/><path class="cls-1" d="M451.83,30.3a12,12,0,0,0-1.67.32,3.94,3.94,0,0,0-.79.44c1.61,1,3.09,1.56,4.8.86.21-.08.43-.14.64-.2a2.65,2.65,0,0,0-3-1.42"/><path class="cls-1" d="M454.81,31.71h0Z"/><path class="cls-1" d="M488,31.94a1.27,1.27,0,0,0-.41,1.76,9.73,9.73,0,0,0,2,2.74,5.09,5.09,0,0,0,.75.47c-.11-1.7-.35-3.14-1.51-4.25a.88.88,0,0,1-.15-.37c-.31,0-.58,0-.7-.35"/><path class="cls-1" d="M440.65,38.59a4.23,4.23,0,0,0,4.35-.27,4.06,4.06,0,0,1-.3.78,6.52,6.52,0,0,0-.92,3.92c0,.2,0,.48.41.51a14.9,14.9,0,0,0,1.65-3.26,5.25,5.25,0,0,0,.16-1.68c0-.46-.41-.45-.76-.45l.34-.62a1.5,1.5,0,0,0-1.84-.58c-.85.32-1.68.7-2.51,1.09-.22.1-.37.35-.58.56"/><path class="cls-1" d="M499.48,40.93a1.29,1.29,0,0,0-.37.71,2.77,2.77,0,0,0,.13.84,15.53,15.53,0,0,0,1.53,3.78c.06.12.22.19.47.38a7.25,7.25,0,0,0-.61-4.56c-.18-.39-.35-.79-.52-1.18-.22,0-.5-.07-.63,0"/><path class="cls-1" d="M500.09,40.85h0l0,0h0l0,0Z"/><path class="cls-1" d="M487.26,35.3c-.14-1.49-.32-2.79-1.35-3.76-.39-.37-.84-.82-1.51-.54a1.69,1.69,0,0,0,.23,1.92,27,27,0,0,0,1.85,2,3,3,0,0,0,.78.37"/><path class="cls-1" d="M455.89,27.8c1.51,1.23,3,2.24,5.3,1.62a3.07,3.07,0,0,0-2.36-1.8,4.19,4.19,0,0,0-2.94.18"/><path class="cls-1" d="M459,26.54a7.89,7.89,0,0,0,3.64,2.38c.82.24.83.23,1.79-.13l-.91-1.32a13.88,13.88,0,0,0-1.4-.53,6.06,6.06,0,0,0-3.12-.4"/><path class="cls-1" d="M483.09,31a2.52,2.52,0,0,0-1.77-1,1.12,1.12,0,0,0-.4,1.3,1.75,1.75,0,0,0,.21.46A6.86,6.86,0,0,0,484,34.14a5.28,5.28,0,0,0-.93-3.19"/><path class="cls-1" d="M482.52,28.07a1.65,1.65,0,0,0-1.06,1.28,2.36,2.36,0,0,0,2.13.16,7,7,0,0,0,3.29-2,7.43,7.43,0,0,0-4.36.54"/><path class="cls-1" d="M446.32,33.16a4.78,4.78,0,0,0,1.79.85c.92.3,1.8-.08,2.69-.06.12-.32.41-.3.68-.33-.21-1-.44-1.27-1.19-1.34a6.55,6.55,0,0,0-4,.88"/><path class="cls-1" d="M486.3,28.9a1.89,1.89,0,0,0-1.63,1.46,3.87,3.87,0,0,0,2.94.13A4.49,4.49,0,0,0,490,29a6.13,6.13,0,0,0-2-.22,7.32,7.32,0,0,0-1.69.11"/><path class="cls-1" d="M474.06,30.57a1.55,1.55,0,0,0,.75,1.11c.73.43,1.49.81,2.37,1.29a3.73,3.73,0,0,0-.42-2.42,1.82,1.82,0,0,0-1.6-1.12,1,1,0,0,0-1.1,1.14"/><path class="cls-1" d="M497.34,37.11c-.49.3-.35.63-.06,1-.44,0-.85.15-.81.66a6.23,6.23,0,0,0,.33,1.83,26.51,26.51,0,0,0,1.31,2.61c.08.16.28.26.54.48a6.56,6.56,0,0,0-.95-4.76,1.27,1.27,0,0,1-.14-.48c.47.18.94.38,1.43.52a2.62,2.62,0,0,0,1,.12,10.89,10.89,0,0,0,1.49-.29c.12,0,.22-.17.4-.32a8.92,8.92,0,0,0-3.25-1.58,1.56,1.56,0,0,0-1.29.23"/><path class="cls-1" d="M452.68,29a4.21,4.21,0,0,0,5.08,1.31c-.08-.81-.72-1.11-1.35-1.33a4.67,4.67,0,0,0-1.35-.16,8.43,8.43,0,0,0-2.38.18"/><path class="cls-1" d="M495.43,34.38A1.28,1.28,0,0,0,494,35.56c.3.13.61.26.9.4a4.19,4.19,0,0,0,3.64.09,3.18,3.18,0,0,0,.6-.48c-.86-.35-1.53-.67-2.22-.91a5.52,5.52,0,0,0-1.5-.28"/><polygon class="cls-1" points="494.01 35.56 494.01 35.55 493.97 35.54 494.01 35.56"/><path class="cls-1" d="M438.25,41.68a1.4,1.4,0,0,0,.28.17,5,5,0,0,0,3.76-.67,8.54,8.54,0,0,0-1.1,4.92c0,.21,0,.48.39.45A15.18,15.18,0,0,0,443.14,43a5.55,5.55,0,0,0,.15-1.68c0-.44-.39-.49-.75-.45,0-.27.23-.58.15-.79a1,1,0,0,0-.67-.45,1.83,1.83,0,0,0-.83.08,8.3,8.3,0,0,0-2.72,1.41c-.17.13-.38.27-.22.55"/><path class="cls-1" d="M462.87,30.14a4.47,4.47,0,0,0-1,3.24,8.93,8.93,0,0,0,2.61-1.75,1.55,1.55,0,0,0,.31-2c-1.05-.06-1.46,0-1.89.51"/><path class="cls-1" d="M467.59,28.91c.23-.61-.22-.88-.54-1.16a9.08,9.08,0,0,0-4.81-2l1.3,1.66,1.48.77a4.43,4.43,0,0,0,2.57.71"/><path class="cls-1" d="M463.54,27.43h0l0,0,0,0,0,0h0l0-.05"/><path class="cls-1" d="M444.06,35.27c-.26.11-.53.24-.42.64a4.34,4.34,0,0,0,4.23-.09,4.11,4.11,0,0,1,.79-.28h0c-.76-1.17-1.25-1.4-2.51-1a18,18,0,0,0-2.08.78"/><polyline class="cls-1" points="454.81 31.71 454.81 31.72 454.81 31.71"/><path class="cls-1" d="M452.44,36.85a9.13,9.13,0,0,0,1.64-1.71,3.14,3.14,0,0,0,.73-3.42l-1,.87a4.38,4.38,0,0,0-1.38,4.26"/><path class="cls-1" d="M446.63,41a10.12,10.12,0,0,0,2.15-3.35,2.19,2.19,0,0,0-.12-2.08c-1.94,1.86-2.53,3.42-2,5.43"/><path class="cls-1" d="M458.56,34.09A7.59,7.59,0,0,0,461.17,32a1.4,1.4,0,0,0,0-2.06c-1.93.67-2.45,1.47-2.57,4.12"/><path class="cls-1" d="M490.86,33.46h0c.53.17,1.06.39,1.61.52a4.22,4.22,0,0,0,3.73-.84,7.43,7.43,0,0,0-3.35-.92,1.79,1.79,0,0,0-2,1.23"/><path class="cls-1" d="M467.65,29.43a1.86,1.86,0,0,0-1.84,1,3.64,3.64,0,0,0-.46,2.45,8.14,8.14,0,0,0,2.54-1.33,1.41,1.41,0,0,0,.5-1.52.75.75,0,0,0-.74-.59"/><path class="cls-1" d="M493.12,38.62a4.8,4.8,0,0,0-1.4-4.35l-.86-.8a4.43,4.43,0,0,0-.28,1.44,6.6,6.6,0,0,0,2.54,3.71"/><path class="cls-1" d="M500.43,39.66a.89.89,0,0,0-.6.51c-.05.2.18.47.29.72a4,4,0,0,0,3.77,1,2.94,2.94,0,0,0,.63-.36,9.19,9.19,0,0,0-3.09-1.75,2.28,2.28,0,0,0-1-.09"/><path class="cls-1" d="M450.11,35.07a5.07,5.07,0,0,0-.66,3.7,4.46,4.46,0,0,0,1.22-1.36,11.09,11.09,0,0,0,1.1-1.92,1.41,1.41,0,0,0-.28-1.85l-.7.36c-.23.35-.46.7-.68,1.07"/><path class="cls-1" d="M494,35.56l0,0,0,0v0"/><path class="cls-1" d="M493.68,37.42c.51,1.07,1.11,2.1,1.7,3.13.09.16.3.25.57.47a5.58,5.58,0,0,0-1.18-4.6c-.25-.29-.51-.56-.76-.84a1.47,1.47,0,0,0-.33,1.84"/><path class="cls-1" d="M496.33,69a3.08,3.08,0,0,0,.9-3.22,5.07,5.07,0,0,0-3.23-3.6c-.07.5-.12.82-.16,1.1.51.32,1,.56,1.36.87a3.22,3.22,0,0,1,1.4,3.42c-.08.37-.14.74-.27,1.43"/><path class="cls-1" d="M471.66,29.84a6.08,6.08,0,0,1,.78-.45c-.18-.65-.34-1.23-.53-1.88a2.52,2.52,0,0,1-.74.2,4.81,4.81,0,0,1-1-.19,4.63,4.63,0,0,1-.09.9,7.12,7.12,0,0,1-.45.93,4.85,4.85,0,0,1,.75.41,9.12,9.12,0,0,1,.7.76,4.14,4.14,0,0,1,.56-.68"/><path class="cls-1" d="M473.43,73.7c1.79-1.7,1.91-3.4-.41-4.85-.55.32-.54.81-.42,1.36a2.33,2.33,0,0,0,.36.34,1.56,1.56,0,0,1,.72,2.19,5.62,5.62,0,0,0-.25,1"/><path class="cls-1" d="M498,92.59l-.46.23a1.64,1.64,0,0,0,1.24.2,13.54,13.54,0,0,0,1.56-.7,1.3,1.3,0,0,1,1,0c.9.26.91.23,1.4-.83a2.78,2.78,0,0,0-2.72.18c-.64.36-1.34.64-2,1"/><path class="cls-1" d="M449.35,60.35c1.07-1.59.42-4.07-1.37-5.3a.79.79,0,0,0,0,1.28,3.82,3.82,0,0,1,1.22,3.55c0,.13.1.28.16.47"/><path class="cls-1" d="M440.71,67.08a.42.42,0,0,0-.09-.14.14.14,0,0,0-.11,0,26.19,26.19,0,0,0-1.32,2.72,1.12,1.12,0,0,0,.73,1.63,1.39,1.39,0,0,0,.87-1.31c-1-.55-1-.57-.71-1.38.18-.53.42-1,.63-1.56"/><path class="cls-1" d="M495.66,84.79c.78-.41.64-1.09.61-1.68a3.3,3.3,0,0,0-1.69-2.54.58.58,0,0,0-.22.87,2.57,2.57,0,0,0,.53.66,2.18,2.18,0,0,1,.74,2,4.32,4.32,0,0,0,0,.7"/><path class="cls-1" d="M498.77,72.3a2.16,2.16,0,0,0,.68.94.43.43,0,0,0,.72,0,.71.71,0,0,0,0-.61,5.58,5.58,0,0,0-.91-.71c.18-1.08.33-2,.48-2.84a3.72,3.72,0,0,0-.94,3.25"/><path class="cls-1" d="M480.66,92.35c1.38-1.17,1.34-1.86-.24-3.19a.63.63,0,0,0-.12,1,1.43,1.43,0,0,1,.34,1.85c0,.09,0,.21,0,.32"/><path class="cls-1" d="M444.77,96.87c1.36-1.27,1.29-2-.26-3.21a.75.75,0,0,0,0,1.17,1.17,1.17,0,0,1,.27,1.53,1.55,1.55,0,0,0,0,.51"/><path class="cls-1" d="M451.65,79.76a2.77,2.77,0,0,0-.42,2.15.78.78,0,0,0,1.31.47c.12-.08.27-.3.24-.4a1,1,0,0,0-.38-.47,2,2,0,0,0-.56-.18c-.06-.48-.11-.87-.19-1.57"/><path class="cls-1" d="M480.32,57.48c.08-.45-.32-.85-.92-.84-.07.11-.25.26-.28.44-.07.46.31.76.88.69a.49.49,0,0,0,.32-.29"/><path class="cls-1" d="M501.22,113.71c-.22,0-.49.17-.91.33.5.65.71,1.33,1.31,1.75.74-.78.84-1.09.42-1.58a1.61,1.61,0,0,0-.82-.5"/><path class="cls-1" d="M460.68,113.48H461a1.73,1.73,0,0,0,.42,0l.22-.08a.64.64,0,0,0,.25-.24,1,1,0,0,0,.13-.37c.11-.57-.16-.85-1.18-1.18-.11.55-.23,1.09-.32,1.63a.27.27,0,0,0,.05.14s.06.1.08.15"/><path class="cls-1" d="M450.4,108.4c-.65,1.47-1.32,3-2,4.47.45.39.85.36,1.15,0a5.65,5.65,0,0,0,1.68-3.83c0-.4-.19-.78-.85-.69"/><path class="cls-1" d="M515.71,101.61a6.36,6.36,0,0,0,1.77,1.85l.57-.7a6.08,6.08,0,0,0-2.34-1.15"/><path class="cls-1" d="M446,122.14l.68.26a6.71,6.71,0,0,0,.71-2.56c-.94.92-1.55,1.85-1.39,2.3"/><path class="cls-1" d="M447.35,119.75v.09l0,0Z"/><path class="cls-1" d="M447.46,119.51l-.11.24,0,0Z"/><path class="cls-1" d="M421.72,96.15h0v0h0v0l-1.38.64a5.26,5.26,0,0,0-.93.42.56.56,0,0,0-.13.56.58.58,0,0,0,.55.19c.65-.45,1.27-1,1.89-1.46,0,0,0-.07,0-.12a1.24,1.24,0,0,1,0-.18h0l.05,0"/><path class="cls-1" d="M421.9,96.21s-.07-.09-.1-.09a.13.13,0,0,0-.08,0l.18.06"/><path class="cls-1" d="M481.44,126.31l1-.14a5.53,5.53,0,0,0-1.22-2.66c.09.9.17,1.81.26,2.8"/><path class="cls-1" d="M431.45,112.62l.66.63.68-.85a7.92,7.92,0,0,0,.47-.71c.15-.26.48-.46.31-1a18.65,18.65,0,0,0-2.12,1.88"/><path class="cls-1" d="M491.79,109.09a3.9,3.9,0,0,0,.72,2.33c.26-.2.43-.32.59-.46s0-.09.06-.24a2.49,2.49,0,0,1-.29-.43c-.26-.46-.48-1-1.08-1.2"/><path class="cls-1" d="M491.79,109.09h0v0h0l-.06-.06a.29.29,0,0,0,0,.09h0a.05.05,0,0,0,0,0"/><path class="cls-1" d="M491.67,108.69l-.12.08.18.21-.06-.29"/><path class="cls-1" d="M497.46,120.74l.83-.48a8.61,8.61,0,0,0-1.37-2c-.07-.09-.26-.08-.41-.1.31.83.61,1.65.95,2.58"/><path class="cls-1" d="M496.47,118.16h0v0l-.09-.29c0,.11,0,.21.06.32Z"/><path class="cls-1" d="M454.73,114.12a1,1,0,0,0,.6-.11c.11-.07.16-.29.18-.45.11-.72.19-1.44.28-2.16a6.29,6.29,0,0,0-1.28,2.33c0,.11.12.38.22.39"/><path class="cls-1" d="M470.34,8.68a.73.73,0,0,0-1.27.08,3.59,3.59,0,0,0-.24.94l1.83.37a1.39,1.39,0,0,0-.32-1.39"/><path class="cls-1" d="M462.65,9.09c.26-.66-.06-1.17-.72-1.12a5.53,5.53,0,0,0-1.2.36l1.51,1.28a2.83,2.83,0,0,0,.41-.52"/><path class="cls-1" d="M454.58,12.23l-.66-1.32a2.48,2.48,0,0,0-1.19,1.62,2.25,2.25,0,0,0,1.85-.3"/><path class="cls-1" d="M433.44,23.38a1.64,1.64,0,0,0,1.43-.84,1.83,1.83,0,0,0-1.38-.84.69.69,0,0,0-.83.43,1.3,1.3,0,0,0,0,.95c.09.18.48.3.73.3"/><path class="cls-1" d="M508.46,24.92a3.08,3.08,0,0,0,1.42-2.13,1.22,1.22,0,0,0-1.61.19c-.38.39-.22.85-.09,1.29.05.16.13.31.28.65"/><path class="cls-1" d="M419.86,43.05c-.62-.14-1.05-.68-1.69-.16l.55,2,1.14-1.85"/><path class="cls-1" d="M626.38,35.34a6.54,6.54,0,0,1,6.23-4c.86-3.78,3.62-5.9,6.75-8.06v1.57q0,31.43,0,62.86c0,1.45,0,1.45,1.49,1.45h12.21c0-.44.07-.79.07-1.14q0-8,0-16c0-2.83-1.32-5-3.49-5.68-.53-.17-1.09-.23-1.71-.36,1.15-2.31,2.77-3.74,5.32-3.91a1.21,1.21,0,0,0,1.24-1.06c.71-2.53,2.52-4.26,4.54-5.79.56-.43,1.14-.83,1.89-1.36V89.11h36.91c0-2.12,0-4.19,0-6.25,0-.79-.64-.55-1.06-.55-4.59,0-9.18,0-13.77,0H673.7c0-.46,0-.82,0-1.17.2-3.91.09-7.86.66-11.72,1.37-9.26,7.09-15.15,15.48-18.64,3.73-1.56,7.61-2.77,11.39-4.23a22.1,22.1,0,0,0,2.85-1.73,14.76,14.76,0,0,1,1.64-.68v1.48q0,25.08,0,50.18c0,1-.25,1.28-1.27,1.28q-35.87,0-71.72,0c-1,0-1.28-.26-1.28-1.27q.06-27.12,0-54.23c0-2.09-.51-4-2.35-5.2a13.79,13.79,0,0,0-2.77-1m71.35,39V56.19c-12,2.74-16.2,9.7-15.86,18.19Z"/><path class="cls-1" d="M936.88,97.05h-1.33c-15.71,0-31.41.07-47.11,0a30.15,30.15,0,0,1-14.69-3.58,15.69,15.69,0,0,1-8.09-11.18c-.3-1.52-.47-3.07-.62-4.62-.1-1,0-1,1.35-1.66a58.77,58.77,0,0,0,3.65,5.1c4,4.51,9.13,6.81,15,7.66a43.76,43.76,0,0,0,6,.44c12.21,0,24.41,0,36.62,0h1.46c-.29-3.9.62-7.77-1-11.47a7.32,7.32,0,0,0-5.69-4.36,31.21,31.21,0,0,0-5.62-.55c-8.63-.06-17.27.07-25.9-.07a22.93,22.93,0,0,1-10.93-2.51,10.83,10.83,0,0,1-5.76-9.1c-.35-3.76,1.14-7,2.71-10.19.14-.27.69-.34,1.15-.55.17,1.61.31,3,.49,4.46.84,6.27,4.87,8.8,10.36,9.69a47.5,47.5,0,0,0,7.26.42c7.9,0,15.81,0,23.72,0a22.59,22.59,0,0,1,7.59,1,12.61,12.61,0,0,1,7.7,7.22,24.22,24.22,0,0,1,1.74,9.2c.06,4.41,0,8.82,0,13.23Z"/><path class="cls-1" d="M746,23.24c2.83,2.08,5.73,4.08,6.46,7.77a17.23,17.23,0,0,1,3.77,1.28,18.79,18.79,0,0,1,3,3,16.49,16.49,0,0,0-2.4.57c-2.43,1-3.12,3.12-3.14,5.47-.1,12.82-.22,25.63-.18,38.45A17.25,17.25,0,0,1,736.87,97c-3,.09-5.67.83-7.69,3.18-3.31,3.85-3.75,8.86,1.08,12.46a56.15,56.15,0,0,0,5.39,3.24,1,1,0,0,0,.79.07c2.9-1.29,5.68-2.76,7.69-5.34a7.92,7.92,0,0,0-.16-9.5c-.74-.88-1.57-1.68-2.28-2.44l4.82-2.38a5,5,0,0,0,.73-.47c1.51-1.14,1.51-1.14,2.82.31a12.56,12.56,0,0,1,3.29,8.17,27.69,27.69,0,0,1-.41,6.37c-.48,2.51-2.1,4.45-3.89,6.27-3.44,3.52-7.83,5.43-12.18,7.41a2.1,2.1,0,0,1-1.44,0,37.1,37.1,0,0,1-10.3-5.52c-6.37-5.17-8-11.87-4.82-19.19,2.59-6.07,7.59-9.43,14.13-10.41,1.39-.21,2.84-.13,4.2-.45a9.05,9.05,0,0,0,7-9V23.34Z"/><path class="cls-1" d="M579.64,65c7.52,0,15,0,22.45,0a10.53,10.53,0,0,0,2.7-.22c2.13-.56,4.17-1.29,5.1-3.61.1-.26.68-.4,1.05-.43.16,0,.5.39.51.61.06,3.12-.27,6.15-2.3,8.72a6.86,6.86,0,0,1-5.56,2.74c-4.22,0-8.45,0-12.68,0h-1.22a16.86,16.86,0,0,0,4.49,10.71,16.65,16.65,0,0,0,12.7,5.69c5,0,10,0,15.23,0a9.14,9.14,0,0,1-2.41,4.89,8.51,8.51,0,0,1-6.8,3c-9.25-.09-18.51-.12-27.76,0-4.55.06-8.75-2.59-9.14-7.89h11.84A23.54,23.54,0,0,1,581.2,78a41.56,41.56,0,0,1-1.56-13"/><path class="cls-1" d="M762.1,119.1c-1.67-1.34-1.73-1.36-1-3.08a62.15,62.15,0,0,0,4.09-14,48,48,0,0,0,.71-7.66q.18-26.28.19-52.55a9.8,9.8,0,0,0-1-3.83c-.77-1.69-2.35-2.32-4.25-2.38a6,6,0,0,1,5.06-4,1.58,1.58,0,0,0,1.61-1.34c.69-2.37,2.44-4,4.32-5.45.59-.46,1.21-.88,2-1.45,0,.56.07.94.07,1.32,0,21.61.06,43.21,0,64.82a47.52,47.52,0,0,1-2.34,15.31,34.58,34.58,0,0,1-6.85,11.38c-.85,1-1.72,1.94-2.61,3"/><path class="cls-1" d="M840,119.11c-1.7-1.36-1.64-1.34-1-3.15,1.15-3.31,2.37-6.6,3.26-10a41.38,41.38,0,0,0,1.25-7.91c1-17.75.22-35.52.46-53.29a28.58,28.58,0,0,0-.17-4.9,4.71,4.71,0,0,0-4.87-4.32,5.54,5.54,0,0,1,4.85-4,1.75,1.75,0,0,0,1.74-1.48c.82-2.57,2.8-4.25,4.9-5.78l1.34-.95c0,.49.06.83.06,1.17,0,21.68,0,43.36,0,65a47.56,47.56,0,0,1-2.32,15.19,33.83,33.83,0,0,1-6.87,11.4c-.85,1-1.7,1.95-2.6,3"/><path class="cls-1" d="M820.27,66c1.22-2.42,2.93-3.8,5.52-4a1.19,1.19,0,0,0,.92-.65c.75-2.89,2.8-4.75,5-6.46.42-.33.87-.61,1.48-1,0,.52.08.89.08,1.26,0,12.72.14,25.44,0,38.15a31.61,31.61,0,0,1-6.21,19,26.58,26.58,0,0,1-11.3,8.51,47.45,47.45,0,0,1-13.5,3.17,8.43,8.43,0,0,1-.9,0,18.66,18.66,0,0,1,0-2.6c0-.29.52-.63.86-.74a41.78,41.78,0,0,0,10-4.54,27.69,27.69,0,0,0,12.19-15.42,22.26,22.26,0,0,0,1-6.4c.12-7.43.05-14.86,0-22.3,0-2.76-1.19-4.75-3.33-5.54a14.31,14.31,0,0,0-1.84-.42"/><path class="cls-1" d="M730.42,87.57l-7.62,3.94a12.8,12.8,0,0,1-3.69-8.85c-.27-9.23-.31-18.47-.4-27.71-.05-4.59,0-9.18,0-13.77,0-2.35-.77-4.37-3.13-5.36a12.3,12.3,0,0,0-2-.48c1.17-2.79,3.34-4,6.31-4.07.69-3.84,3.62-5.88,6.71-8.2v1.45c0,18,0,35.92,0,53.88,0,2.15,0,4.4,1.27,6.29a26.7,26.7,0,0,0,2.57,2.88"/><path class="cls-1" d="M722.07,129.67c3.06,0,5.79-.11,8.5,0a5.37,5.37,0,0,1,4.27,2.79l-2.6,2.55c-1.36-1.26-3.12-1.22-4.89-1.11a3.44,3.44,0,0,0,3.39,4.34h4.91c.34,0,.69,0,1.38.09-.87,1.26-1.52,2.33-2.3,3.29a1.85,1.85,0,0,1-1.25.47c-3.83,0-7.65,0-11.47,0a1.69,1.69,0,0,1-1.2-.66c-.56-.93-1-2-1.55-3.16h3.52c-.24-3-.47-5.81-.71-8.63"/><path class="cls-1" d="M665.26,44.11a4,4,0,0,1-4,3.93,4.14,4.14,0,0,1-4.15-3.91,4.37,4.37,0,0,1,4-4.07,4.2,4.2,0,0,1,4.1,4"/><path class="cls-1" d="M647.86,44a4,4,0,1,1,8,.13,3.9,3.9,0,0,1-4,3.86,3.85,3.85,0,0,1-4-4"/><path class="cls-1" d="M687.4,41.84a3.86,3.86,0,0,1-4.08-3.77,4.07,4.07,0,0,1,3.94-4.13,4.17,4.17,0,0,1,4.14,4,3.93,3.93,0,0,1-4,3.86"/><text class="cls-2" transform="translate(0 184.01)">T</text><text class="cls-2" transform="translate(27.04 184.01)">h</text><text class="cls-2" transform="translate(54.07 184.01)">e </text><text class="cls-2" transform="translate(92.82 184.01)">C</text><text class="cls-2" transform="translate(123.64 184.01)">o</text><text class="cls-2" transform="translate(150.68 184.01)">m</text><text class="cls-2" transform="translate(187.17 184.01)">p</text><text class="cls-2" transform="translate(214.21 184.01)">l</text><text class="cls-2" transform="translate(229.93 184.01)">e</text><text class="cls-2" transform="translate(255.11 184.01)">t</text><text class="cls-2" transform="translate(274.77 184.01)">e </text><text class="cls-2" transform="translate(316.89 184.01)">S</text><text class="cls-2" transform="translate(345.83 184.01)">o</text><text class="cls-2" transform="translate(372.87 184.01)">l</text><text class="cls-2" transform="translate(388.59 184.01)">u</text><text class="cls-2" transform="translate(415.62 184.01)">t</text><text class="cls-2" transform="translate(433.22 184.01)">i</text><text class="cls-2" transform="translate(448.94 184.01)">o</text><text class="cls-2" transform="translate(475.98 184.01)">n </text><text class="cls-2" transform="translate(519.68 184.01)">f</text><text class="cls-2" transform="translate(537.27 184.01)">o</text><text class="cls-2" transform="translate(564.31 184.01)">r </text><text class="cls-2" transform="translate(602.55 184.01)">i</text><text class="cls-2" transform="translate(618.27 184.01)">s</text><text class="cls-2" transform="translate(643.44 184.01)">l</text><text class="cls-2" transform="translate(659.17 184.01)">a</text><text class="cls-2" transform="translate(684.34 184.01)">m</text><text class="cls-2" transform="translate(720.84 184.01)">i</text><text class="cls-2" transform="translate(736.56 184.01)">c </text><text class="cls-2" transform="translate(775.82 184.01)">Q</text><text class="cls-2" transform="translate(808.53 184.01)">u</text><text class="cls-2" transform="translate(835.57 184.01)">e</text><text class="cls-2" transform="translate(860.75 184.01)">r</text><text class="cls-2" transform="translate(880.25 184.01)">i</text><text class="cls-2" transform="translate(895.97 184.01)">e</text><text class="cls-2" transform="translate(921.15 184.01)">s</text></g></g></svg>