<?xml version="1.0" encoding="utf-8"?>
<!-- Generator: Adobe Illustrator 23.0.2, SVG Export Plug-In . SVG Version: 6.00 Build 0)  -->
<svg version="1.1" id="Layer_1" xmlns="http://www.w3.org/2000/svg" xmlns:xlink="http://www.w3.org/1999/xlink" x="0px" y="0px"
	 viewBox="0 0 1080 1080" style="enable-background:new 0 0 1080 1080;" xml:space="preserve">
<style type="text/css">
	.st0{fill:#CAE3E4;}
	.st1{opacity:0.14;}
	.st2{clip-path:url(#SVGID_2_);}
	.st3{clip-path:url(#SVGID_4_);fill:#054163;}
	.st4{fill:#409EA1;}
	.st5{fill:#53B8BB;}
	.st6{fill:#5E8399;}
	.st7{fill:#99B0BC;}
	.st8{fill:#235775;}
	.st9{fill:#A3D5D6;}
</style>
<image style="display:none;overflow:visible;" width="2300" height="1600" xlink:href="../transparent.png"  transform="matrix(0.7867 0 0 0.7867 -373.8436 -94.9036)">
</image>
<g>
	<path class="st0" d="M252.8,264.2c16.9-29.9,109.2-73.3,109.3-73.3v0h0h0v0c0.1,0,92.5,43.4,109.3,73.3c11.3,20,8.3,89.8,8.3,89.8
		l0,99.8H336.6l25.6-261.9l-0.2,261.9H244.5V354C244.5,354,241.5,284.2,252.8,264.2"/>
	<g class="st1">
		<g>
			<defs>
				<rect id="SVGID_1_" x="40.1" y="361.4" width="269.9" height="300.8"/>
			</defs>
			<clipPath id="SVGID_2_">
				<use xlink:href="#SVGID_1_"  style="overflow:visible;"/>
			</clipPath>
			<g class="st2">
				<defs>
					<rect id="SVGID_3_" x="40.1" y="361.4" width="269.9" height="300.8"/>
				</defs>
				<clipPath id="SVGID_4_">
					<use xlink:href="#SVGID_3_"  style="overflow:visible;"/>
				</clipPath>
				<path class="st3" d="M66.2,459.3c16.9-29.9,109.2-73.3,109.3-73.3v0l0,0h0v0c0.1,0,92.5,43.4,109.3,73.3
					c11.3,20,8.3,89.8,8.3,89.8v99.8H175.7L175.6,387l26.9,261.9H57.9v-99.8C57.9,549.1,55,479.3,66.2,459.3"/>
			</g>
		</g>
	</g>
	<path class="st4" d="M733.8,256.7c16.9-29.9,109.2-73.3,109.3-73.3v0h0h0v0c0.1,0,92.5,43.4,109.3,73.3c11.3,20,8.3,89.8,8.3,89.8
		v99.8H829.8l13.3-261.9l-0.2,261.9H725.5l0-99.8C725.5,346.6,722.5,276.8,733.8,256.7"/>
	<path class="st5" d="M218.5,372.9c19.3-34.2,124.9-83.8,125-83.9v0h0h0v0c0.1,0.1,105.7,49.6,125,83.9
		c12.9,22.9,9.5,102.8,9.5,102.8v114.2L320.5,588l23-297.8l-0.2,299.6H209l0-114.2C209,475.6,205.6,395.8,218.5,372.9"/>
	<path class="st6" d="M401.3,231.9c26.2-46.6,169.9-114,170-114v0l0,0h0v0c0.1,0.1,143.8,67.5,170,114
		c17.5,31.1,12.9,139.7,12.9,139.7v155.2H552.8l18.5-407.4l-0.3,407.4H388.4V371.6C388.4,371.6,383.8,263,401.3,231.9"/>
	<path class="st7" d="M649.9,424.8c26.2-46.6,169.9-114,170-114v0h0h0v0c0.1,0.1,143.8,67.5,170,114
		c17.5,31.1,12.9,139.7,12.9,139.7l0,155.2h-197l14.1-407.4l-0.3,407.4H637V564.5C637,564.5,632.4,455.9,649.9,424.8"/>
	<path class="st7" d="M102.1,595.9c26.2-46.6,169.9-114,170-114v0l0,0v0v0c0.1,0.1,143.8,67.5,170,114
		C459.6,627,455,735.6,455,735.6l0,155.2H272.4l-0.3-407.4l15.6,407.4H89.2V735.6C89.2,735.6,84.6,627,102.1,595.9"/>
	<path class="st8" d="M386,540.2c30-53.3,194.3-130.4,194.4-130.5v0h0h0v0c0.2,0.1,164.5,77.2,194.5,130.5
		C795,575.8,789.7,700,789.7,700l0,177.6H580.8l-0.3-465.9L607,877.5H371.2l0-177.6C371.2,700,365.9,575.8,386,540.2"/>
	<path class="st9" d="M754.9,714.7c19.3-34.2,124.9-83.8,125-83.9v0l0,0l0,0v0c0.1,0.1,105.7,49.6,125,83.9
		c12.9,22.9,9.5,102.8,9.5,102.8l0,114.2H880.2L880,632.1L893,931.7H745.4V817.5C745.4,817.5,742,737.6,754.9,714.7"/>
</g>
</svg>
