<svg xmlns="http://www.w3.org/2000/svg" viewBox="0 0 89.53 89.53"><defs><style>.cls-1{fill:#0f2836;stroke:#fff;stroke-miterlimit:10;stroke-width:2px;}.cls-2{fill:#fff;}</style></defs><title>Asset 7</title><g id="Layer_2" data-name="Layer 2"><g id="Layer_1-2" data-name="Layer 1"><rect class="cls-1" x="1" y="1" width="87.53" height="87.53" rx="22.16"/><path class="cls-2" d="M68.65,30.25a19.16,19.16,0,0,1-4.77,1.36c.77-.13,1.9-1.52,2.35-2.08a8.73,8.73,0,0,0,1.58-2.88c0-.09.07-.19,0-.25a.27.27,0,0,0-.25,0,24.23,24.23,0,0,1-5.66,2.16.37.37,0,0,1-.38-.1A4.84,4.84,0,0,0,61,28a10.15,10.15,0,0,0-2.74-1.68,9.55,9.55,0,0,0-4.2-.67,9.91,9.91,0,0,0-4,1.13,10.21,10.21,0,0,0-3.22,2.62A9.93,9.93,0,0,0,45,33.21a10.52,10.52,0,0,0-.1,4.07c0,.22,0,.25-.19.22-7.77-1.15-14.21-3.93-19.43-9.89-.23-.25-.35-.25-.54,0-2.28,3.43-1.18,8.94,1.68,11.64.38.36.78.72,1.19,1.06a10.15,10.15,0,0,1-3.74-1.06c-.23-.14-.34-.06-.36.2a6,6,0,0,0,.06,1.11,9.94,9.94,0,0,0,6.14,7.94,6,6,0,0,0,1.24.39,11.19,11.19,0,0,1-3.67.11c-.27-.05-.37.08-.27.34,1.62,4.41,5.11,5.72,7.72,6.47.35.06.7.06,1,.14,0,0,0,0-.06.06-.86,1.33-3.87,2.31-5.27,2.8a19,19,0,0,1-8,1c-.42-.07-.52-.06-.63,0s0,.17.12.28c.55.36,1.1.68,1.67,1a26,26,0,0,0,5.35,2.14c9.63,2.66,20.47.71,27.7-6.47,5.67-5.64,7.67-13.42,7.67-21.21,0-.3.36-.47.57-.63A18.7,18.7,0,0,0,68.6,31a1.17,1.17,0,0,0,.25-.75v0C68.85,30.13,68.85,30.16,68.65,30.25Z"/></g></g></svg>