<svg xmlns="http://www.w3.org/2000/svg" viewBox="0 0 89.53 89.53"><defs><style>.cls-1{fill:#0f2836;stroke:#fff;stroke-miterlimit:10;stroke-width:2px;}.cls-2,.cls-3{fill:#fff;}.cls-3{fill-rule:evenodd;}</style></defs><title>Asset 6</title><g id="Layer_2" data-name="Layer 2"><g id="Layer_1-2" data-name="Layer 1"><rect class="cls-1" x="1" y="1" width="87.53" height="87.53" rx="22.16"/><path class="cls-2" d="M21.41,70,25,56.53a24.91,24.91,0,1,1,9.92,9.83ZM35.6,61.32l.85.5A20.23,20.23,0,1,0,29.54,55l.52.86-2,7.51Z"/><path class="cls-3" d="M56,48c-1-.62-2.35-1.3-3.56-.8-.92.37-1.51,1.82-2.11,2.56a.88.88,0,0,1-1.15.24,16.09,16.09,0,0,1-8-6.88,1,1,0,0,1,.12-1.35,5.43,5.43,0,0,0,1.46-2.37,5.1,5.1,0,0,0-.65-2.8c-.49-1.05-1-2.54-2.07-3.13a2.85,2.85,0,0,0-3.09.46,6.26,6.26,0,0,0-2.16,5,6.88,6.88,0,0,0,.19,1.57,13,13,0,0,0,1.51,3.48A27.49,27.49,0,0,0,38,46.33a24.32,24.32,0,0,0,6.84,6.34,20.31,20.31,0,0,0,4.26,2c1.67.55,3.16,1.13,5,.78a6,6,0,0,0,4.5-3.34,3,3,0,0,0,.21-1.71C58.51,49.25,56.92,48.55,56,48Z"/></g></g></svg>