<svg xmlns="http://www.w3.org/2000/svg" viewBox="0 0 89.53 89.53"><defs><style>.cls-1{fill:#0f2836;stroke:#fff;stroke-miterlimit:10;stroke-width:2px;}.cls-2{fill:#fff;}</style></defs><title>Asset 5</title><g id="Layer_2" data-name="Layer 2"><g id="Layer_1-2" data-name="Layer 1"><rect class="cls-1" x="1" y="1" width="87.53" height="87.53" rx="22.16"/><path class="cls-2" d="M67.91,39.48A10.38,10.38,0,0,0,57.53,29.1H31A10.39,10.39,0,0,0,20.6,39.48V51.84A10.39,10.39,0,0,0,31,62.22H57.53A10.38,10.38,0,0,0,67.91,51.84ZM52.3,46.59,40.4,52.48c-.47.25-2.06-.09-2.06-.62V39.77c0-.54,1.6-.88,2.07-.61l11.39,6.2C52.28,45.63,52.78,46.33,52.3,46.59Z"/></g></g></svg>