<?xml version="1.0" encoding="utf-8"?>
<!-- Generator: Adobe Illustrator 24.3.0, SVG Export Plug-In . SVG Version: 6.00 Build 0)  -->
<svg version="1.1" id="Layer_1" xmlns="http://www.w3.org/2000/svg" xmlns:xlink="http://www.w3.org/1999/xlink" x="0px" y="0px"
	 viewBox="0 0 50 50" style="enable-background:new 0 0 50 50;" xml:space="preserve">
<style type="text/css">
	.st0{opacity:0.12;}
	.st1{fill:#CAE3E4;}
	.st2{opacity:0.14;}
	.st3{clip-path:url(#SVGID_2_);}
	.st4{clip-path:url(#SVGID_4_);fill:#054163;}
	.st5{fill:#409EA1;}
	.st6{fill:#53B8BB;}
	.st7{fill:#5E8399;}
	.st8{fill:#99B0BC;}
	.st9{fill:#235775;}
	.st10{fill:#A3D5D6;}
	.st11{clip-path:url(#SVGID_6_);}
	.st12{clip-path:url(#SVGID_8_);fill:#054163;}
	.st13{fill:#295774;}
	.st14{fill:#FFFFFF;}
	.st15{fill:#00953F;}
	.st16{fill:#295774;stroke:#F9F7F7;stroke-width:0.25;stroke-miterlimit:10;}
</style>
<g>
	<g>
		<g class="st0">
			<path class="st1" d="M4.53,13.88c1.07-1.9,6.95-4.66,6.95-4.66l0,0l0,0l0,0l0,0c0.01,0,5.88,2.76,6.95,4.66
				c0.72,1.27,0.53,5.71,0.53,5.71v6.35h-9.1l1.63-16.66l-0.01,16.66H4v-6.35C4,19.59,3.81,15.15,4.53,13.88"/>
			<g class="st2">
				<g>
					<g>
						<defs>
							<rect id="SVGID_1_" x="-9" y="20.06" width="17.17" height="19.13"/>
						</defs>
						<clipPath id="SVGID_2_">
							<use xlink:href="#SVGID_1_"  style="overflow:visible;"/>
						</clipPath>
						<g class="st3">
							<g>
								<defs>
									<rect id="SVGID_3_" x="-9" y="20.06" width="17.17" height="19.13"/>
								</defs>
								<clipPath id="SVGID_4_">
									<use xlink:href="#SVGID_3_"  style="overflow:visible;"/>
								</clipPath>
								<path class="st4" d="M-7.34,26.29c1.07-1.9,6.95-4.66,6.95-4.66l0,0l0,0l0,0l0,0c0.01,0,5.88,2.76,6.95,4.66
									C7.28,27.56,7.09,32,7.09,32v6.35h-7.47l-0.01-16.66l1.71,16.66h-9.2V32C-7.87,32-8.05,27.56-7.34,26.29"/>
							</g>
						</g>
					</g>
				</g>
			</g>
			<path class="st5" d="M35.13,13.4c1.07-1.9,6.95-4.66,6.95-4.66l0,0l0,0l0,0l0,0c0.01,0,5.88,2.76,6.95,4.66
				c0.72,1.27,0.53,5.71,0.53,5.71v6.35h-8.33L42.08,8.8l-0.01,16.66H34.6v-6.35C34.6,19.12,34.41,14.68,35.13,13.4"/>
			<path class="st6" d="M2.35,20.79c1.23-2.18,7.94-5.33,7.95-5.34l0,0l0,0l0,0l0,0c0.01,0.01,6.72,3.16,7.95,5.34
				c0.82,1.46,0.6,6.54,0.6,6.54v7.26L8.84,34.47l1.46-18.94l-0.01,19.06H1.74v-7.26C1.74,27.32,1.53,22.25,2.35,20.79"/>
			<path class="st7" d="M13.98,11.82c1.67-2.96,10.81-7.25,10.81-7.25l0,0l0,0l0,0l0,0c0.01,0.01,9.15,4.29,10.81,7.25
				c1.11,1.98,0.82,8.89,0.82,8.89v9.87H23.61l1.18-25.91l-0.02,25.91H13.16v-9.87C13.16,20.71,12.86,13.8,13.98,11.82"/>
			<path class="st8" d="M29.79,24.09c1.67-2.96,10.81-7.25,10.81-7.25l0,0l0,0l0,0l0,0c0.01,0.01,9.15,4.29,10.81,7.25
				c1.11,1.98,0.82,8.89,0.82,8.89v9.87H39.71l0.9-25.91l-0.02,25.91H28.97v-9.87C28.97,32.98,28.68,26.07,29.79,24.09"/>
			<path class="st8" d="M-5.06,34.98c1.67-2.96,10.81-7.25,10.81-7.25l0,0l0,0l0,0l0,0c0.01,0.01,9.15,4.29,10.81,7.25
				c1.11,1.98,0.82,8.89,0.82,8.89v9.87H5.78L5.76,27.82l0.99,25.91H-5.88v-9.87C-5.88,43.86-6.17,36.95-5.06,34.98"/>
			<path class="st9" d="M13,31.43c1.91-3.39,12.36-8.29,12.37-8.3l0,0l0,0l0,0l0,0c0.01,0.01,10.46,4.91,12.37,8.3
				c1.28,2.26,0.94,10.16,0.94,10.16v11.3H25.39l-0.02-29.64l1.69,29.63h-15v-11.3C12.06,41.6,11.72,33.7,13,31.43"/>
			<path class="st10" d="M36.47,42.53c1.23-2.18,7.94-5.33,7.95-5.34l0,0l0,0l0,0l0,0c0.01,0.01,6.72,3.16,7.95,5.34
				c0.82,1.46,0.6,6.54,0.6,6.54v7.26h-8.54l-0.01-19.06l0.83,19.06h-9.39v-7.26C35.86,49.07,35.65,43.99,36.47,42.53"/>
		</g>
		<g>
			<path class="st1" d="M13.01,15.85c0.65-1.15,4.2-2.82,4.2-2.82l0,0l0,0l0,0l0,0c0,0,3.55,1.67,4.2,2.82
				c0.43,0.77,0.32,3.45,0.32,3.45v3.84h-5.5l0.98-10.07L17.2,23.14h-4.52V19.3C12.69,19.3,12.57,16.62,13.01,15.85"/>
			<g class="st2">
				<g>
					<g>
						<defs>
							<rect id="SVGID_5_" x="4.83" y="19.59" width="10.37" height="11.56"/>
						</defs>
						<clipPath id="SVGID_6_">
							<use xlink:href="#SVGID_5_"  style="overflow:visible;"/>
						</clipPath>
						<g class="st11">
							<g>
								<defs>
									<rect id="SVGID_7_" x="4.83" y="19.59" width="10.37" height="11.56"/>
								</defs>
								<clipPath id="SVGID_8_">
									<use xlink:href="#SVGID_7_"  style="overflow:visible;"/>
								</clipPath>
								<path class="st12" d="M5.84,23.35c0.65-1.15,4.2-2.82,4.2-2.82l0,0l0,0l0,0l0,0c0,0,3.55,1.67,4.2,2.82
									c0.43,0.77,0.32,3.45,0.32,3.45v3.84h-4.51l0-10.07l1.03,10.07H5.52V26.8C5.52,26.8,5.41,24.12,5.84,23.35"/>
							</g>
						</g>
					</g>
				</g>
			</g>
			<path class="st5" d="M31.49,15.56c0.65-1.15,4.2-2.82,4.2-2.82l0,0l0,0l0,0l0,0c0,0,3.55,1.67,4.2,2.82
				c0.43,0.77,0.32,3.45,0.32,3.45v3.84h-5.03l0.51-10.07l-0.01,10.07h-4.51v-3.84C31.17,19.02,31.06,16.34,31.49,15.56"/>
			<path class="st6" d="M11.69,20.03c0.74-1.31,4.8-3.22,4.8-3.22l0,0l0,0l0,0l0,0c0,0,4.06,1.91,4.8,3.22
				c0.5,0.88,0.37,3.95,0.37,3.95v4.39l-6.05-0.07l0.88-11.45l-0.01,11.51h-5.16v-4.39C11.32,23.98,11.19,20.91,11.69,20.03"/>
			<path class="st7" d="M18.71,14.61c1.01-1.79,6.53-4.38,6.53-4.38l0,0l0,0l0,0l0,0c0,0,5.53,2.59,6.53,4.38
				c0.67,1.2,0.5,5.37,0.5,5.37v5.96h-7.74l0.71-15.66l-0.01,15.66h-7.02v-5.96C18.22,19.98,18.04,15.81,18.71,14.61"/>
			<path class="st8" d="M28.27,22.02c1.01-1.79,6.53-4.38,6.53-4.38l0,0l0,0l0,0l0,0c0,0,5.53,2.59,6.53,4.38
				c0.67,1.2,0.5,5.37,0.5,5.37v5.96h-7.57L34.8,17.7l-0.01,15.66h-7.02v-5.96C27.77,27.39,27.6,23.22,28.27,22.02"/>
			<path class="st8" d="M7.22,28.6c1.01-1.79,6.53-4.38,6.53-4.38l0,0l0,0l0,0l0,0c0,0,5.53,2.59,6.53,4.38
				c0.67,1.2,0.5,5.37,0.5,5.37v5.96h-7.02l-0.01-15.66l0.6,15.66H6.72v-5.96C6.72,33.97,6.54,29.79,7.22,28.6"/>
			<path class="st9" d="M18.13,26.46c1.15-2.05,7.47-5.01,7.47-5.02l0,0l0,0l0,0l0,0c0.01,0,6.32,2.97,7.48,5.02
				c0.77,1.37,0.57,6.14,0.57,6.14v6.83h-8.03L25.6,21.52l1.02,17.9h-9.06V32.6C17.56,32.6,17.35,27.83,18.13,26.46"/>
			<path class="st10" d="M32.3,33.17c0.74-1.31,4.8-3.22,4.8-3.22l0,0l0,0l0,0l0,0c0,0,4.06,1.91,4.8,3.22
				c0.5,0.88,0.37,3.95,0.37,3.95v4.39h-5.16l-0.01-11.51l0.5,11.51h-5.67v-4.39C31.94,37.12,31.81,34.05,32.3,33.17"/>
		</g>
		<path class="st13" d="M43.7,40.04H6.12c-1.37,0-2.48-1.11-2.48-2.48v-1.45c0-1.37,1.11-2.48,2.48-2.48H43.7
			c1.37,0,2.48,1.11,2.48,2.48v1.45C46.18,38.93,45.07,40.04,43.7,40.04z"/>
	</g>
	<g>
		<polygon class="st14" points="9.32,36.19 10.84,35.02 10.06,35.02 8.12,36.5 8.12,35.02 7.55,35.02 7.55,38.25 7.61,38.25 
			8.12,38.25 8.12,37.11 8.9,36.53 10.32,38.25 11.02,38.25 		"/>
		<polygon class="st15" points="13.49,35.01 13.44,35.01 13.14,35.01 13.09,35.01 11.45,38.25 12.13,38.25 13.29,35.96 14.46,38.25 
			15.15,38.25 		"/>
		<g>
			<path class="st14" d="M17.99,35v2c0,0.28-0.07,0.45-0.18,0.53c-0.11,0.08-0.38,0.14-0.79,0.14c-0.41,0-0.68-0.05-0.79-0.14
				c-0.11-0.08-0.18-0.25-0.18-0.53v-2h-0.63v0.07v2.05c0,0.39,0.13,0.69,0.39,0.86c0.26,0.18,0.66,0.26,1.21,0.26
				c0.55,0,0.95-0.08,1.22-0.26c0.26-0.18,0.39-0.48,0.39-0.86V35H17.99z"/>
			<polygon class="st14" points="22,35.01 19.06,35.01 19.06,35.61 20.8,35.61 18.8,38.25 18.96,38.25 21.9,38.25 21.9,37.65 
				19.98,37.65 			"/>
			<path class="st14" d="M29.06,36.87c0.19-0.05,0.36-0.15,0.49-0.29c0.15-0.17,0.23-0.38,0.23-0.62c0-0.29-0.1-0.52-0.29-0.69
				c-0.2-0.17-0.46-0.25-0.79-0.25h-2.2v3.23h0.63V36.9h1.23l0.88,1.35h0.7L29.06,36.87z M27.12,35.61h1.57
				c0.16,0,0.27,0.03,0.33,0.09c0.07,0.06,0.1,0.13,0.1,0.25c0,0.12-0.04,0.2-0.1,0.25c-0.07,0.06-0.18,0.09-0.33,0.09h-1.57V35.61z
				"/>
			<polygon class="st14" points="30.38,35 30.38,38.25 30.46,38.25 31.02,38.25 31.02,35 			"/>
			<path class="st15" d="M32.09,33.48h0.14c0,0,0.97,0.79,1.32,1.01c0.46,0.29,1.02,0.33,1.02,0.98v0.44L32.09,33.48z"/>
			<path class="st15" d="M37.17,33.48h-0.14c0,0-0.97,0.79-1.32,1.01c-0.46,0.29-1.02,0.36-1.02,0.98v0.44L37.17,33.48z"/>
			<polygon class="st14" points="33.87,35.42 33.87,35.42 31.87,33.48 31.68,33.48 33.78,35.52 33.27,36.07 32.28,35.01 
				31.45,35.01 32.96,36.63 32.96,38.25 33.03,38.25 33.58,38.25 33.58,36.62 34.22,35.94 34.22,35.94 34.31,35.85 34.01,35.56 			
				"/>
			<polygon class="st14" points="35.98,36.07 35.47,35.52 37.57,33.48 37.38,33.48 34.94,35.85 35.02,35.93 35.67,36.63 
				35.67,38.25 35.74,38.25 36.29,38.25 36.29,36.62 37.81,35.01 36.96,35.01 			"/>
			<polygon class="st14" points="39.41,35.01 39.37,35.01 39.06,35.01 39.02,35.01 37.37,38.25 38.05,38.25 39.22,35.96 
				40.39,38.25 41.07,38.25 			"/>
			<polygon class="st14" points="24.39,35.01 24.34,35.01 24.04,35.01 23.99,35.01 22.34,38.25 23.02,38.25 24.19,35.96 
				25.36,38.25 26.05,38.25 			"/>
			<g>
				<path class="st16" d="M8.86,21.43c0.14-0.31,0.39-0.45,0.72-0.46c0.1-0.44,0.42-0.69,0.79-0.94v0.18c0,2.44,0,4.88,0,7.32
					c0,0.17,0,0.17,0.17,0.17c0.42,0,0.85,0,1.27,0h0.15c0-0.05,0.01-0.09,0.01-0.13c0-0.62,0-1.24,0-1.86
					c0-0.33-0.15-0.58-0.41-0.66c-0.06-0.02-0.13-0.03-0.2-0.04c0.13-0.27,0.32-0.44,0.62-0.45c0.08,0,0.12-0.04,0.14-0.12
					c0.08-0.29,0.29-0.5,0.53-0.67c0.07-0.05,0.13-0.1,0.22-0.16v4.1h4.3c0-0.25,0-0.49,0-0.73c0-0.09-0.07-0.06-0.12-0.06
					c-0.53,0-1.07,0-1.6,0h-0.93h-0.15c0-0.05,0-0.09,0-0.14c0.02-0.46,0.01-0.92,0.08-1.36c0.16-1.08,0.83-1.76,1.8-2.17
					c0.43-0.18,0.89-0.32,1.33-0.49c0.12-0.05,0.22-0.14,0.33-0.2c0.05-0.03,0.11-0.05,0.19-0.08v0.17c0,1.95,0,3.89,0,5.84
					c0,0.12-0.03,0.15-0.15,0.15c-2.78,0-5.56,0-8.35,0c-0.12,0-0.15-0.03-0.15-0.15c0-2.1,0-4.21,0-6.31c0-0.24-0.06-0.46-0.27-0.6
					C9.1,21.49,8.98,21.47,8.86,21.43 M17.17,25.97v-2.12c-1.39,0.32-1.89,1.13-1.85,2.12H17.17z"/>
				<path class="st16" d="M45,28.61h-0.15c-1.83,0-3.66,0.01-5.48-0.01c-0.6,0-1.18-0.12-1.71-0.42c-0.52-0.29-0.83-0.72-0.94-1.3
					c-0.03-0.18-0.05-0.36-0.07-0.54c-0.01-0.11,0-0.12,0.16-0.19c0.14,0.2,0.27,0.41,0.43,0.59c0.46,0.52,1.06,0.79,1.74,0.89
					c0.23,0.03,0.46,0.05,0.69,0.05c1.42,0,2.84,0,4.26,0h0.17c-0.03-0.45,0.07-0.9-0.12-1.33c-0.13-0.29-0.36-0.45-0.66-0.51
					c-0.21-0.04-0.44-0.06-0.65-0.06c-1-0.01-2.01,0.01-3.01-0.01c-0.44-0.01-0.87-0.07-1.27-0.29c-0.42-0.23-0.63-0.59-0.67-1.06
					c-0.04-0.44,0.13-0.81,0.32-1.19c0.02-0.03,0.08-0.04,0.13-0.06c0.02,0.19,0.04,0.35,0.06,0.52c0.1,0.73,0.57,1.02,1.21,1.13
					c0.28,0.04,0.56,0.05,0.84,0.05c0.92,0.01,1.84,0,2.76,0c0.3,0,0.6,0.02,0.88,0.12c0.42,0.15,0.72,0.43,0.9,0.84
					c0.14,0.34,0.2,0.7,0.2,1.07c0.01,0.51,0,1.03,0,1.54V28.61z"/>
				<path class="st16" d="M22.78,20.02c0.33,0.24,0.67,0.47,0.75,0.9c0.15,0.05,0.31,0.07,0.44,0.15c0.13,0.08,0.22,0.21,0.34,0.34
					c-0.12,0.03-0.21,0.04-0.28,0.07c-0.28,0.12-0.36,0.36-0.36,0.64c-0.01,1.49-0.03,2.98-0.02,4.47c0,0.52-0.16,0.96-0.5,1.34
					c-0.38,0.43-0.86,0.66-1.43,0.68c-0.35,0.01-0.66,0.1-0.89,0.37c-0.39,0.45-0.44,1.03,0.13,1.45c0.19,0.14,0.42,0.25,0.63,0.38
					c0.02,0.01,0.07,0.02,0.09,0.01c0.34-0.15,0.66-0.32,0.9-0.62c0.24-0.31,0.23-0.81-0.02-1.11c-0.09-0.1-0.18-0.2-0.27-0.28
					c0.18-0.09,0.37-0.18,0.56-0.28c0.03-0.02,0.06-0.03,0.09-0.05c0.18-0.13,0.18-0.13,0.33,0.04c0.24,0.27,0.37,0.59,0.38,0.95
					c0.01,0.25,0,0.5-0.05,0.74c-0.06,0.29-0.25,0.52-0.45,0.73c-0.4,0.41-0.91,0.63-1.42,0.86c-0.05,0.02-0.12,0.02-0.17,0.01
					c-0.43-0.17-0.84-0.35-1.2-0.64c-0.74-0.6-0.92-1.38-0.56-2.23c0.3-0.71,0.88-1.1,1.64-1.21c0.16-0.02,0.33-0.01,0.49-0.05
					c0.49-0.12,0.81-0.54,0.81-1.04v-6.42v-0.16L22.78,20.02z"/>
				<path class="st16" d="M3.42,24.88c0.87,0,1.74,0,2.61,0c0.11,0,0.21,0,0.31-0.03c0.25-0.06,0.48-0.15,0.59-0.42
					c0.01-0.03,0.08-0.05,0.12-0.05c0.02,0,0.06,0.05,0.06,0.07c0.01,0.36-0.03,0.72-0.27,1.02c-0.16,0.21-0.38,0.32-0.65,0.32
					c-0.49,0-0.98,0-1.48,0H4.59c0.03,0.49,0.2,0.9,0.52,1.25c0.4,0.43,0.88,0.66,1.48,0.66c0.58,0,1.17,0,1.77,0
					c-0.03,0.23-0.14,0.41-0.28,0.57c-0.21,0.24-0.47,0.35-0.79,0.35c-1.08-0.01-2.15-0.01-3.23,0C3.53,28.62,3.04,28.31,3,27.7
					h1.38c-0.4-0.37-0.63-0.82-0.77-1.31C3.46,25.9,3.41,25.4,3.42,24.88"/>
				<path class="st16" d="M24.66,31.18c-0.19-0.16-0.2-0.16-0.12-0.36c0.22-0.53,0.38-1.07,0.48-1.64c0.05-0.29,0.08-0.59,0.08-0.89
					c0.01-2.04,0.02-4.08,0.02-6.12c0-0.15-0.05-0.31-0.11-0.45c-0.09-0.2-0.27-0.27-0.49-0.28c0.12-0.28,0.31-0.43,0.59-0.47
					c0.11-0.01,0.16-0.05,0.19-0.16c0.08-0.28,0.28-0.46,0.5-0.63c0.07-0.05,0.14-0.1,0.23-0.17c0,0.07,0.01,0.11,0.01,0.15
					c0,2.51,0.01,5.03,0,7.54c0,0.6-0.07,1.2-0.27,1.78c-0.17,0.5-0.45,0.93-0.8,1.32C24.86,30.95,24.76,31.06,24.66,31.18"/>
				<path class="st16" d="M33.73,31.18c-0.2-0.16-0.19-0.16-0.12-0.37c0.13-0.38,0.28-0.77,0.38-1.16c0.08-0.3,0.13-0.61,0.15-0.92
					c0.12-2.07,0.03-4.13,0.05-6.2c0-0.19,0.01-0.38-0.02-0.57c-0.05-0.31-0.24-0.49-0.57-0.5c0.06-0.24,0.29-0.44,0.56-0.47
					c0.12-0.01,0.17-0.06,0.2-0.17c0.09-0.3,0.33-0.49,0.57-0.67c0.05-0.03,0.09-0.07,0.16-0.11c0,0.06,0.01,0.1,0.01,0.14
					c0,2.52,0.01,5.05,0,7.57c0,0.6-0.08,1.19-0.27,1.77c-0.17,0.5-0.45,0.93-0.8,1.33C33.93,30.95,33.83,31.06,33.73,31.18"/>
				<path class="st16" d="M31.43,25c0.14-0.28,0.34-0.44,0.64-0.46c0.04,0,0.1-0.04,0.11-0.08c0.09-0.34,0.33-0.55,0.59-0.75
					c0.05-0.04,0.1-0.07,0.17-0.12c0,0.06,0.01,0.1,0.01,0.15c0,1.48,0.02,2.96-0.01,4.44c-0.01,0.8-0.23,1.56-0.72,2.21
					c-0.34,0.45-0.79,0.77-1.31,0.99c-0.5,0.21-1.03,0.32-1.57,0.37c-0.03,0-0.06,0-0.1-0.01c0-0.1-0.01-0.2,0-0.3
					c0-0.03,0.06-0.07,0.1-0.09c0.41-0.12,0.8-0.3,1.16-0.53c0.69-0.43,1.17-1.02,1.42-1.79c0.08-0.24,0.11-0.5,0.11-0.75
					c0.01-0.86,0.01-1.73,0-2.59c0-0.32-0.14-0.55-0.39-0.65C31.58,25.03,31.51,25.02,31.43,25"/>
				<path class="st16" d="M20.97,27.51c-0.29,0.15-0.59,0.3-0.89,0.46c-0.28-0.28-0.42-0.64-0.43-1.03
					c-0.03-1.07-0.04-2.15-0.05-3.22c-0.01-0.53,0-1.07,0-1.6c0-0.27-0.09-0.51-0.36-0.62c-0.07-0.03-0.15-0.04-0.24-0.06
					c0.14-0.33,0.39-0.46,0.73-0.47c0.08-0.45,0.42-0.68,0.78-0.95v0.17c0,2.09,0,4.18,0,6.27c0,0.25,0,0.51,0.15,0.73
					C20.76,27.3,20.88,27.4,20.97,27.51"/>
				<path class="st16" d="M20,32.41c0.36,0,0.67-0.01,0.99,0c0.22,0.01,0.38,0.14,0.5,0.32c-0.1,0.1-0.2,0.2-0.3,0.3
					c-0.16-0.15-0.36-0.14-0.57-0.13c-0.05,0.28,0.12,0.5,0.39,0.5c0.19,0,0.38,0,0.57,0c0.04,0,0.08,0,0.16,0.01
					c-0.1,0.15-0.18,0.27-0.27,0.38c-0.03,0.04-0.1,0.05-0.15,0.05c-0.44,0-0.89,0-1.33,0c-0.05,0-0.12-0.04-0.14-0.08
					c-0.07-0.11-0.11-0.23-0.18-0.37h0.41C20.05,33.07,20.03,32.74,20,32.41"/>
				<path class="st16" d="M13.39,22.45c0,0.22-0.17,0.44-0.46,0.46c-0.25,0.01-0.48-0.22-0.48-0.45c0-0.24,0.23-0.47,0.47-0.47
					C13.16,21.98,13.39,22.2,13.39,22.45"/>
				<path class="st16" d="M11.36,22.44c0-0.25,0.23-0.47,0.47-0.46c0.24,0,0.46,0.23,0.46,0.48c0,0.23-0.17,0.44-0.47,0.45
					C11.56,22.91,11.36,22.7,11.36,22.44"/>
				<path class="st16" d="M15.96,22.19c-0.31,0.01-0.48-0.24-0.47-0.44c0-0.28,0.21-0.46,0.46-0.48c0.25-0.02,0.48,0.22,0.48,0.47
					C16.43,21.98,16.22,22.18,15.96,22.19"/>
			</g>
		</g>
	</g>
</g>
</svg>
